<svg width="2318" height="50" viewBox="0 0 2318 50" fill="none" xmlns="http://www.w3.org/2000/svg">
<path d="M41.3597 29.928L28.2397 29.928L34.8317 15.464L41.3597 29.928ZM50.0637 49L70.7357 49L47.8877 1.384L22.6077 1.384L0.0156555 49L19.5357 49L22.7997 41.896L46.7997 41.896L50.0637 49ZM75.0302 49L105.046 49C131.734 49 137.494 37.288 137.494 25.96L137.494 24.04C137.494 12.712 131.734 1.384 105.046 1.384L75.0302 1.384L75.0302 49ZM94.5502 14.504L102.166 14.504C115.414 14.504 117.014 20.648 117.014 24.872L117.014 25.256C117.014 29.8 115.414 35.816 102.166 35.816L94.5502 35.816L94.5502 14.504ZM174.202 49.768C198.97 49.768 202.874 42.152 202.874 33.96L202.874 33.192C202.874 24.36 198.522 19.048 179.13 18.664L172.09 18.536C165.242 18.408 163.962 17.192 163.962 15.336C163.962 13.48 165.114 12.136 172.41 12.136L172.858 12.136C180.09 12.136 181.37 14.504 181.626 16.296L202.17 16.296L202.17 16.168C202.17 8.744 198.138 0.679999 174.202 0.679999L171.194 0.679999C149.882 0.679998 143.93 6.632 143.93 15.272L143.93 15.784C143.93 23.592 148.41 30.312 167.098 30.696L173.946 30.824C181.626 30.952 182.522 32.424 182.522 34.344C182.522 36.072 181.37 37.928 173.498 37.928L173.114 37.928C164.858 37.928 164.346 34.664 164.154 33L143.162 33L143.162 33.192C143.162 39.912 145.786 49.768 172.73 49.768L174.202 49.768ZM230.843 49L249.659 49L249.659 20.072L263.483 49L274.683 49L288.571 20.072L288.571 49L307.771 49L307.771 1.384L281.403 1.384L269.691 25.768L258.107 1.384L230.843 1.384L230.843 49ZM353.422 29.928L340.302 29.928L346.894 15.464L353.422 29.928ZM362.126 49L382.798 49L359.95 1.384L334.67 1.384L312.078 49L331.598 49L334.862 41.896L358.862 41.896L362.126 49ZM431.829 49L450.453 49L450.453 1.384L431.381 1.384L431.381 25.768L406.933 1.384L387.093 1.384L387.093 49L406.165 49L406.165 23.4L431.829 49ZM496.11 29.928L482.99 29.928L489.582 15.464L496.11 29.928ZM504.814 49L525.486 49L502.638 1.384L477.358 1.384L454.766 49L474.286 49L477.55 41.896L501.55 41.896L504.814 49ZM556.178 49.704C568.914 49.704 574.994 45.096 576.85 43.176C577.874 44.648 579.154 47.4 579.538 49L592.658 49L592.658 21.992L557.906 21.992L557.906 31.144L571.986 31.144C571.73 32.68 569.17 35.944 559.442 35.944C549.202 35.944 546.642 30.248 546.642 25.32L546.642 24.744C546.642 19.624 549.074 14.44 559.698 14.44C569.362 14.44 571.026 17.576 571.538 18.792L592.082 18.792L592.082 18.408C592.082 12.072 587.922 0.552005 560.786 0.552005L558.546 0.552005C532.562 0.552004 526.418 13.736 526.418 24.424L526.418 25.448C526.418 36.456 532.69 49.704 555.026 49.704L556.178 49.704ZM602.218 1.38401L602.218 49L652.458 49L652.458 36.712L621.802 36.712L621.802 31.144L651.05 31.144L651.05 18.664L621.802 18.664L621.802 13.544L652.01 13.544L652.01 1.38401L602.218 1.38401ZM661.53 49L680.346 49L680.346 20.072L694.17 49L705.37 49L719.258 20.072L719.258 49L738.458 49L738.458 1.38401L712.09 1.38401L700.378 25.768L688.794 1.38401L661.53 1.38401L661.53 49ZM748.718 1.38401L748.718 49L798.958 49L798.958 36.712L768.302 36.712L768.302 31.144L797.55 31.144L797.55 18.664L768.302 18.664L768.302 13.544L798.51 13.544L798.51 1.38401L748.718 1.38401ZM852.766 49L871.39 49L871.39 1.38401L852.318 1.38401L852.318 25.768L827.87 1.38401L808.03 1.38401L808.03 49L827.102 49L827.102 23.4L852.766 49ZM898.935 49L918.391 49L918.391 15.784L937.847 15.784L937.847 1.38401L879.479 1.38401L879.479 15.784L898.935 15.784L898.935 49ZM977.622 39.592L977.622 13.608L979.606 13.608L979.606 39.592L977.622 39.592ZM965.334 27.56L965.334 25.704L991.958 25.704L991.958 27.56L965.334 27.56ZM1050.33 49.768C1075.1 49.768 1079 42.152 1079 33.96L1079 33.192C1079 24.36 1074.65 19.048 1055.26 18.664L1048.22 18.536C1041.37 18.408 1040.09 17.192 1040.09 15.336C1040.09 13.48 1041.24 12.136 1048.54 12.136L1048.98 12.136C1056.22 12.136 1057.5 14.504 1057.75 16.296L1078.3 16.296L1078.3 16.168C1078.3 8.74401 1074.26 0.680009 1050.33 0.680009L1047.32 0.680009C1026.01 0.680009 1020.06 6.63201 1020.06 15.272L1020.06 15.784C1020.06 23.592 1024.54 30.312 1043.22 30.696L1050.07 30.824C1057.75 30.952 1058.65 32.424 1058.65 34.344C1058.65 36.072 1057.5 37.928 1049.62 37.928L1049.24 37.928C1040.98 37.928 1040.47 34.664 1040.28 33L1019.29 33L1019.29 33.192C1019.29 39.912 1021.91 49.768 1048.86 49.768L1050.33 49.768ZM1116.79 0.552011C1089.72 0.552011 1085.11 14.568 1085.04 24.104L1085.04 26.024C1085.04 35.432 1089.72 49.832 1116.79 49.832L1119.73 49.832C1147 49.832 1151.54 35.432 1151.54 26.024L1151.54 24.104C1151.54 14.568 1146.93 0.552012 1119.73 0.552011L1116.79 0.552011ZM1131.06 24.616L1131.06 25.256C1131.06 29.16 1129.52 35.496 1118.32 35.496C1107.12 35.496 1105.46 29.16 1105.46 25.256L1105.46 24.616C1105.46 20.84 1106.87 14.632 1118.26 14.632C1129.52 14.632 1131.06 20.84 1131.06 24.616ZM1191.46 49.832C1219.18 49.832 1222.63 36.52 1222.63 29.8L1222.63 29.032L1202.34 29.032C1202.22 29.864 1201.45 35.496 1190.12 35.496C1179.56 35.496 1177.96 29.032 1177.96 25.32L1177.96 24.616C1177.96 20.968 1179.37 14.632 1190.06 14.632C1201.51 14.632 1202.22 20.328 1202.34 21.288L1222.63 21.288L1222.63 20.584C1222.63 13.032 1219.24 0.552013 1191.46 0.552012L1188.58 0.552012C1162.22 0.552012 1157.54 15.016 1157.54 24.104L1157.54 26.024C1157.54 35.112 1162.28 49.832 1188.58 49.832L1191.46 49.832ZM1250.24 1.38401L1230.72 1.38401L1230.72 49L1250.24 49L1250.24 1.38401ZM1295.86 29.928L1282.74 29.928L1289.33 15.464L1295.86 29.928ZM1304.56 49L1325.24 49L1302.39 1.38401L1277.11 1.38401L1254.52 49L1274.04 49L1277.3 41.896L1301.3 41.896L1304.56 49ZM1329.53 1.38401L1329.53 49L1377.21 49L1377.21 34.152L1349.05 34.152L1349.05 1.38401L1329.53 1.38401ZM1417.18 39.592L1417.18 13.608L1419.17 13.608L1419.17 39.592L1417.18 39.592ZM1404.9 27.56L1404.9 25.704L1431.52 25.704L1431.52 27.56L1404.9 27.56ZM1489.89 49.768C1514.66 49.768 1518.56 42.152 1518.56 33.96L1518.56 33.192C1518.56 24.36 1514.21 19.048 1494.82 18.664L1487.78 18.536C1480.93 18.408 1479.65 17.192 1479.65 15.336C1479.65 13.48 1480.8 12.136 1488.1 12.136L1488.55 12.136C1495.78 12.136 1497.06 14.504 1497.31 16.296L1517.86 16.296L1517.86 16.168C1517.86 8.74402 1513.83 0.680015 1489.89 0.680014L1486.88 0.680014C1465.57 0.680014 1459.62 6.63201 1459.62 15.272L1459.62 15.784C1459.62 23.592 1464.1 30.312 1482.79 30.696L1489.63 30.824C1497.31 30.952 1498.21 32.424 1498.21 34.344C1498.21 36.072 1497.06 37.928 1489.19 37.928L1488.8 37.928C1480.55 37.928 1480.03 34.664 1479.84 33L1458.85 33L1458.85 33.192C1458.85 39.912 1461.47 49.768 1488.42 49.768L1489.89 49.768ZM1543.37 49L1562.83 49L1562.83 15.784L1582.28 15.784L1582.28 1.38402L1523.92 1.38402L1523.92 15.784L1543.37 15.784L1543.37 49ZM1609.86 14.504L1627.08 14.504C1631.11 14.504 1631.88 16.168 1631.88 17.832L1631.88 17.896C1631.88 19.688 1631.11 21.48 1627.08 21.48L1609.86 21.48L1609.86 14.504ZM1641.09 26.088C1646.21 25.128 1652.1 22.12 1652.1 14.888L1652.1 14.568C1652.1 7.78402 1649.41 1.38402 1632.33 1.38402L1590.34 1.38402L1590.34 49L1609.86 49L1609.86 34.856L1623.81 34.856C1630.66 34.856 1632.77 36.072 1632.77 42.216L1632.77 46.248C1632.77 47.912 1632.97 48.744 1633.16 49L1653.25 49L1653.25 48.68C1652.81 48.104 1652.55 47.464 1652.55 45.608L1652.55 36.84C1652.55 29.288 1647.05 26.728 1641.09 26.088ZM1696.8 29.928L1683.68 29.928L1690.27 15.464L1696.8 29.928ZM1705.5 49L1726.17 49L1703.33 1.38402L1678.05 1.38402L1655.45 49L1674.97 49L1678.24 41.896L1702.24 41.896L1705.5 49ZM1742 49L1761.45 49L1761.45 15.784L1780.91 15.784L1780.91 1.38402L1722.54 1.38402L1722.54 15.784L1742 15.784L1742 49ZM1788.97 1.38402L1788.97 49L1839.21 49L1839.21 36.712L1808.55 36.712L1808.55 31.144L1837.8 31.144L1837.8 18.664L1808.55 18.664L1808.55 13.544L1838.76 13.544L1838.76 1.38402L1788.97 1.38402ZM1875.93 49.704C1888.66 49.704 1894.74 45.096 1896.6 43.176C1897.62 44.648 1898.9 47.4 1899.29 49L1912.41 49L1912.41 21.992L1877.66 21.992L1877.66 31.144L1891.74 31.144C1891.48 32.68 1888.92 35.944 1879.19 35.944C1868.95 35.944 1866.39 30.248 1866.39 25.32L1866.39 24.744C1866.39 19.624 1868.82 14.44 1879.45 14.44C1889.11 14.44 1890.78 17.576 1891.29 18.792L1911.83 18.792L1911.83 18.408C1911.83 12.072 1907.67 0.552021 1880.54 0.552021L1878.3 0.552021C1852.31 0.55202 1846.17 13.736 1846.17 24.424L1846.17 25.448C1846.17 36.456 1852.44 49.704 1874.78 49.704L1875.93 49.704ZM1937.41 49L1956.87 49L1956.87 32.232L1981.64 1.38402L1960.77 1.38402L1947.97 17.192L1935.49 1.38402L1911.88 1.38402L1937.41 32.232L1937.41 49ZM2017 39.592L2017 13.608L2018.98 13.608L2018.98 39.592L2017 39.592ZM2004.71 27.56L2004.71 25.704L2031.33 25.704L2031.33 27.56L2004.71 27.56ZM2078.31 49L2097.77 49L2097.77 15.784L2117.22 15.784L2117.22 1.38402L2058.85 1.38402L2058.85 15.784L2078.31 15.784L2078.31 49ZM2125.28 1.38402L2125.28 49L2175.52 49L2175.52 36.712L2144.86 36.712L2144.86 31.144L2174.11 31.144L2174.11 18.664L2144.86 18.664L2144.86 13.544L2175.07 13.544L2175.07 1.38402L2125.28 1.38402ZM2216.4 49.832C2244.11 49.832 2247.57 36.52 2247.57 29.8L2247.57 29.032L2227.28 29.032C2227.15 29.864 2226.38 35.496 2215.06 35.496C2204.5 35.496 2202.9 29.032 2202.9 25.32L2202.9 24.616C2202.9 20.968 2204.3 14.632 2214.99 14.632C2226.45 14.632 2227.15 20.328 2227.28 21.288L2247.57 21.288L2247.57 20.584C2247.57 13.032 2244.18 0.552025 2216.4 0.552025L2213.52 0.552025C2187.15 0.552024 2182.48 15.016 2182.48 24.104L2182.48 26.024C2182.48 35.112 2187.22 49.832 2213.52 49.832L2216.4 49.832ZM2255.66 49L2275.18 49L2275.18 31.592L2297.96 31.592L2297.96 49L2317.42 49L2317.42 1.38403L2297.96 1.38403L2297.96 17.64L2275.18 17.64L2275.18 1.38403L2255.66 1.38403L2255.66 49Z" fill="#F3F2F2"/>
</svg>
