<svg width="1868" height="50" viewBox="0 0 1868 50" fill="none" xmlns="http://www.w3.org/2000/svg">
<path d="M33.928 49.832C61.64 49.832 65.096 36.52 65.096 29.8V29.032H44.808C44.68 29.864 43.912 35.496 32.584 35.496C22.024 35.496 20.424 29.032 20.424 25.32V24.616C20.424 20.968 21.832 14.632 32.52 14.632C43.976 14.632 44.68 20.328 44.808 21.288H65.096V20.584C65.096 13.032 61.704 0.551998 33.928 0.551998H31.048C4.68 0.551998 0.00800014 15.016 0.00800014 24.104V26.024C0.00800014 35.112 4.744 49.832 31.048 49.832H33.928ZM92.7025 14.504H109.919C113.951 14.504 114.719 16.168 114.719 17.832V17.896C114.719 19.688 113.951 21.48 109.919 21.48H92.7025V14.504ZM123.935 26.088C129.055 25.128 134.943 22.12 134.943 14.888V14.568C134.943 7.784 132.255 1.384 115.167 1.384H73.1825V49H92.7025V34.856H106.655C113.503 34.856 115.615 36.072 115.615 42.216V46.248C115.615 47.912 115.807 48.744 115.999 49H136.095V48.68C135.646 48.104 135.391 47.464 135.391 45.608V36.84C135.391 29.288 129.887 26.728 123.935 26.088ZM144.245 1.384V49H194.485V36.712H163.829V31.144H193.077V18.664H163.829V13.544H194.037V1.384H144.245ZM238.95 29.928H225.83L232.422 15.464L238.95 29.928ZM247.654 49H268.326L245.478 1.384H220.198L197.605 49H217.126L220.39 41.896H244.39L247.654 49ZM284.15 49H303.606V15.784H323.062V1.384H264.694V15.784H284.15V49ZM350.64 1.384H331.12V49H350.64V1.384ZM402.918 49L425.638 1.384H405.414L391.654 30.952L377.83 1.384H355.174L379.238 49H402.918ZM430.183 1.384V49H480.423V36.712H449.767V31.144H479.015V18.664H449.767V13.544H479.975V1.384H430.183ZM521.212 39.592V13.608H523.196V39.592H521.212ZM508.924 27.56V25.704H535.548V27.56H508.924ZM593.917 49.768C618.685 49.768 622.589 42.152 622.589 33.96V33.192C622.589 24.36 618.237 19.048 598.845 18.664L591.805 18.536C584.957 18.408 583.677 17.192 583.677 15.336C583.677 13.48 584.829 12.136 592.125 12.136H592.573C599.805 12.136 601.085 14.504 601.341 16.296H621.885V16.168C621.885 8.744 617.853 0.679996 593.917 0.679996H590.909C569.597 0.679996 563.645 6.632 563.645 15.272V15.784C563.645 23.592 568.125 30.312 586.813 30.696L593.661 30.824C601.341 30.952 602.237 32.424 602.237 34.344C602.237 36.072 601.085 37.928 593.213 37.928H592.829C584.573 37.928 584.061 34.664 583.869 33H562.877V33.192C562.877 39.912 565.501 49.768 592.445 49.768H593.917ZM660.377 0.551998C633.305 0.551998 628.697 14.568 628.633 24.104V26.024C628.633 35.432 633.305 49.832 660.377 49.832H663.321C690.585 49.832 695.129 35.432 695.129 26.024V24.104C695.129 14.568 690.521 0.551998 663.321 0.551998H660.377ZM674.649 24.616V25.256C674.649 29.16 673.113 35.496 661.913 35.496C650.713 35.496 649.049 29.16 649.049 25.256V24.616C649.049 20.84 650.457 14.632 661.849 14.632C673.113 14.632 674.649 20.84 674.649 24.616ZM735.053 49.832C762.765 49.832 766.221 36.52 766.221 29.8V29.032H745.933C745.805 29.864 745.037 35.496 733.709 35.496C723.149 35.496 721.549 29.032 721.549 25.32V24.616C721.549 20.968 722.957 14.632 733.645 14.632C745.101 14.632 745.805 20.328 745.933 21.288H766.221V20.584C766.221 13.032 762.829 0.551998 735.053 0.551998H732.173C705.805 0.551998 701.133 15.016 701.133 24.104V26.024C701.133 35.112 705.869 49.832 732.173 49.832H735.053ZM793.828 1.384H774.308V49H793.828V1.384ZM839.45 29.928H826.33L832.922 15.464L839.45 29.928ZM848.154 49H868.826L845.978 1.384H820.698L798.105 49H817.626L820.89 41.896H844.89L848.154 49ZM873.12 1.384V49H920.8V34.152H892.64V1.384H873.12ZM960.774 39.592V13.608H962.758V39.592H960.774ZM948.486 27.56V25.704H975.11V27.56H948.486ZM1022.09 49H1041.54V15.784H1061V1.384H1002.63V15.784H1022.09V49ZM1069.06 1.384V49H1119.3V36.712H1088.64V31.144H1117.89V18.664H1088.64V13.544H1118.85V1.384H1069.06ZM1160.18 49.832C1187.89 49.832 1191.35 36.52 1191.35 29.8V29.032H1171.06C1170.93 29.864 1170.16 35.496 1158.83 35.496C1148.27 35.496 1146.67 29.032 1146.67 25.32V24.616C1146.67 20.968 1148.08 14.632 1158.77 14.632C1170.23 14.632 1170.93 20.328 1171.06 21.288H1191.35V20.584C1191.35 13.032 1187.95 0.551998 1160.18 0.551998H1157.3C1130.93 0.551998 1126.26 15.016 1126.26 24.104V26.024C1126.26 35.112 1130.99 49.832 1157.3 49.832H1160.18ZM1199.43 49H1218.95V31.592H1241.74V49H1261.19V1.384H1241.74V17.64H1218.95V1.384H1199.43V49ZM1303.15 39.592V13.608H1305.13V39.592H1303.15ZM1290.86 27.56V25.704H1317.49V27.56H1290.86ZM1375.85 49.768C1400.62 49.768 1404.53 42.152 1404.53 33.96V33.192C1404.53 24.36 1400.17 19.048 1380.78 18.664L1373.74 18.536C1366.89 18.408 1365.61 17.192 1365.61 15.336C1365.61 13.48 1366.77 12.136 1374.06 12.136H1374.51C1381.74 12.136 1383.02 14.504 1383.28 16.296H1403.82V16.168C1403.82 8.744 1399.79 0.679996 1375.85 0.679996H1372.85C1351.53 0.679996 1345.58 6.632 1345.58 15.272V15.784C1345.58 23.592 1350.06 30.312 1368.75 30.696L1375.6 30.824C1383.28 30.952 1384.17 32.424 1384.17 34.344C1384.17 36.072 1383.02 37.928 1375.15 37.928H1374.77C1366.51 37.928 1366 34.664 1365.81 33H1344.81V33.192C1344.81 39.912 1347.44 49.768 1374.38 49.768H1375.85ZM1429.34 49H1448.79V15.784H1468.25V1.384H1409.88V15.784H1429.34V49ZM1495.83 14.504H1513.04C1517.08 14.504 1517.84 16.168 1517.84 17.832V17.896C1517.84 19.688 1517.08 21.48 1513.04 21.48H1495.83V14.504ZM1527.06 26.088C1532.18 25.128 1538.07 22.12 1538.07 14.888V14.568C1538.07 7.784 1535.38 1.384 1518.29 1.384H1476.31V49H1495.83V34.856H1509.78C1516.63 34.856 1518.74 36.072 1518.74 42.216V46.248C1518.74 47.912 1518.93 48.744 1519.12 49H1539.22V48.68C1538.77 48.104 1538.52 47.464 1538.52 45.608V36.84C1538.52 29.288 1533.01 26.728 1527.06 26.088ZM1582.76 29.928H1569.64L1576.23 15.464L1582.76 29.928ZM1591.47 49H1612.14L1589.29 1.384H1564.01L1541.42 49H1560.94L1564.2 41.896H1588.2L1591.47 49ZM1627.96 49H1647.42V15.784H1666.87V1.384H1608.51V15.784H1627.96V49ZM1674.93 1.384V49H1725.17V36.712H1694.52V31.144H1723.76V18.664H1694.52V13.544H1724.72V1.384H1674.93ZM1761.89 49.704C1774.63 49.704 1780.71 45.096 1782.57 43.176C1783.59 44.648 1784.87 47.4 1785.25 49H1798.37V21.992H1763.62V31.144H1777.7C1777.45 32.68 1774.89 35.944 1765.16 35.944C1754.92 35.944 1752.36 30.248 1752.36 25.32V24.744C1752.36 19.624 1754.79 14.44 1765.41 14.44C1775.08 14.44 1776.74 17.576 1777.25 18.792H1797.8V18.408C1797.8 12.072 1793.64 0.551998 1766.5 0.551998H1764.26C1738.28 0.551998 1732.13 13.736 1732.13 24.424V25.448C1732.13 36.456 1738.41 49.704 1760.74 49.704H1761.89ZM1823.38 49H1842.83V32.232L1867.6 1.384H1846.74L1833.94 17.192L1821.46 1.384H1797.84L1823.38 32.232V49Z" fill="#F3F2F2"/>
</svg>
