<svg width="141" height="14" viewBox="0 0 141 14" fill="none" xmlns="http://www.w3.org/2000/svg">
<path d="M0.889375 1.096V13H13.4494V9.928H5.78538V8.536H13.0974V5.416H5.78538V4.136H13.3374V1.096H0.889375ZM25.6055 13H31.4455L26.7575 6.776L31.0615 1.096H25.5255L22.9975 4.488L20.4855 1.096H14.4855L18.8535 6.76L14.2295 13H19.9895L22.7895 9.224L25.6055 13ZM41.5384 9.592C46.2904 9.592 47.5064 7.816 47.5064 5.368V5.144C47.5064 2.76 46.3544 1.096 41.5384 1.096H32.5144V13H37.3944V9.592H41.5384ZM37.3944 4.36H41.0584C42.2104 4.36 42.4344 4.872 42.4344 5.304V5.336C42.4344 5.832 42.2104 6.328 41.0584 6.328H37.3944V4.36ZM49.4519 1.096V13H61.3719V9.288H54.3319V1.096H49.4519ZM70.5318 0.888C63.7638 0.888 62.6118 4.392 62.5958 6.776V7.256C62.5958 9.608 63.7638 13.208 70.5318 13.208H71.2678C78.0838 13.208 79.2198 9.608 79.2198 7.256V6.776C79.2198 4.392 78.0678 0.888 71.2678 0.888H70.5318ZM74.0998 6.904V7.064C74.0998 8.04 73.7158 9.624 70.9158 9.624C68.1158 9.624 67.6998 8.04 67.6998 7.064V6.904C67.6998 5.96 68.0518 4.408 70.8998 4.408C73.7158 4.408 74.0998 5.96 74.0998 6.904ZM86.1288 4.376H90.4328C91.4408 4.376 91.6328 4.792 91.6328 5.208V5.224C91.6328 5.672 91.4408 6.12 90.4328 6.12H86.1288V4.376ZM93.9368 7.272C95.2168 7.032 96.6888 6.28 96.6888 4.472V4.392C96.6888 2.696 96.0168 1.096 91.7448 1.096H81.2488V13H86.1288V9.464H89.6168C91.3288 9.464 91.8568 9.768 91.8568 11.304V12.312C91.8568 12.728 91.9048 12.936 91.9528 13H96.9768V12.92C96.8647 12.776 96.8008 12.616 96.8008 12.152V9.96C96.8008 8.072 95.4248 7.432 93.9368 7.272ZM103.894 1.096H99.0144V13H103.894V1.096ZM117.636 13H122.292V1.096H117.524V7.192L111.412 1.096H106.452V13H111.22V6.6L117.636 13ZM131.77 13.176C134.954 13.176 136.474 12.024 136.938 11.544C137.194 11.912 137.514 12.6 137.61 13H140.89V6.248H132.202V8.536H135.722C135.658 8.92 135.018 9.736 132.586 9.736C130.026 9.736 129.386 8.312 129.386 7.08V6.936C129.386 5.656 129.994 4.36 132.65 4.36C135.066 4.36 135.482 5.144 135.61 5.448H140.746V5.352C140.746 3.768 139.706 0.888 132.922 0.888H132.362C125.866 0.888 124.33 4.184 124.33 6.856V7.112C124.33 9.864 125.898 13.176 131.482 13.176H131.77Z" fill="white"/>
</svg>
