<svg width="155" height="14" viewBox="0 0 155 14" fill="none" xmlns="http://www.w3.org/2000/svg">
<path d="M4.91 1.096H0.0300001V13H4.91V1.096ZM7.4675 13H14.9715C21.6435 13 23.0835 10.072 23.0835 7.24V6.76C23.0835 3.928 21.6435 1.096 14.9715 1.096H7.4675V13ZM12.3475 4.376H14.2515C17.5635 4.376 17.9635 5.912 17.9635 6.968V7.064C17.9635 8.2 17.5635 9.704 14.2515 9.704H12.3475V4.376ZM25.0925 1.096V13H37.6525V9.928H29.9885V8.536H37.3005V5.416H29.9885V4.136H37.5405V1.096H25.0925ZM51.1046 13H55.7606V1.096H50.9926V7.192L44.8806 1.096H39.9206V13H44.6886V6.6L51.1046 13ZM62.6469 13H67.5109V4.696H72.3749V1.096H57.7829V4.696H62.6469V13ZM79.2694 1.096H74.3894V13H79.2694V1.096ZM81.8269 1.096V13H86.7229V8.92H93.8749V5.752H86.7229V4.216H94.0989V1.096H81.8269ZM101.047 13H105.911V8.808L112.103 1.096H106.887L103.687 5.048L100.567 1.096H94.6632L101.047 8.808V13ZM117.894 1.096H113.014V13H117.894V1.096ZM131.636 13H136.292V1.096H131.524V7.192L125.412 1.096H120.452V13H125.22V6.6L131.636 13ZM145.77 13.176C148.954 13.176 150.474 12.024 150.938 11.544C151.194 11.912 151.514 12.6 151.61 13H154.89V6.248H146.202V8.536H149.722C149.658 8.92 149.018 9.736 146.586 9.736C144.026 9.736 143.386 8.312 143.386 7.08V6.936C143.386 5.656 143.994 4.36 146.65 4.36C149.066 4.36 149.482 5.144 149.61 5.448H154.746V5.352C154.746 3.768 153.706 0.888 146.922 0.888H146.362C139.866 0.888 138.33 4.184 138.33 6.856V7.112C138.33 9.864 139.898 13.176 145.482 13.176H145.77Z" fill="white"/>
</svg>
