<svg width="151" height="14" viewBox="0 0 151 14" fill="none" xmlns="http://www.w3.org/2000/svg">
<path d="M0.420625 13H5.12463V5.768L8.58063 13H11.3806L14.8526 5.768V13H19.6526V1.096H13.0606L10.1326 7.192L7.23663 1.096H0.420625V13ZM31.0655 8.232H27.7855L29.4335 4.616L31.0655 8.232ZM33.2415 13H38.4095L32.6975 1.096H26.3775L20.7295 13H25.6095L26.4255 11.224H32.4255L33.2415 13ZM49.6055 13H55.4455L50.7575 6.776L55.0615 1.096H49.5255L46.9975 4.488L44.4855 1.096H38.4855L42.8535 6.76L38.2295 13H43.9895L46.7895 9.224L49.6055 13ZM61.3944 1.096H56.5144V13H61.3944V1.096ZM63.9519 13H68.6559V5.768L72.1119 13H74.9119L78.3839 5.768V13H83.1839V1.096H76.5919L73.6639 7.192L70.7679 1.096H63.9519V13ZM90.6288 1.096H85.7488V13H90.6288V1.096ZM106.706 13V9.368H99.6663L106.642 4.008V1.096H93.0103V4.696H99.6343L92.9303 10.056V13H106.706ZM113.894 1.096H109.014V13H113.894V1.096ZM127.636 13H132.292V1.096H127.524V7.192L121.412 1.096H116.452V13H121.22V6.6L127.636 13ZM141.77 13.176C144.954 13.176 146.474 12.024 146.938 11.544C147.194 11.912 147.514 12.6 147.61 13H150.89V6.248H142.202V8.536H145.722C145.658 8.92 145.018 9.736 142.586 9.736C140.026 9.736 139.386 8.312 139.386 7.08V6.936C139.386 5.656 139.994 4.36 142.65 4.36C145.066 4.36 145.482 5.144 145.61 5.448H150.746V5.352C150.746 3.768 149.706 0.888 142.922 0.888H142.362C135.866 0.888 134.33 4.184 134.33 6.856V7.112C134.33 9.864 135.898 13.176 141.482 13.176H141.77Z" fill="white"/>
</svg>
