<svg width="408" height="26" viewBox="0 0 408 26" fill="none" xmlns="http://www.w3.org/2000/svg">
<path d="M18.608 18.184C28.112 18.184 30.544 14.632 30.544 9.736V9.288C30.544 4.52 28.24 1.192 18.608 1.192H0.56V25H10.32V18.184H18.608ZM10.32 7.72H17.648C19.952 7.72 20.4 8.744 20.4 9.608V9.672C20.4 10.664 19.952 11.656 17.648 11.656H10.32V7.72ZM44.195 7.752H52.803C54.819 7.752 55.203 8.584 55.203 9.416V9.448C55.203 10.344 54.819 11.24 52.803 11.24H44.195V7.752ZM59.811 13.544C62.371 13.064 65.315 11.56 65.315 7.944V7.784C65.315 4.392 63.971 1.192 55.427 1.192H34.435V25H44.195V17.928H51.171C54.595 17.928 55.651 18.536 55.651 21.608V23.624C55.651 24.456 55.747 24.872 55.843 25H65.891V24.84C65.667 24.552 65.539 24.232 65.539 23.304V18.92C65.539 15.144 62.787 13.864 59.811 13.544ZM79.7263 1.192H69.9663V25H79.7263V1.192ZM105.865 25L117.225 1.192H107.113L100.233 15.976L93.3213 1.192H81.9932L94.0253 25H105.865ZM135.1 15.464H128.54L131.836 8.232L135.1 15.464ZM139.452 25H149.788L138.364 1.192H125.724L114.428 25H124.188L125.82 21.448H137.82L139.452 25ZM167.214 25.416C181.07 25.416 182.798 18.76 182.798 15.4V15.016H172.654C172.59 15.432 172.206 18.248 166.542 18.248C161.262 18.248 160.462 15.016 160.462 13.16V12.808C160.462 10.984 161.166 7.816 166.51 7.816C172.238 7.816 172.59 10.664 172.654 11.144H182.798V10.792C182.798 7.016 181.102 0.775999 167.214 0.775999H165.774C152.59 0.775999 150.254 8.008 150.254 12.552V13.512C150.254 18.056 152.622 25.416 165.774 25.416H167.214ZM195.032 25H204.76V16.616L217.144 1.192H206.712L200.312 9.096L194.072 1.192H182.264L195.032 16.616V25ZM246.921 18.184C256.425 18.184 258.857 14.632 258.857 9.736V9.288C258.857 4.52 256.553 1.192 246.921 1.192H228.873V25H238.633V18.184H246.921ZM238.633 7.72H245.961C248.265 7.72 248.713 8.744 248.713 9.608V9.672C248.713 10.664 248.265 11.656 245.961 11.656H238.633V7.72ZM277.564 0.775999C264.028 0.775999 261.724 7.784 261.692 12.552V13.512C261.692 18.216 264.028 25.416 277.564 25.416H279.036C292.668 25.416 294.94 18.216 294.94 13.512V12.552C294.94 7.784 292.636 0.775999 279.036 0.775999H277.564ZM284.7 12.808V13.128C284.7 15.08 283.932 18.248 278.332 18.248C272.732 18.248 271.9 15.08 271.9 13.128V12.808C271.9 10.92 272.604 7.816 278.3 7.816C283.932 7.816 284.7 10.92 284.7 12.808ZM298.998 1.192V25H322.838V17.576H308.758V1.192H298.998ZM336.726 1.192H326.966V25H336.726V1.192ZM357.745 25.416C371.601 25.416 373.329 18.76 373.329 15.4V15.016H363.185C363.121 15.432 362.737 18.248 357.073 18.248C351.793 18.248 350.993 15.016 350.993 13.16V12.808C350.993 10.984 351.697 7.816 357.041 7.816C362.769 7.816 363.121 10.664 363.185 11.144H373.329V10.792C373.329 7.016 371.633 0.775999 357.745 0.775999H356.305C343.121 0.775999 340.785 8.008 340.785 12.552V13.512C340.785 18.056 343.153 25.416 356.305 25.416H357.745ZM385.563 25H395.291V16.616L407.675 1.192H397.243L390.843 9.096L384.603 1.192H372.795L385.563 16.616V25Z" fill="#F3F2F2"/>
</svg>
