<svg width="610" height="26" viewBox="0 0 610 26" fill="none" xmlns="http://www.w3.org/2000/svg">
<path d="M10.2 25H19.928V8.392H29.656V1.192H0.472V8.392H10.2V25ZM33.685 1.192V25H58.805V18.856H43.477V16.072H58.101V9.832H43.477V7.272H58.581V1.192H33.685ZM73.1013 7.752H81.7093C83.7253 7.752 84.1093 8.584 84.1093 9.416V9.448C84.1093 10.344 83.7253 11.24 81.7093 11.24H73.1013V7.752ZM88.7173 13.544C91.2773 13.064 94.2213 11.56 94.2213 7.944V7.784C94.2213 4.392 92.8773 1.192 84.3333 1.192H63.3413V25H73.1013V17.928H80.0773C83.5013 17.928 84.5573 18.536 84.5573 21.608V23.624C84.5573 24.456 84.6533 24.872 84.7493 25H94.7973V24.84C94.5732 24.552 94.4453 24.232 94.4453 23.304V18.92C94.4453 15.144 91.6933 13.864 88.7173 13.544ZM98.8725 25H108.281V10.536L115.193 25H120.793L127.737 10.536V25H137.337V1.192H124.153L118.297 13.384L112.505 1.192H98.8725V25ZM156.802 25.384C169.186 25.384 171.138 21.576 171.138 17.48V17.096C171.138 12.68 168.962 10.024 159.266 9.832L155.746 9.768C152.322 9.704 151.682 9.096 151.682 8.168C151.682 7.24 152.258 6.568 155.906 6.568H156.13C159.746 6.568 160.386 7.752 160.514 8.648H170.786V8.584C170.786 4.872 168.77 0.839998 156.802 0.839998H155.298C144.642 0.839998 141.666 3.816 141.666 8.136V8.392C141.666 12.296 143.906 15.656 153.25 15.848L156.674 15.912C160.514 15.976 160.962 16.712 160.962 17.672C160.962 18.536 160.386 19.464 156.45 19.464H156.258C152.13 19.464 151.874 17.832 151.778 17H141.282V17.096C141.282 20.456 142.594 25.384 156.066 25.384H156.802ZM202.819 15.464H196.259L199.555 8.232L202.819 15.464ZM207.171 25H217.507L206.083 1.192H193.443L182.146 25H191.907L193.539 21.448H205.539L207.171 25ZM242.022 25H251.334V1.192H241.798V13.384L229.574 1.192H219.654V25H229.19V12.2L242.022 25ZM256.466 25H271.474C284.818 25 287.698 19.144 287.698 13.48V12.52C287.698 6.856 284.818 1.192 271.474 1.192H256.466V25ZM266.226 7.752H270.034C276.658 7.752 277.458 10.824 277.458 12.936V13.128C277.458 15.4 276.658 18.408 270.034 18.408H266.226V7.752ZM317.527 25.416C331.382 25.416 333.111 18.76 333.111 15.4V15.016H322.967C322.903 15.432 322.519 18.248 316.855 18.248C311.575 18.248 310.775 15.016 310.775 13.16V12.808C310.775 10.984 311.479 7.816 316.823 7.816C322.551 7.816 322.903 10.664 322.967 11.144H333.111V10.792C333.111 7.016 331.415 0.775999 317.527 0.775999H316.087C302.903 0.775999 300.567 8.008 300.567 12.552V13.512C300.567 18.056 302.935 25.416 316.087 25.416H317.527ZM351.97 0.775999C338.434 0.775999 336.13 7.784 336.098 12.552V13.512C336.098 18.216 338.434 25.416 351.97 25.416H353.442C367.074 25.416 369.346 18.216 369.346 13.512V12.552C369.346 7.784 367.042 0.775999 353.442 0.775999H351.97ZM359.106 12.808V13.128C359.106 15.08 358.338 18.248 352.738 18.248C347.138 18.248 346.306 15.08 346.306 13.128V12.808C346.306 10.92 347.01 7.816 352.706 7.816C358.338 7.816 359.106 10.92 359.106 12.808ZM395.772 25H405.084V1.192H395.548V13.384L383.324 1.192H373.404V25H382.94V12.2L395.772 25ZM410.216 25H425.224C438.568 25 441.448 19.144 441.448 13.48V12.52C441.448 6.856 438.568 1.192 425.224 1.192H410.216V25ZM419.976 7.752H423.784C430.408 7.752 431.208 10.824 431.208 12.936V13.128C431.208 15.4 430.408 18.408 423.784 18.408H419.976V7.752ZM455.226 1.192H445.466V25H455.226V1.192ZM468.981 25H478.709V8.392H488.437V1.192H459.253V8.392H468.981V25ZM502.226 1.192H492.466V25H502.226V1.192ZM522.157 0.775999C508.621 0.775999 506.317 7.784 506.285 12.552V13.512C506.285 18.216 508.621 25.416 522.157 25.416H523.629C537.261 25.416 539.533 18.216 539.533 13.512V12.552C539.533 7.784 537.229 0.775999 523.629 0.775999H522.157ZM529.293 12.808V13.128C529.293 15.08 528.525 18.248 522.925 18.248C517.325 18.248 516.493 15.08 516.493 13.128V12.808C516.493 10.92 517.197 7.816 522.893 7.816C528.525 7.816 529.293 10.92 529.293 12.808ZM565.959 25H575.271V1.192H565.735V13.384L553.511 1.192H543.591V25H553.127V12.2L565.959 25ZM594.74 25.384C607.124 25.384 609.076 21.576 609.076 17.48V17.096C609.076 12.68 606.9 10.024 597.204 9.832L593.684 9.768C590.26 9.704 589.62 9.096 589.62 8.168C589.62 7.24 590.196 6.568 593.844 6.568H594.068C597.684 6.568 598.324 7.752 598.452 8.648H608.724V8.584C608.724 4.872 606.708 0.839998 594.74 0.839998H593.236C582.58 0.839998 579.604 3.816 579.604 8.136V8.392C579.604 12.296 581.844 15.656 591.188 15.848L594.612 15.912C598.452 15.976 598.9 16.712 598.9 17.672C598.9 18.536 598.324 19.464 594.388 19.464H594.196C590.068 19.464 589.812 17.832 589.716 17H579.22V17.096C579.22 20.456 580.532 25.384 594.004 25.384H594.74Z" fill="#F3F2F2"/>
</svg>
