<svg width="288" height="17" viewBox="0 0 288 17" fill="none" xmlns="http://www.w3.org/2000/svg">
<path d="M4.50781 6.38V16H8.60781V1.12H5.52781C4.88781 2.92 3.96781 3.36 0.967813 3.36V6.38H4.50781ZM16.4956 12.12H11.8356V16H16.4956V12.12ZM30.2816 16H34.3816V4.52H40.1416V1.12H24.5216V4.52H30.2816V16ZM42.9025 1.12V16H56.6425V12.72H46.9625V10.14H56.2225V6.78H46.9625V4.36H56.5225V1.12H42.9025ZM64.0538 4.4H69.7938C71.4738 4.4 71.9338 5.1 71.9338 5.94V5.98C71.9338 6.84 71.4738 7.56 69.7938 7.56H64.0538V4.4ZM73.1138 8.84C74.9738 8.42 76.2538 7.16 76.2538 5.3V5.1C76.2538 3.48 75.6138 1.12 69.9538 1.12H59.9338V16H64.0538V10.94H69.4138C71.4938 10.94 72.1938 11.82 72.1938 13.74V14.96C72.1938 15.62 72.2738 15.9 72.3338 16H76.5938V15.9C76.4738 15.66 76.3538 15.36 76.3538 14.24V12.7C76.3538 10.52 75.1338 9.3 73.1138 8.84ZM79.5627 16H83.5227V6.26L88.0427 16H91.2627L95.7827 6.26V16H99.8027V1.12H94.6627L89.7827 11.2L85.0427 1.12H79.5627V16ZM111.248 16.26C117.908 16.26 118.908 13.48 118.908 11.3V11.06C118.908 8.64 117.628 6.9 112.328 6.7L110.268 6.62C107.928 6.52 107.388 5.96 107.388 5.2C107.388 4.38 108.008 3.88 110.648 3.88H110.848C113.708 3.88 114.088 4.86 114.188 5.52H118.608V5.3C118.608 3.34 117.708 0.94 111.128 0.94H110.448C104.288 0.94 103.048 3.04 103.048 5.34V5.52C103.048 7.76 104.608 9.72 109.488 9.86L111.468 9.92C113.928 10 114.508 10.58 114.508 11.46C114.508 12.3 114.108 13.24 111.008 13.24H110.868C107.708 13.24 107.428 11.76 107.368 11.1H102.888V11.32C102.888 13.1 103.688 16.26 110.668 16.26H111.248ZM136.046 0.879999C129.086 0.879999 127.106 4.98 127.106 8.22V8.82C127.106 12.02 129.086 16.24 136.046 16.24H136.926C143.886 16.24 145.866 12.02 145.866 8.82V8.22C145.866 4.98 143.886 0.879999 136.926 0.879999H136.046ZM141.586 8.38V8.66C141.586 10.46 140.666 12.82 136.486 12.82C132.386 12.82 131.386 10.46 131.386 8.66V8.38C131.386 6.54 132.326 4.28 136.486 4.28C140.686 4.28 141.586 6.54 141.586 8.38ZM148.879 1.12V16H152.979V10.48H162.159V7.08H152.979V4.42H162.439V1.12H148.879ZM179.178 16.26C185.838 16.26 186.838 13.48 186.838 11.3V11.06C186.838 8.64 185.558 6.9 180.258 6.7L178.198 6.62C175.858 6.52 175.318 5.96 175.318 5.2C175.318 4.38 175.938 3.88 178.578 3.88H178.778C181.638 3.88 182.018 4.86 182.118 5.52H186.538V5.3C186.538 3.34 185.638 0.94 179.058 0.94H178.378C172.218 0.94 170.978 3.04 170.978 5.34V5.52C170.978 7.76 172.538 9.72 177.418 9.86L179.398 9.92C181.858 10 182.438 10.58 182.438 11.46C182.438 12.3 182.038 13.24 178.938 13.24H178.798C175.638 13.24 175.358 11.76 175.298 11.1H170.818V11.32C170.818 13.1 171.618 16.26 178.598 16.26H179.178ZM189.914 1.12V16H203.654V12.72H193.974V10.14H203.234V6.78H193.974V4.36H203.534V1.12H189.914ZM211.065 4.4H216.805C218.485 4.4 218.945 5.1 218.945 5.94V5.98C218.945 6.84 218.485 7.56 216.805 7.56H211.065V4.4ZM220.125 8.84C221.985 8.42 223.265 7.16 223.265 5.3V5.1C223.265 3.48 222.625 1.12 216.965 1.12H206.945V16H211.065V10.94H216.425C218.505 10.94 219.205 11.82 219.205 13.74V14.96C219.205 15.62 219.285 15.9 219.345 16H223.605V15.9C223.485 15.66 223.365 15.36 223.365 14.24V12.7C223.365 10.52 222.145 9.3 220.125 8.84ZM237.119 16L243.779 1.12H239.299L234.439 12.4L229.599 1.12H224.799L231.699 16H237.119ZM249.991 1.12H245.871V16H249.991V1.12ZM262.524 16.22C268.844 16.22 270.844 12.96 270.844 10.24V10.18H266.604C266.544 10.64 266.044 12.8 262.084 12.8C258.444 12.8 257.284 10.46 257.284 8.62V8.34C257.284 6.34 258.424 4.3 262.064 4.3C266.004 4.3 266.544 6.4 266.604 6.82H270.844V6.78C270.844 3.96 268.764 0.899999 262.524 0.899999H261.604C254.804 0.899999 253.004 5.12 253.004 8.22V8.82C253.004 11.86 254.804 16.22 261.604 16.22H262.524ZM273.801 1.12V16H287.541V12.72H277.861V10.14H287.121V6.78H277.861V4.36H287.421V1.12H273.801Z" fill="#F3F2F2"/>
</svg>
