<svg width="737" height="773" viewBox="0 0 737 773" fill="none" xmlns="http://www.w3.org/2000/svg">
<g filter="url(#filter0_d_97_4891)">
<path d="M614.336 145.091L613.827 147.873L617.902 153.776L620.462 154.419C620.557 154.37 621.127 154.107 621.97 154.283C622.778 154.452 624.202 155.1 625.894 157.55C627.384 159.709 627.531 161.375 627.26 162.553C626.976 163.789 626.158 164.805 625.197 165.468L624.807 165.737C623.712 166.493 622.552 166.836 621.436 166.646C620.344 166.461 618.908 165.702 617.371 163.475C615.683 161.03 615.551 159.459 615.662 158.633C615.72 158.201 615.855 157.886 615.978 157.673C616.041 157.566 616.101 157.483 616.149 157.425C616.196 157.367 616.227 157.338 616.228 157.338L616.516 154.733L612.441 148.83L609.659 148.32L609.603 148.359C607.225 150 605.31 152.632 604.934 156.169C604.562 159.674 605.73 163.778 608.904 168.375L609.788 169.656C613.303 174.748 617.299 177.127 621.236 177.639C625.11 178.142 628.58 176.792 631.026 175.103L631.862 174.526C634.269 172.864 636.78 170.084 637.723 166.273C638.683 162.39 637.935 157.769 634.408 152.659L633.524 151.378C630.297 146.705 626.789 144.206 623.328 143.373C619.855 142.536 616.717 143.448 614.42 145.033L614.336 145.091Z" fill="#D25B19" stroke="#D25B19" stroke-width="4" stroke-miterlimit="1.14521"/>
<path d="M621.101 182.501L620.399 185.241L623.951 191.238L626.691 191.94L648.349 179.111L649.051 176.371L645.499 170.374L642.759 169.672L621.101 182.501Z" fill="#D25B19" stroke="#D25B19" stroke-width="4" stroke-miterlimit="1.14521"/>
<path d="M668.979 219.395L669.439 217.261L666.769 210.277L663.467 209.597L644.123 229.49L643.688 231.598L647.023 240.32L648.787 241.603L676.287 243.043L678.26 240.331L675.758 233.789L673.98 232.506L670.204 232.336L666.28 222.073L668.979 219.395ZM656.639 231.725L659.177 229.192L660.204 231.878L656.639 231.725Z" fill="#D25B19" stroke="#D25B19" stroke-width="4" stroke-miterlimit="1.14521"/>
<path d="M653.025 253.089L652.443 253.865L652.693 254.802L655.376 264.879L655.891 266.812L657.699 266.331L656.889 267.412L656.307 268.188L656.557 269.126L660.384 283.498L660.898 285.431L662.831 284.916L686.81 278.532L688.742 278.017L688.228 276.084L687.083 271.784L686.568 269.851L684.635 270.366L667.996 274.797L666.342 268.585L682.981 264.154L684.914 263.64L684.399 261.707L683.254 257.407L682.739 255.469L680.802 255.99L664.179 260.461L662.539 254.211L679.168 249.872L681.134 249.359L680.59 247.402L679.365 242.989L678.835 241.079L676.92 241.593L658.462 246.542L657.794 246.721L657.379 247.275L653.025 253.089Z" fill="#D25B19" stroke="#D25B19" stroke-width="4"/>
<path d="M659.3 194.566C657.659 191.283 655.551 189.443 653.772 188.403L654.521 185.835L652.04 180.871L649.357 179.976L637.069 186.116L636.38 188.181L634.724 187.628L634.663 187.659C632.283 188.848 630.261 191.134 629.605 194.542C628.959 197.893 629.668 202.12 632.235 207.258L632.749 208.287C635.504 213.8 639.114 216.76 642.937 217.872C646.708 218.969 650.364 218.174 653.089 216.813L653.906 216.404C656.775 214.97 659.619 212.446 661.009 208.761C662.417 205.027 662.218 200.407 659.542 195.051L659.3 194.566ZM649.37 200.667L650.229 198.094C650.299 198.225 650.37 198.361 650.44 198.502C651.625 200.872 651.564 202.595 651.128 203.776C650.676 205.003 649.712 205.934 648.609 206.485L648.216 206.682C647.017 207.281 645.814 207.464 644.731 207.125C643.675 206.794 642.356 205.847 641.14 203.413C639.804 200.74 639.705 199.164 639.813 198.358C639.908 197.641 640.188 197.347 640.285 197.246C640.289 197.241 640.293 197.238 640.296 197.234L640.317 197.09L642.662 201.783L645.345 202.678L649.37 200.667Z" fill="#D25B19" stroke="#D25B19" stroke-width="4" stroke-miterlimit="1.14521"/>
<path d="M614.621 145.502L614.238 147.589L618.313 153.492L620.233 153.974C620.392 153.892 621.081 153.587 622.072 153.793C623.037 153.995 624.56 154.739 626.305 157.266C627.86 159.519 628.055 161.326 627.747 162.665C627.429 164.047 626.522 165.161 625.481 165.88L625.091 166.149C623.922 166.956 622.632 167.356 621.353 167.139C620.091 166.926 618.55 166.063 616.96 163.759C615.22 161.24 615.035 159.545 615.167 158.566C615.301 157.565 615.803 157.049 615.888 156.97L616.104 155.017L612.029 149.114L609.943 148.732L609.887 148.77C607.613 150.34 605.79 152.848 605.432 156.222C605.076 159.572 606.185 163.557 609.315 168.091L610.199 169.372C613.653 174.374 617.534 176.653 621.301 177.143C625.021 177.627 628.368 176.331 630.742 174.691L631.577 174.115C633.912 172.503 636.331 169.817 637.238 166.152C638.157 162.435 637.459 157.959 633.996 152.943L633.112 151.663C629.933 147.058 626.519 144.656 623.21 143.859C619.894 143.06 616.9 143.929 614.704 145.445L614.621 145.502Z" fill="#A6CE38" stroke="#A6CE38" stroke-width="3" stroke-miterlimit="1.14521"/>
<path d="M621.355 182.931L620.829 184.986L624.381 190.983L626.436 191.509L648.095 178.68L648.621 176.625L645.069 170.629L643.014 170.103L621.355 182.931Z" fill="#A6CE38" stroke="#A6CE38" stroke-width="3" stroke-miterlimit="1.14521"/>
<path d="M668.627 219.04L668.972 217.44L666.302 210.455L663.825 209.945L644.481 229.838L644.155 231.419L647.49 240.142L648.813 241.104L676.313 242.543L677.793 240.51L675.291 233.968L673.958 233.005L669.854 232.821L665.697 221.947L668.627 219.04ZM655.479 232.175L659.369 228.294L660.943 232.41L655.479 232.175Z" fill="#A6CE38" stroke="#A6CE38" stroke-width="3" stroke-miterlimit="1.14521"/>
<path d="M653.425 253.389L652.989 253.971L653.176 254.674L655.859 264.751L656.245 266.2L657.695 265.814L658.963 265.477L657.289 267.712L656.853 268.294L657.04 268.997L660.867 283.37L661.253 284.819L662.702 284.433L686.681 278.048L688.13 277.662L687.744 276.213L686.599 271.913L686.213 270.463L684.764 270.849L667.641 275.408L665.73 268.23L682.853 263.671L684.302 263.285L683.916 261.836L682.771 257.535L682.384 256.082L680.932 256.473L663.824 261.074L661.928 253.854L679.042 249.388L680.516 249.004L680.109 247.536L678.883 243.123L678.485 241.69L677.049 242.075L658.591 247.025L658.09 247.159L657.779 247.575L653.425 253.389Z" fill="#F3F2F2" stroke="#A6CE38" stroke-width="3"/>
<path d="M649.818 198.207L648.129 194.826C648.973 195.387 649.956 196.414 650.887 198.278C652.122 200.748 652.089 202.615 651.598 203.949C651.093 205.317 650.027 206.336 648.832 206.933L648.439 207.129C647.162 207.767 645.823 207.991 644.582 207.602C643.361 207.219 641.951 206.154 640.693 203.637C639.328 200.906 639.192 199.227 639.317 198.292C639.433 197.42 639.794 197.037 639.923 196.9C639.926 196.897 639.929 196.894 639.932 196.891L640.123 195.584L643.109 201.56L645.122 202.231L649.147 200.22L649.818 198.207ZM658.852 194.79C657.051 191.186 654.679 189.385 652.853 188.474C653.114 188.272 653.342 188.111 653.503 188.015L654.073 186.058L651.593 181.094L649.581 180.423L637.293 186.563L636.621 188.575L636.657 188.646L634.947 188.076L634.887 188.106C632.64 189.228 630.722 191.387 630.096 194.637C629.478 197.843 630.144 201.955 632.683 207.034L633.197 208.063C635.904 213.481 639.416 216.327 643.077 217.392C646.699 218.446 650.224 217.685 652.865 216.365L653.682 215.957C656.466 214.566 659.206 212.126 660.541 208.585C661.891 205.007 661.722 200.532 659.094 195.274L658.852 194.79Z" fill="#A6CE38" stroke="#A6CE38" stroke-width="3" stroke-miterlimit="1.14521"/>
<path d="M614.905 145.914L614.65 147.305L618.725 153.208L620.005 153.529C620.227 153.415 621.035 153.066 622.174 153.304C623.296 153.538 624.919 154.379 626.716 156.982C628.336 159.328 628.579 161.278 628.234 162.777C627.883 164.305 626.886 165.517 625.765 166.291L625.375 166.56C624.132 167.419 622.712 167.877 621.269 167.632C619.838 167.39 618.191 166.424 616.548 164.043C614.757 161.449 614.519 159.632 614.671 158.499C614.825 157.352 615.404 156.737 615.549 156.603L615.693 155.301L611.618 149.398L610.227 149.143L610.171 149.182C608.001 150.68 606.27 153.064 605.929 156.275C605.59 159.469 606.641 163.336 609.727 167.807L610.611 169.088C614.002 174 617.768 176.18 621.365 176.647C624.931 177.111 628.156 175.869 630.458 174.28L631.293 173.703C633.555 172.142 635.882 169.55 636.752 166.032C637.631 162.48 636.982 158.149 633.585 153.227L632.701 151.947C629.569 147.41 626.248 145.105 623.093 144.345C619.933 143.584 617.083 144.41 614.988 145.856L614.905 145.914Z" fill="#79DEF4" stroke="#79DEF4" stroke-width="2" stroke-miterlimit="1.14521"/>
<path d="M621.61 183.362L621.259 184.732L624.811 190.728L626.182 191.079L647.84 178.25L648.19 176.88L644.638 170.883L643.268 170.533L621.61 183.362Z" fill="#79DEF4" stroke="#79DEF4" stroke-width="2" stroke-miterlimit="1.14521"/>
<path d="M668.275 218.685L668.505 217.618L665.835 210.634L664.184 210.294L644.84 230.187L644.623 231.241L647.957 239.963L648.839 240.605L676.339 242.044L677.326 240.688L674.824 234.146L673.935 233.505L669.504 233.305L665.113 221.822L668.275 218.685ZM654.32 232.626L659.561 227.396L661.682 232.942L654.32 232.626Z" fill="#79DEF4" stroke="#79DEF4" stroke-width="2" stroke-miterlimit="1.14521"/>
<path d="M654.225 253.988L654.08 254.182L654.142 254.416L656.826 264.494L656.954 264.977L657.437 264.848L661.492 263.769L658.089 268.311L657.944 268.505L658.006 268.74L661.833 283.112L661.962 283.595L662.445 283.467L686.424 277.082L686.907 276.953L686.778 276.47L685.633 272.17L685.504 271.687L685.021 271.816L666.932 276.632L664.506 267.521L682.595 262.705L683.079 262.576L682.95 262.093L681.805 257.793L681.676 257.308L681.192 257.439L663.112 262.301L660.706 253.139L678.789 248.421L679.281 248.293L679.145 247.803L677.92 243.39L677.787 242.913L677.308 243.041L658.85 247.991L658.683 248.036L658.58 248.174L654.225 253.988Z" fill="#F3F2F2" stroke="#79DEF4"/>
<path d="M649.371 198.431L647.048 193.782C647.246 193.835 647.459 193.909 647.684 194.01C648.716 194.473 650.086 195.556 651.335 198.055C652.619 200.624 652.615 202.636 652.067 204.122C651.51 205.631 650.341 206.738 649.056 207.38L648.663 207.576C647.307 208.254 645.831 208.518 644.432 208.079C643.046 207.645 641.545 206.462 640.246 203.86C638.852 201.071 638.679 199.29 638.821 198.226C638.959 197.197 639.403 196.723 639.565 196.552L639.567 196.549L639.733 195.417L636.512 188.97L635.171 188.523L635.11 188.553C632.997 189.609 631.182 191.641 630.587 194.731C629.997 197.793 630.621 201.79 633.13 206.811L633.644 207.84C636.303 213.162 639.717 215.894 643.216 216.912C646.69 217.922 650.084 217.196 652.642 215.918L653.459 215.51C656.157 214.161 658.792 211.806 660.073 208.408C661.364 204.986 661.225 200.657 658.647 195.498L658.405 195.013C656.413 191.027 653.712 189.332 651.91 188.594C651.92 188.586 651.93 188.578 651.94 188.57C652.445 188.142 652.937 187.771 653.246 187.586L653.626 186.282L651.146 181.318L649.804 180.87L637.516 187.01L637.069 188.352L643.557 201.336L644.898 201.784L648.923 199.772L649.371 198.431Z" fill="#79DEF4" stroke="#79DEF4" stroke-width="2" stroke-miterlimit="1.14521"/>
<path d="M615.189 146.325L614.777 146.609L615.061 147.021L619.136 152.924L619.386 153.285L619.776 153.084C620.062 152.938 620.989 152.546 622.276 152.815C623.554 153.081 625.278 154.018 627.128 156.698C628.812 159.138 629.103 161.229 628.722 162.889C628.337 164.564 627.25 165.874 626.049 166.703L625.659 166.972C624.342 167.882 622.792 168.398 621.186 168.125C619.586 167.854 617.833 166.784 616.137 164.327C614.295 161.659 614.002 159.718 614.175 158.433C614.349 157.14 615.005 156.425 615.209 156.236L615.528 155.942L615.282 155.585L611.206 149.682L610.922 149.271L610.511 149.555L610.455 149.593C608.389 151.02 606.75 153.28 606.426 156.327C606.103 159.367 607.096 163.116 610.138 167.523L611.022 168.804C614.352 173.627 618.002 175.706 621.43 176.151C624.842 176.595 627.944 175.408 630.174 173.868L631.009 173.292C633.198 171.781 635.433 169.282 636.267 165.912C637.105 162.525 636.506 158.339 633.173 153.511L632.289 152.231C629.205 147.763 625.978 145.554 622.976 144.831C619.972 144.108 617.266 144.891 615.272 146.268L615.189 146.325Z" fill="#0C0D0D" stroke="#0C0D0D"/>
<path d="M621.865 183.792L621.435 184.047L621.69 184.477L625.242 190.474L625.496 190.904L625.927 190.649L647.585 177.82L648.015 177.565L647.76 177.135L644.208 171.138L643.953 170.708L643.523 170.963L621.865 183.792Z" fill="#0C0D0D" stroke="#0C0D0D"/>
<path d="M667.923 218.33L668.154 218.101L668.038 217.797L665.367 210.812L665.088 210.081L664.542 210.642L645.198 230.535L644.976 230.764L645.09 231.062L648.424 239.785L648.541 240.089L648.865 240.106L676.365 241.545L677.133 241.585L676.858 240.867L674.357 234.325L674.24 234.019L673.913 234.004L669.154 233.79L664.53 221.696L667.923 218.33ZM653.16 233.077L659.753 226.498L662.421 233.474L653.16 233.077Z" fill="#0C0D0D" stroke="#0C0D0D"/>
<path d="M654.225 253.988L654.08 254.182L654.142 254.416L656.826 264.494L656.954 264.977L657.437 264.848L661.492 263.769L658.089 268.311L657.944 268.505L658.006 268.74L661.833 283.112L661.962 283.595L662.445 283.467L686.424 277.082L686.907 276.953L686.778 276.47L685.633 272.17L685.504 271.687L685.021 271.816L666.932 276.632L664.506 267.521L682.595 262.705L683.079 262.576L682.95 262.093L681.805 257.793L681.676 257.308L681.192 257.439L663.112 262.301L660.706 253.139L678.789 248.421L679.281 248.293L679.145 247.803L677.92 243.39L677.787 242.913L677.308 243.041L658.85 247.991L658.683 248.036L658.58 248.174L654.225 253.988Z" fill="#F3F2F2" stroke="#0C0D0D"/>
<path d="M646.18 193.164C647.32 193.162 649.748 193.76 651.782 197.831C653.116 200.501 653.14 202.656 652.536 204.295C651.927 205.945 650.656 207.139 649.279 207.827L648.886 208.024C647.451 208.741 645.84 209.044 644.283 208.556C642.732 208.07 641.14 206.769 639.798 204.084C638.376 201.237 638.167 199.353 638.326 198.16C638.483 196.982 639.006 196.416 639.203 196.207L639.442 195.953L639.286 195.641L636.065 189.194L635.841 188.747L635.394 188.97L635.333 189C633.354 189.99 631.642 191.894 631.078 194.826C630.516 197.743 631.098 201.625 633.577 206.587L634.091 207.616C636.703 212.842 640.019 215.461 643.356 216.432C646.68 217.399 649.944 216.707 652.418 215.471L653.235 215.062C655.848 213.757 658.378 211.486 659.606 208.232C660.838 204.965 660.729 200.783 658.2 195.721L657.958 195.237C655.72 190.758 652.573 189.287 650.952 188.779C651.154 188.589 651.381 188.387 651.617 188.188C652.129 187.755 652.645 187.363 652.989 187.157L653.386 186.919L653.179 186.505L650.698 181.541L650.475 181.094L650.028 181.318L637.74 187.458L637.292 187.681L637.516 188.128L644.004 201.113L644.227 201.56L644.675 201.336L648.7 199.325L649.147 199.101L648.924 198.654L646.18 193.164Z" fill="#0C0D0D" stroke="#0C0D0D"/>
<path d="M657.936 195.64C655.275 190.313 651.311 189.42 650.418 189.223C650.993 188.557 652.401 187.362 653.157 186.908L650.677 181.945L638.389 188.085L644.877 201.069L648.902 199.057L645.847 192.944C646.559 192.702 649.993 192.461 652.655 197.787C655.423 203.326 652.865 206.987 649.929 208.454L649.535 208.651C646.509 210.163 642.544 210.026 639.777 204.487C636.873 198.676 638.795 196.543 639.265 196.044L636.043 189.597L635.983 189.627C632.29 191.472 629.55 196.737 634.45 206.544L634.964 207.573C640.091 217.833 647.838 217.593 652.62 215.203L653.438 214.795C658.492 212.269 663.139 206.052 658.178 196.124L657.936 195.64Z" fill="#F3F2F2"/>
<path d="M632.3 152.694C626.226 143.896 619.765 144.245 615.978 146.859L615.895 146.916L619.97 152.819C620.668 152.461 624.155 151.081 627.961 156.594C631.46 161.661 629.317 165.525 626.755 167.294L626.365 167.563C623.581 169.485 619.645 169.859 616.147 164.791C612.36 159.306 614.765 156.536 615.292 156.049L611.217 150.146L611.161 150.184C607.235 152.894 604.974 158.731 610.971 167.418L611.856 168.699C618.391 178.166 625.996 176.616 630.312 173.637L631.147 173.06C635.379 170.138 639.719 163.442 633.184 153.975L632.3 152.694Z" fill="#F3F2F2"/>
<path d="M622.546 184.402L626.098 190.398L647.756 177.57L644.204 171.573L622.546 184.402Z" fill="#F3F2F2"/>
<path d="M660.371 225.779L663.585 234.186L652.426 233.707L660.371 225.779ZM667.997 218.155L665.326 211.171L645.982 231.063L649.317 239.786L676.817 241.225L674.316 234.683L669.23 234.455L664.372 221.75L667.997 218.155Z" fill="#F3F2F2"/>
<path d="M654.625 254.288L657.309 264.365L662.756 262.914L658.49 268.611L662.316 282.984L686.295 276.599L685.15 272.299L666.578 277.244L663.894 267.167L682.467 262.222L681.322 257.921L662.756 262.914L660.096 252.782L678.663 247.937L677.438 243.524L658.98 248.474L654.625 254.288Z" fill="#F3F2F2"/>
</g>
<path d="M667.342 322.094L692.333 319.077L689.547 296.001L684.039 296.666L686.001 312.923L681.668 313.446L679.791 297.894L674.147 298.575L676.025 314.128L671.961 314.618L670.022 298.562L664.581 299.219L667.342 322.094Z" fill="#F3F2F2"/>
<path d="M693.544 342.996L681.709 343.392L693.139 330.89L692.835 321.794L679.67 336.08L667.696 323.21L667.992 332.07L678.733 343.492L668.386 343.838L668.619 350.804L693.777 349.962L693.544 342.996Z" fill="#F3F2F2"/>
<path d="M683.481 364.392L682.95 373.376L672.978 368.347L683.481 364.392ZM693.569 360.582L694.01 353.118L668.193 363.286L667.642 372.608L692.113 385.238L692.526 378.247L687.984 375.945L688.787 362.367L693.569 360.582Z" fill="#F3F2F2"/>
<path d="M686.448 421.519L687.541 414.91L671.285 412.221L688.789 407.366L689.678 401.991L674.669 391.759L690.926 394.447L692.035 387.738L667.2 383.63L665.781 392.209L681.258 403.136L663.126 408.265L661.613 417.411L686.448 421.519Z" fill="#F3F2F2"/>
<path d="M679.393 449.407C682.702 438.637 678.703 435.639 675.177 434.556L674.789 434.437C670.876 433.235 667.426 434.44 664.47 442.912L663.317 446.203C661.993 449.937 660.819 450.533 659.59 450.155C658.264 449.748 657.764 448.497 659.075 444.227L659.174 443.904C660.595 439.279 662.369 439.151 663.486 439.318L665.681 432.17L665.326 432.061C662.156 431.087 657.828 431.35 654.559 441.991L654.221 443.09C651.161 453.052 653.941 456.1 657.661 457.243L657.952 457.332C661.574 458.445 665.519 456.896 668.169 449.074L669.25 445.902C670.601 441.964 671.827 441.314 673.25 441.751C674.609 442.168 675.93 443.282 674.39 448.295L674.321 448.521C672.751 453.632 670.218 453.349 669.121 453.118L666.896 460.363L667.251 460.472C670.13 461.357 675.637 461.633 679.105 450.345L679.393 449.407Z" fill="#F3F2F2"/>
<path d="M667.478 481.516L670.087 475.09L652.093 467.784L655.759 458.755L650.43 456.591L640.489 481.075L645.818 483.238L649.484 474.21L667.478 481.516Z" fill="#F3F2F2"/>
<path d="M629.281 503.387L651.724 514.788L662.251 494.065L657.304 491.551L649.888 506.151L645.996 504.175L653.091 490.208L648.023 487.634L640.928 501.6L637.278 499.746L644.603 485.327L639.716 482.845L629.281 503.387Z" fill="#F3F2F2"/>
<path d="M616.399 524.77L637.847 537.948L649.555 518.893L644.51 515.793L636.451 528.91L620.048 518.831L616.399 524.77Z" fill="#F3F2F2"/>
<g filter="url(#filter1_d_97_4891)">
<path d="M453.418 672.442L451.03 670.927L444.03 672.494L442.475 674.627C442.485 674.733 442.515 675.36 442.036 676.076C441.577 676.762 440.443 677.839 437.537 678.49C434.977 679.063 433.378 678.575 432.387 677.882C431.347 677.156 430.711 676.017 430.456 674.878L430.353 674.416C430.062 673.117 430.179 671.914 430.773 670.95C431.354 670.006 432.595 668.96 435.236 668.368C438.135 667.719 439.642 668.185 440.366 668.598C440.745 668.814 440.986 669.057 441.137 669.25C441.213 669.349 441.267 669.436 441.303 669.501C441.339 669.567 441.355 669.607 441.355 669.607L443.662 670.851L450.662 669.283L452.177 666.895L452.162 666.829C451.53 664.009 449.808 661.248 446.669 659.574C443.558 657.916 439.316 657.462 433.865 658.682L432.346 659.022C426.308 660.374 422.605 663.188 420.656 666.647C418.738 670.05 418.69 673.772 419.34 676.673L419.561 677.664C420.201 680.519 421.837 683.888 425.018 686.19C428.258 688.535 432.823 689.573 438.882 688.216L440.401 687.876C445.942 686.636 449.574 684.319 451.643 681.422C453.72 678.515 454.05 675.264 453.441 672.541L453.418 672.442Z" fill="#D25B19" stroke="#D25B19" stroke-width="4" stroke-miterlimit="1.14521"/>
<path d="M416.2 664.703L413.922 663.026L407.032 664.073L405.355 666.351L409.136 691.238L411.414 692.915L418.305 691.868L419.981 689.59L416.2 664.703Z" fill="#D25B19" stroke="#D25B19" stroke-width="4" stroke-miterlimit="1.14521"/>
<path d="M364.053 695.277L365.86 696.503L373.336 696.643L375.203 693.836L364.006 668.449L362.213 667.257L352.877 667.081L351.026 668.236L339.39 693.194L341.165 696.039L348.168 696.17L350.024 695.002L351.596 691.565L362.582 691.771L364.053 695.277ZM357.245 679.217L358.642 682.519L355.767 682.465L357.245 679.217Z" fill="#D25B19" stroke="#D25B19" stroke-width="4" stroke-miterlimit="1.14521"/>
<path d="M338.79 667.862L338.288 667.032L337.326 666.913L326.977 665.626L324.993 665.379L324.762 667.235L324.063 666.079L323.561 665.249L322.598 665.13L307.839 663.294L305.854 663.047L305.607 665.032L302.544 689.656L302.297 691.641L304.282 691.888L308.698 692.437L310.683 692.684L310.93 690.699L313.055 673.611L319.434 674.405L317.309 691.492L317.062 693.477L319.047 693.724L323.463 694.273L325.452 694.521L325.695 692.53L327.777 675.443L334.186 676.263L331.979 693.307L331.718 695.322L333.737 695.551L338.287 696.068L340.257 696.292L340.498 694.324L342.824 675.356L342.908 674.67L342.55 674.078L338.79 667.862Z" fill="#D25B19" stroke="#D25B19" stroke-width="4"/>
<path d="M390.702 695.603C394.361 695.312 396.857 694.047 398.488 692.787L400.589 694.443L406.12 694.003L407.955 691.85L406.865 678.157L405.208 676.745L406.342 675.416L406.336 675.348C406.125 672.696 404.763 669.965 401.849 668.08C398.984 666.226 394.799 665.3 389.074 665.755L387.927 665.846C381.783 666.335 377.687 668.573 375.223 671.702C372.793 674.787 372.161 678.474 372.403 681.511L372.475 682.421C372.73 685.619 374.005 689.202 376.901 691.871C379.835 694.575 384.194 696.121 390.163 695.646L390.702 695.603ZM388.766 684.112L390.829 685.871C390.682 685.888 390.529 685.902 390.372 685.915C387.731 686.125 386.156 685.423 385.224 684.577C384.256 683.698 383.754 682.455 383.656 681.226L383.621 680.788C383.515 679.452 383.796 678.268 384.516 677.391C385.218 676.536 386.59 675.668 389.302 675.452C392.281 675.215 393.78 675.713 394.487 676.115C395.116 676.472 395.283 676.842 395.341 676.969C395.344 676.975 395.346 676.98 395.348 676.984L395.473 677.057L390.244 677.474L388.409 679.626L388.766 684.112Z" fill="#D25B19" stroke="#D25B19" stroke-width="4" stroke-miterlimit="1.14521"/>
<path d="M452.93 672.551L451.139 671.415L444.139 672.982L442.973 674.581C442.989 674.759 443.015 675.512 442.452 676.354C441.903 677.173 440.643 678.307 437.646 678.978C434.975 679.576 433.226 679.079 432.1 678.292C430.938 677.48 430.245 676.221 429.969 674.987L429.865 674.525C429.555 673.138 429.667 671.793 430.347 670.687C431.018 669.598 432.395 668.492 435.127 667.88C438.114 667.212 439.755 667.674 440.614 668.163C441.491 668.663 441.781 669.322 441.823 669.43L443.553 670.363L450.553 668.796L451.689 667.004L451.674 666.938C451.07 664.241 449.428 661.612 446.434 660.016C443.461 658.431 439.35 657.966 433.974 659.17L432.455 659.51C426.524 660.838 422.956 663.583 421.091 666.892C419.249 670.16 419.197 673.749 419.828 676.564L420.049 677.555C420.669 680.323 422.253 683.572 425.311 685.785C428.414 688.031 432.826 689.06 438.773 687.728L440.292 687.388C445.752 686.166 449.259 683.9 451.236 681.131C453.219 678.355 453.536 675.254 452.953 672.65L452.93 672.551Z" fill="#A6CE38" stroke="#A6CE38" stroke-width="3" stroke-miterlimit="1.14521"/>
<path d="M415.706 664.778L413.997 663.521L407.107 664.568L405.849 666.276L409.63 691.163L411.339 692.421L418.23 691.374L419.487 689.665L415.706 664.778Z" fill="#A6CE38" stroke="#A6CE38" stroke-width="3" stroke-miterlimit="1.14521"/>
<path d="M364.514 695.084L365.869 696.003L373.345 696.143L374.746 694.038L363.548 668.651L362.204 667.756L352.867 667.581L351.48 668.447L339.844 693.405L341.175 695.539L348.177 695.67L349.57 694.795L351.278 691.059L362.917 691.277L364.514 695.084ZM357.261 677.973L359.403 683.033L354.997 682.951L357.261 677.973Z" fill="#A6CE38" stroke="#A6CE38" stroke-width="3" stroke-miterlimit="1.14521"/>
<path d="M338.362 668.121L337.986 667.499L337.264 667.409L326.916 666.122L325.427 665.937L325.242 667.425L325.08 668.727L323.635 666.338L323.258 665.716L322.536 665.626L307.777 663.79L306.288 663.605L306.103 665.094L303.04 689.718L302.855 691.206L304.344 691.391L308.76 691.941L310.248 692.126L310.433 690.637L312.621 673.053L319.992 673.97L317.805 691.554L317.62 693.043L319.108 693.228L323.524 693.777L325.016 693.963L325.198 692.47L327.341 674.883L334.746 675.831L332.475 693.371L332.28 694.882L333.793 695.054L338.344 695.571L339.821 695.739L340.002 694.263L342.327 675.295L342.391 674.78L342.122 674.336L338.362 668.121Z" fill="#F3F2F2" stroke="#A6CE38" stroke-width="3"/>
<path d="M390.878 685.448L394.647 685.148C393.81 685.721 392.49 686.248 390.412 686.413C387.66 686.632 385.941 685.903 384.888 684.947C383.809 683.967 383.264 682.596 383.158 681.266L383.123 680.827C383.01 679.404 383.304 678.079 384.129 677.074C384.942 676.085 386.457 675.177 389.263 674.953C392.306 674.711 393.913 675.214 394.734 675.68C395.498 676.114 395.718 676.592 395.797 676.764C395.799 676.767 395.8 676.771 395.802 676.775L396.942 677.442L390.283 677.972L388.907 679.586L389.264 684.072L390.878 685.448ZM390.663 695.105C394.679 694.785 397.237 693.26 398.767 691.908C398.855 692.226 398.919 692.498 398.948 692.683L400.549 693.945L406.08 693.504L407.457 691.89L406.367 678.197L404.752 676.82L404.674 676.827L405.843 675.455L405.838 675.388C405.638 672.884 404.356 670.297 401.577 668.499C398.836 666.726 394.774 665.803 389.113 666.254L387.966 666.345C381.929 666.825 377.975 669.015 375.616 672.011C373.282 674.974 372.667 678.527 372.901 681.471L372.974 682.382C373.221 685.484 374.457 688.938 377.24 691.503C380.052 694.095 384.264 695.614 390.123 695.148L390.663 695.105Z" fill="#A6CE38" stroke="#A6CE38" stroke-width="3" stroke-miterlimit="1.14521"/>
<path d="M452.443 672.66L451.248 671.903L444.249 673.47L443.471 674.536C443.494 674.785 443.514 675.665 442.867 676.632C442.23 677.584 440.842 678.774 437.755 679.466C434.973 680.088 433.075 679.583 431.814 678.702C430.528 677.804 429.778 676.425 429.481 675.096L429.377 674.634C429.047 673.159 429.154 671.671 429.921 670.425C430.682 669.189 432.195 668.024 435.018 667.393C438.093 666.704 439.868 667.163 440.861 667.729C441.867 668.302 442.22 669.069 442.29 669.253L443.444 669.875L450.443 668.308L451.201 667.113L451.186 667.047C450.61 664.473 449.047 661.976 446.199 660.457C443.364 658.945 439.384 658.471 434.083 659.658L432.565 659.998C426.739 661.302 423.308 663.977 421.527 667.138C419.761 670.27 419.704 673.725 420.315 676.455L420.537 677.445C421.138 680.128 422.669 683.256 425.605 685.38C428.569 687.526 432.828 688.547 438.664 687.241L440.183 686.901C445.562 685.696 448.943 683.481 450.83 680.84C452.719 678.195 453.021 675.244 452.465 672.759L452.443 672.66Z" fill="#79DEF4" stroke="#79DEF4" stroke-width="2" stroke-miterlimit="1.14521"/>
<path d="M415.211 664.854L414.073 664.015L407.182 665.062L406.343 666.201L410.125 691.088L411.264 691.926L418.154 690.879L418.993 689.74L415.211 664.854Z" fill="#79DEF4" stroke="#79DEF4" stroke-width="2" stroke-miterlimit="1.14521"/>
<path d="M364.975 694.89L365.879 695.503L373.355 695.643L374.288 694.24L363.091 668.853L362.194 668.256L352.858 668.081L351.933 668.658L340.297 693.617L341.184 695.039L348.187 695.171L349.115 694.587L350.96 690.553L363.252 690.784L364.975 694.89ZM357.278 676.729L360.164 683.548L354.227 683.436L357.278 676.729Z" fill="#79DEF4" stroke="#79DEF4" stroke-width="2" stroke-miterlimit="1.14521"/>
<path d="M337.507 668.639L337.381 668.431L337.141 668.401L326.792 667.114L326.296 667.052L326.234 667.548L325.717 671.712L322.779 666.856L322.654 666.648L322.413 666.618L307.653 664.783L307.157 664.721L307.095 665.217L304.033 689.841L303.971 690.337L304.467 690.399L308.883 690.948L309.379 691.01L309.441 690.514L311.752 671.938L321.108 673.101L318.797 691.678L318.735 692.174L319.232 692.235L323.648 692.785L324.145 692.847L324.206 692.349L326.47 673.764L335.866 674.966L333.467 693.5L333.402 694.003L333.906 694.061L338.457 694.578L338.949 694.634L339.009 694.142L341.335 675.174L341.356 675.002L341.266 674.854L337.507 668.639Z" fill="#F3F2F2" stroke="#79DEF4"/>
<path d="M390.839 684.95L396.019 684.538C395.896 684.701 395.748 684.871 395.57 685.042C394.754 685.825 393.236 686.69 390.452 686.912C387.588 687.139 385.725 686.382 384.552 685.317C383.362 684.236 382.773 682.738 382.659 681.305L382.624 680.867C382.504 679.356 382.812 677.889 383.743 676.756C384.665 675.634 386.324 674.686 389.223 674.455C392.331 674.208 394.047 674.715 394.981 675.245C395.883 675.758 396.156 676.348 396.254 676.562L396.256 676.565L397.243 677.143L404.427 676.571L405.345 675.495L405.339 675.427C405.152 673.073 403.948 670.629 401.306 668.919C398.688 667.225 394.748 666.307 389.153 666.752L388.006 666.843C382.076 667.315 378.263 669.457 376.009 672.32C373.771 675.162 373.173 678.581 373.4 681.431L373.472 682.342C373.711 685.349 374.908 688.674 377.578 691.135C380.268 693.614 384.333 695.107 390.083 694.649L390.623 694.606C395.065 694.253 397.648 692.383 399.007 690.989C399.012 691.001 399.016 691.013 399.02 691.026C399.227 691.654 399.386 692.25 399.442 692.605L400.509 693.446L406.041 693.006L406.958 691.93L405.868 678.236L404.792 677.319L390.323 678.47L389.406 679.547L389.763 684.032L390.839 684.95Z" fill="#79DEF4" stroke="#79DEF4" stroke-width="2" stroke-miterlimit="1.14521"/>
<path d="M451.955 672.769L451.845 672.281L451.357 672.391L444.358 673.958L443.929 674.054L443.969 674.491C443.998 674.811 444.014 675.817 443.283 676.91C442.557 677.995 441.042 679.242 437.864 679.953C434.971 680.601 432.923 680.088 431.527 679.112C430.119 678.128 429.311 676.63 428.993 675.206L428.889 674.743C428.539 673.181 428.641 671.55 429.495 670.163C430.346 668.781 431.995 667.557 434.908 666.905C438.072 666.196 439.981 666.652 441.108 667.294C442.242 667.94 442.659 668.816 442.758 669.076L442.911 669.482L443.335 669.387L450.334 667.82L450.822 667.71L450.713 667.223L450.698 667.157C450.149 664.706 448.667 662.34 445.963 660.898C443.266 659.46 439.418 658.976 434.193 660.146L432.674 660.486C426.955 661.766 423.659 664.372 421.962 667.383C420.273 670.38 420.211 673.701 420.803 676.346L421.025 677.336C421.606 679.932 423.085 682.94 425.898 684.975C428.725 687.021 432.83 688.034 438.554 686.753L440.073 686.413C445.371 685.226 448.628 683.062 450.423 680.55C452.219 678.036 452.506 675.233 451.977 672.868L451.955 672.769Z" fill="#0C0D0D" stroke="#0C0D0D"/>
<path d="M414.717 664.929L414.642 664.434L414.148 664.509L407.257 665.556L406.763 665.632L406.838 666.126L410.619 691.013L410.694 691.507L411.189 691.432L418.079 690.385L418.574 690.31L418.499 689.816L414.717 664.929Z" fill="#0C0D0D" stroke="#0C0D0D"/>
<path d="M365.437 694.697L365.563 694.997L365.888 695.003L373.364 695.143L374.147 695.158L373.831 694.442L362.633 669.054L362.504 668.762L362.185 668.756L352.848 668.581L352.523 668.575L352.386 668.87L340.75 693.828L340.425 694.525L341.194 694.539L348.196 694.671L348.524 694.677L348.66 694.379L350.641 690.047L363.587 690.29L365.437 694.697ZM357.294 675.485L360.924 684.062L353.457 683.922L357.294 675.485Z" fill="#0C0D0D" stroke="#0C0D0D"/>
<path d="M337.507 668.639L337.381 668.431L337.141 668.401L326.792 667.114L326.296 667.052L326.234 667.548L325.717 671.712L322.779 666.856L322.654 666.648L322.413 666.618L307.653 664.783L307.157 664.721L307.095 665.217L304.033 689.841L303.971 690.337L304.467 690.399L308.883 690.948L309.379 691.01L309.441 690.514L311.752 671.938L321.108 673.101L318.797 691.678L318.735 692.174L319.232 692.235L323.648 692.785L324.145 692.847L324.206 692.349L326.47 673.764L335.866 674.966L333.467 693.5L333.402 694.003L333.906 694.061L338.457 694.578L338.949 694.634L339.009 694.142L341.335 675.174L341.356 675.002L341.266 674.854L337.507 668.639Z" fill="#F3F2F2" stroke="#0C0D0D"/>
<path d="M396.917 683.965C396.493 685.022 395.028 687.049 390.491 687.41C387.517 687.647 385.509 686.862 384.216 685.687C382.914 684.505 382.283 682.879 382.161 681.345L382.126 680.907C381.999 679.308 382.321 677.7 383.357 676.439C384.388 675.183 386.191 674.195 389.183 673.957C392.356 673.704 394.181 674.216 395.227 674.81C396.261 675.397 396.589 676.095 396.71 676.356L396.856 676.672L397.204 676.644L404.387 676.073L404.886 676.033L404.846 675.535L404.841 675.467C404.665 673.261 403.541 670.961 401.034 669.339C398.54 667.725 394.722 666.81 389.193 667.251L388.046 667.342C382.222 667.805 378.552 669.899 376.402 672.63C374.26 675.35 373.679 678.634 373.898 681.392L373.971 682.302C374.202 685.214 375.36 688.41 377.917 690.768C380.485 693.134 384.403 694.6 390.044 694.151L390.583 694.108C395.575 693.711 398.117 691.344 399.196 690.031C399.296 690.29 399.398 690.576 399.494 690.869C399.704 691.506 399.874 692.132 399.936 692.527L400.008 692.984L400.47 692.948L406.001 692.508L406.499 692.468L406.46 691.969L405.37 678.276L405.33 677.778L404.832 677.817L390.363 678.969L389.864 679.009L389.904 679.507L390.261 683.993L390.301 684.491L390.799 684.451L396.917 683.965Z" fill="#0C0D0D" stroke="#0C0D0D"/>
<path d="M390.219 693.934C396.155 693.461 398.469 690.121 398.986 689.367C399.388 690.149 399.968 691.902 400.106 692.774L405.637 692.333L404.547 678.64L390.078 679.791L390.435 684.277L397.248 683.735C397.206 684.485 396.143 687.76 390.207 688.233C384.035 688.724 381.599 684.981 381.338 681.709L381.303 681.27C381.035 677.898 382.647 674.274 388.819 673.782C395.295 673.267 396.553 675.848 396.84 676.47L404.024 675.898L404.018 675.831C403.691 671.716 399.836 667.203 388.908 668.073L387.761 668.164C376.328 669.074 373.648 676.347 374.072 681.676L374.145 682.587C374.593 688.219 378.617 694.857 389.68 693.977L390.219 693.934Z" fill="#F3F2F2"/>
<path d="M439.64 686.253C450.073 683.917 452.17 677.796 451.165 673.306L451.142 673.207L444.143 674.774C444.214 675.555 444.187 679.306 437.649 680.77C431.64 682.115 428.861 678.681 428.181 675.643L428.077 675.181C427.338 671.879 428.466 668.09 434.475 666.745C440.979 665.289 442.647 668.556 442.901 669.227L449.901 667.66L449.886 667.594C448.844 662.939 444.279 658.656 433.978 660.962L432.459 661.302C421.233 663.815 419.821 671.447 420.967 676.565L421.189 677.555C422.312 682.574 426.895 689.106 438.121 686.593L439.64 686.253Z" fill="#F3F2F2"/>
<path d="M413.895 665.328L407.004 666.375L410.785 691.262L417.676 690.215L413.895 665.328Z" fill="#F3F2F2"/>
<path d="M361.361 684.901L352.362 684.732L356.986 674.565L361.361 684.901ZM365.573 694.827L373.049 694.968L361.851 669.58L352.515 669.405L340.879 694.363L347.881 694.495L349.999 689.865L363.597 690.12L365.573 694.827Z" fill="#F3F2F2"/>
<path d="M337.079 668.897L326.731 667.61L326.035 673.204L322.351 667.114L307.592 665.279L304.529 689.903L308.945 690.452L311.317 671.38L321.666 672.667L319.293 691.739L323.709 692.288L326.035 673.204L336.426 674.533L333.963 693.564L338.513 694.081L340.839 675.113L337.079 668.897Z" fill="#F3F2F2"/>
</g>
<path d="M264.913 657.003L258.965 681.463L281.551 686.956L282.862 681.564L266.95 677.694L267.981 673.453L283.203 677.155L284.546 671.632L269.324 667.93L270.292 663.952L286.007 667.774L287.302 662.448L264.913 657.003Z" fill="#F3F2F2"/>
<path d="M236.14 674.198L239.924 662.977L247.618 678.069L256.242 680.977L247.486 663.635L263.741 656.94L255.341 654.108L240.876 660.156L244.184 650.345L237.58 648.118L229.536 671.971L236.14 674.198Z" fill="#F3F2F2"/>
<path d="M219.638 657.265L211.412 653.614L219.622 646.041L219.638 657.265ZM219.664 668.048L226.499 671.081L226.041 643.338L217.506 639.55L197.089 658.029L203.49 660.87L207.24 657.426L219.672 662.943L219.664 668.048Z" fill="#F3F2F2"/>
<path d="M165.111 639.99L170.915 643.334L179.14 629.056L177.541 647.151L182.261 649.87L197.112 639.408L188.887 653.686L194.78 657.081L207.345 635.268L199.81 630.928L184.145 641.584L185.708 622.805L177.675 618.178L165.111 639.99Z" fill="#F3F2F2"/>
<path d="M141.472 623.597C150.395 630.475 154.606 627.783 156.858 624.863L157.106 624.541C159.605 621.299 159.687 617.645 152.793 611.903L150.115 609.669C147.083 607.118 146.938 605.81 147.723 604.791C148.57 603.693 149.917 603.663 153.454 606.39L153.722 606.597C157.554 609.551 157.051 611.256 156.504 612.244L162.426 616.809L162.653 616.514C164.677 613.888 165.95 609.743 157.134 602.947L156.223 602.244C147.97 595.882 144.14 597.415 141.764 600.497L141.578 600.738C139.264 603.739 139.33 607.976 145.724 613.204L148.315 615.329C151.528 617.977 151.706 619.354 150.797 620.533C149.93 621.658 148.423 622.504 144.269 619.302L144.082 619.158C139.848 615.894 141.001 613.622 141.603 612.676L135.6 608.049L135.373 608.343C133.535 610.728 131.343 615.788 140.695 622.998L141.472 623.597Z" fill="#F3F2F2"/>
<path d="M115.589 601.164L120.691 605.863L133.849 591.579L141.016 598.181L144.913 593.951L125.478 576.048L121.581 580.278L128.748 586.88L115.589 601.164Z" fill="#F3F2F2"/>
<path d="M108.519 557.721L89.9659 574.733L105.675 591.865L109.765 588.115L98.6975 576.046L101.914 573.096L112.501 584.642L116.691 580.8L106.104 569.254L109.121 566.488L120.051 578.408L124.091 574.703L108.519 557.721Z" fill="#F3F2F2"/>
<path d="M93.0187 538.152L73.1502 553.609L86.8823 571.261L91.5556 567.625L82.1032 555.474L97.2983 543.653L93.0187 538.152Z" fill="#F3F2F2"/>
<path d="M197.635 70.4259L184.889 48.7188L164.845 60.4883L167.654 65.2732L181.775 56.9814L183.985 60.7452L170.477 68.6771L173.355 73.5787L186.864 65.6468L188.937 69.1771L174.99 77.366L177.766 82.0926L197.635 70.4259Z" fill="#F3F2F2"/>
<g filter="url(#filter2_d_97_4891)">
<path d="M56.5591 189.441L59.3192 188.823L63.1606 182.765L62.7521 180.158C62.67 180.089 62.2054 179.667 62.0379 178.823C61.8772 178.012 61.9177 176.449 63.5125 173.934C64.917 171.719 66.3931 170.933 67.5836 170.722C68.8324 170.5 70.0872 170.856 71.0729 171.481L71.4729 171.735C72.597 172.448 73.365 173.381 73.6271 174.483C73.8835 175.561 73.7453 177.179 72.2962 179.464C70.7051 181.973 69.3102 182.709 68.5064 182.929C68.086 183.045 67.7434 183.043 67.4999 183.013C67.3763 182.997 67.2766 182.974 67.2049 182.953C67.133 182.932 67.0941 182.915 67.0933 182.915L64.5828 183.667L60.7415 189.725L61.3594 192.485L61.4165 192.521C63.857 194.069 67.0275 194.803 70.4302 193.767C73.8023 192.74 77.1232 190.061 80.1149 185.344L80.9484 184.029C84.2622 178.804 84.8909 174.196 83.8236 170.372C82.7735 166.609 80.1749 163.943 77.6641 162.351L76.8069 161.808C74.3361 160.241 70.7964 159.015 66.9191 159.637C62.9701 160.27 59.0084 162.764 55.6833 168.008L54.8498 169.322C51.8086 174.118 50.8793 178.324 51.4644 181.836C52.0515 185.359 54.1163 187.892 56.4734 189.386L56.5591 189.441Z" fill="#D25B19" stroke="#D25B19" stroke-width="4" stroke-miterlimit="1.14521"/>
<path d="M88.3501 168.595L91.1464 168.17L95.2786 162.557L94.8537 159.76L74.5821 144.837L71.7858 145.262L67.6537 150.874L68.0785 153.671L88.3501 168.595Z" fill="#D25B19" stroke="#D25B19" stroke-width="4" stroke-miterlimit="1.14521"/>
<path d="M103.602 110.109L101.458 110.519L96.0727 115.706L96.7369 119.012L122.607 129.045L124.717 128.621L131.443 122.143L131.935 120.018L122.515 94.142L119.248 93.3857L114.204 98.2441L113.717 100.383L115.036 103.925L107.122 111.547L103.602 110.109ZM119.774 116.651L116.45 115.304L118.521 113.309L119.774 116.651Z" fill="#D25B19" stroke="#D25B19" stroke-width="4" stroke-miterlimit="1.14521"/>
<path d="M140.852 111.629L141.794 111.861L142.559 111.265L150.787 104.858L152.365 103.629L151.215 102.153L152.527 102.476L153.469 102.708L154.234 102.112L165.969 92.9732L167.546 91.7444L166.318 90.1664L151.071 70.5888L149.843 69.0109L148.265 70.2397L144.754 72.9739L143.176 74.2028L144.405 75.7807L154.984 89.3664L149.913 93.316L139.333 79.7303L138.104 78.1524L136.526 79.3812L133.015 82.1154L131.433 83.3474L132.669 84.9262L143.279 98.4809L138.168 102.433L127.676 88.8209L126.436 87.2119L124.846 88.477L121.263 91.329L119.712 92.5636L120.933 94.1255L132.701 109.182L133.127 109.727L133.799 109.893L140.852 111.629Z" fill="#D25B19" stroke="#D25B19" stroke-width="4"/>
<path d="M84.5282 128.72C82.1468 131.513 81.2763 134.172 81.0146 136.216L78.3579 136.531L74.7579 140.753L74.9823 143.573L85.4356 152.485L87.6058 152.312L87.7444 154.053L87.7959 154.097C89.8205 155.823 92.7145 156.791 96.1085 156.064C99.4451 155.349 103.059 153.045 106.786 148.674L107.532 147.798C111.53 143.108 112.845 138.629 112.375 134.675C111.911 130.775 109.751 127.721 107.433 125.745L106.738 125.152C104.296 123.071 100.861 121.439 96.9268 121.6C92.9394 121.762 88.764 123.751 84.8794 128.308L84.5282 128.72ZM94.0233 135.476L91.32 135.691C91.4128 135.575 91.5101 135.457 91.6122 135.337C93.3314 133.321 94.9409 132.703 96.1983 132.643C97.5045 132.58 98.7386 133.104 99.6767 133.903L100.011 134.189C101.031 135.058 101.67 136.094 101.781 137.223C101.889 138.325 101.532 139.909 99.7674 141.979C97.8288 144.253 96.4165 144.96 95.6327 145.176C94.9356 145.368 94.5555 145.225 94.4243 145.176C94.4187 145.174 94.4136 145.172 94.4089 145.17L94.2685 145.207L97.672 141.215L97.4476 138.395L94.0233 135.476Z" fill="#D25B19" stroke="#D25B19" stroke-width="4" stroke-miterlimit="1.14521"/>
<path d="M56.8269 189.018L58.897 188.555L62.7383 182.497L62.4319 180.542C62.295 180.428 61.7443 179.913 61.5474 178.92C61.3556 177.953 61.4457 176.26 63.0902 173.666C64.5559 171.355 66.1437 170.469 67.4964 170.229C68.8928 169.982 70.2728 170.382 71.3406 171.059L71.7407 171.313C72.9409 172.074 73.8131 173.105 74.1135 174.367C74.4097 175.612 74.2175 177.368 72.7184 179.732C71.079 182.317 69.5915 183.15 68.6386 183.411C67.6647 183.679 66.9938 183.418 66.8879 183.371L65.0051 183.935L61.1637 189.992L61.6272 192.063L61.6843 192.099C64.0183 193.579 67.0389 194.277 70.2845 193.288C73.5072 192.307 76.7422 189.729 79.6926 185.076L80.5261 183.762C83.7815 178.628 84.3632 174.165 83.342 170.506C82.3337 166.893 79.833 164.319 77.3963 162.773L76.5391 162.23C74.1432 160.71 70.7257 159.533 66.9982 160.131C63.217 160.737 59.3695 163.129 56.1056 168.275L55.2721 169.59C52.2755 174.315 51.3985 178.397 51.9577 181.754C52.5183 185.118 54.4876 187.535 56.7412 188.964L56.8269 189.018Z" fill="#A6CE38" stroke="#A6CE38" stroke-width="3" stroke-miterlimit="1.14521"/>
<path d="M88.6465 168.192L90.7438 167.873L94.8759 162.26L94.5573 160.163L74.2857 145.239L72.1884 145.558L68.0563 151.171L68.375 153.268L88.6465 168.192Z" fill="#A6CE38" stroke="#A6CE38" stroke-width="3" stroke-miterlimit="1.14521"/>
<path d="M103.413 110.571L101.805 110.879L96.4196 116.067L96.9177 118.545L122.787 128.579L124.37 128.261L131.096 121.783L131.465 120.189L122.045 94.3131L119.595 93.7458L114.55 98.6043L114.185 100.208L115.619 104.058L107.234 112.133L103.413 110.571ZM120.641 117.542L115.548 115.478L118.722 112.421L120.641 117.542Z" fill="#A6CE38" stroke="#A6CE38" stroke-width="3" stroke-miterlimit="1.14521"/>
<path d="M140.972 111.144L141.678 111.318L142.252 110.871L150.479 104.463L151.663 103.542L150.741 102.358L149.935 101.323L152.646 101.99L153.353 102.164L153.927 101.717L165.661 92.5787L166.845 91.6571L165.923 90.4736L150.677 70.896L149.755 69.7126L148.572 70.6342L145.061 73.3684L143.877 74.2901L144.799 75.4735L155.686 89.4537L149.826 94.0177L138.938 80.0376L138.017 78.8541L136.833 79.7757L133.322 82.5099L132.136 83.4339L133.063 84.618L143.983 98.5687L138.077 103.135L127.28 89.1261L126.35 87.9194L125.158 88.8682L121.575 91.7202L120.411 92.6461L121.327 93.8176L133.095 108.874L133.414 109.283L133.918 109.407L140.972 111.144Z" fill="#F3F2F2" stroke="#A6CE38" stroke-width="3"/>
<path d="M91.5843 136.025L89.1318 138.901C89.3185 137.905 89.8796 136.599 91.2318 135.013C93.0232 132.912 94.7545 132.212 96.1742 132.144C97.6306 132.073 98.9854 132.657 100.001 133.523L100.336 133.808C101.422 134.735 102.151 135.88 102.278 137.174C102.403 138.448 101.974 140.162 100.148 142.303C98.1671 144.627 96.6748 145.408 95.7655 145.658C94.9178 145.892 94.4243 145.709 94.2474 145.644C94.2434 145.642 94.2397 145.641 94.236 145.639L92.9576 145.974L97.2915 140.891L97.1232 138.776L93.6989 135.856L91.5843 136.025ZM84.9087 129.044C82.2945 132.11 81.564 134.998 81.4388 137.035C81.1508 136.873 80.914 136.726 80.7626 136.616L78.7384 136.855L75.1384 141.078L75.3067 143.192L85.76 152.104L87.8746 151.936L87.9258 151.876L88.0688 153.673L88.1203 153.716C90.0314 155.346 92.768 156.268 96.0038 155.575C99.1964 154.89 102.721 152.67 106.405 148.349L107.151 147.474C111.081 142.865 112.328 138.521 111.878 134.734C111.433 130.988 109.355 128.041 107.108 126.125L106.413 125.533C104.045 123.513 100.729 121.945 96.9472 122.099C93.126 122.255 89.0733 124.159 85.2599 128.632L84.9087 129.044Z" fill="#A6CE38" stroke="#A6CE38" stroke-width="3" stroke-miterlimit="1.14521"/>
<path d="M57.0947 188.596L58.4747 188.287L62.316 182.23L62.1118 180.926C61.9201 180.766 61.2833 180.158 61.057 179.017C60.8341 177.893 60.9737 176.07 62.668 173.398C64.1947 170.991 65.8942 170.006 67.4091 169.737C68.9532 169.463 70.4584 169.908 71.6084 170.637L72.0084 170.891C73.2848 171.7 74.2612 172.828 74.5999 174.251C74.9358 175.663 74.6897 177.557 73.1407 180C71.4528 182.661 69.8729 183.592 68.7709 183.894C67.6548 184.2 66.8622 183.907 66.6826 183.826L65.4273 184.203L61.586 190.26L61.8949 191.64L61.9521 191.676C64.1795 193.089 67.0504 193.751 70.1389 192.81C73.2121 191.874 76.3612 189.396 79.2704 184.808L80.1039 183.494C83.3009 178.452 83.8356 174.135 82.8604 170.641C81.8938 167.177 79.4912 164.694 77.1285 163.196L76.2714 162.652C73.9502 161.18 70.655 160.051 67.0774 160.624C63.4639 161.204 59.7305 163.493 56.5278 168.543L55.6943 169.858C52.7423 174.513 51.9176 178.471 52.4509 181.671C52.9851 184.878 54.8589 187.178 57.0089 188.542L57.0947 188.596Z" fill="#79DEF4" stroke="#79DEF4" stroke-width="2" stroke-miterlimit="1.14521"/>
<path d="M88.943 167.789L90.3411 167.577L94.4733 161.964L94.2608 160.566L73.9893 145.642L72.5911 145.854L68.459 151.467L68.6714 152.865L88.943 167.789Z" fill="#79DEF4" stroke="#79DEF4" stroke-width="2" stroke-miterlimit="1.14521"/>
<path d="M103.224 111.034L102.152 111.24L96.7664 116.427L97.0985 118.079L122.968 128.113L124.024 127.901L130.749 121.423L130.995 120.36L121.575 94.4841L119.942 94.1059L114.897 98.9644L114.654 100.034L116.202 104.19L107.347 112.719L103.224 111.034ZM121.509 118.433L114.647 115.652L118.924 111.533L121.509 118.433Z" fill="#79DEF4" stroke="#79DEF4" stroke-width="2" stroke-miterlimit="1.14521"/>
<path d="M141.211 110.173L141.446 110.231L141.637 110.082L149.865 103.674L150.259 103.367L149.952 102.973L147.374 99.6625L152.885 101.019L153.121 101.077L153.312 100.928L165.047 91.7897L165.441 91.4825L165.134 91.088L149.888 71.5105L149.581 71.116L149.186 71.4232L145.675 74.1574L145.281 74.4646L145.588 74.8591L157.09 89.6282L149.651 95.4211L138.149 80.652L137.842 80.2575L137.448 80.5647L133.937 83.2989L133.541 83.6069L133.85 84.0016L145.39 98.7445L137.897 104.539L126.488 89.7366L126.178 89.3344L125.781 89.6506L122.197 92.5027L121.81 92.8113L122.115 93.2018L133.883 108.259L133.989 108.395L134.157 108.436L141.211 110.173Z" fill="#F3F2F2" stroke="#79DEF4"/>
<path d="M91.9647 136.349L88.5933 140.304C88.5646 140.101 88.5491 139.876 88.5543 139.629C88.5779 138.499 89.0393 136.814 90.8513 134.688C92.7151 132.502 94.5682 131.72 96.1502 131.644C97.7567 131.567 99.2321 132.21 100.326 133.142L100.66 133.428C101.814 134.411 102.633 135.666 102.776 137.125C102.918 138.571 102.415 140.415 100.528 142.628C98.5054 145 96.9332 145.855 95.8984 146.14C94.8974 146.416 94.2878 146.191 94.0667 146.11L94.0632 146.109L92.9565 146.398L88.281 151.882L88.3932 153.292L88.4446 153.336C90.2423 154.869 92.8215 155.745 95.899 155.086C98.9477 154.432 102.383 152.296 106.025 148.025L106.771 147.149C110.631 142.622 111.812 138.412 111.382 134.793C110.955 131.201 108.96 128.361 106.784 126.506L106.089 125.913C103.793 123.956 100.596 122.451 96.9676 122.599C93.3127 122.748 89.3826 124.567 85.6404 128.956L85.2892 129.368C82.3981 132.76 81.8933 135.908 81.9182 137.855C81.9068 137.849 81.8953 137.843 81.8839 137.838C81.2927 137.54 80.7591 137.231 80.4683 137.02L79.1189 137.179L75.5189 141.402L75.6311 142.812L86.0844 151.724L87.4941 151.612L96.911 140.566L96.7988 139.156L93.3745 136.237L91.9647 136.349Z" fill="#79DEF4" stroke="#79DEF4" stroke-width="2" stroke-miterlimit="1.14521"/>
<path d="M57.3624 188.174L57.7847 188.442L58.0524 188.019L61.8938 181.962L62.1289 181.591L61.7917 181.31C61.5451 181.105 60.8222 180.404 60.5665 179.114C60.3125 177.833 60.5017 175.881 62.2457 173.131C63.8335 170.627 65.6448 169.542 67.3219 169.245C69.0135 168.945 70.644 169.433 71.8762 170.215L72.2762 170.468C73.6287 171.326 74.7093 172.551 75.0863 174.136C75.462 175.715 75.1619 177.746 73.5629 180.267C71.8266 183.005 70.1543 184.033 68.9031 184.376C67.6449 184.721 66.7306 184.397 66.4772 184.282L66.0818 184.104L65.8496 184.47L62.0082 190.528L61.7405 190.95L62.1627 191.218L62.2199 191.254C64.3408 192.599 67.0618 193.224 69.9932 192.332C72.917 191.441 75.9802 189.063 78.8481 184.54L79.6816 183.226C82.8203 178.277 83.308 174.104 82.3788 170.775C81.454 167.461 79.1493 165.069 76.8608 163.618L76.0036 163.074C73.7572 161.65 70.5843 160.569 67.1565 161.118C63.7108 161.67 60.0916 163.857 56.9501 168.811L56.1166 170.125C53.2091 174.71 52.4367 178.544 52.9441 181.589C53.4518 184.637 55.2302 186.822 57.2767 188.12L57.3624 188.174Z" fill="#0C0D0D" stroke="#0C0D0D"/>
<path d="M89.2394 167.387L89.6421 167.683L89.9385 167.28L94.0706 161.668L94.3671 161.265L93.9644 160.968L73.6928 146.045L73.2902 145.748L72.9938 146.151L68.8616 151.764L68.5652 152.166L68.9678 152.463L89.2394 167.387Z" fill="#0C0D0D" stroke="#0C0D0D"/>
<path d="M103.035 111.497L102.733 111.374L102.499 111.6L97.1133 116.787L96.5493 117.33L97.2793 117.613L123.149 127.646L123.447 127.762L123.677 127.54L130.403 121.063L130.637 120.837L130.526 120.531L121.105 94.6552L120.842 93.9328L120.289 94.4661L115.244 99.3245L115.008 99.5519L115.122 99.8592L116.785 104.323L107.459 113.305L103.035 111.497ZM122.377 119.324L113.745 115.826L119.125 110.645L122.377 119.324Z" fill="#0C0D0D" stroke="#0C0D0D"/>
<path d="M141.211 110.173L141.446 110.231L141.637 110.082L149.865 103.674L150.259 103.367L149.952 102.973L147.374 99.6625L152.885 101.019L153.121 101.077L153.312 100.928L165.047 91.7897L165.441 91.4825L165.134 91.088L149.888 71.5105L149.581 71.116L149.186 71.4232L145.675 74.1574L145.281 74.4646L145.588 74.8591L157.09 89.6282L149.651 95.4211L138.149 80.652L137.842 80.2575L137.448 80.5647L133.937 83.2989L133.541 83.6069L133.85 84.0016L145.39 98.7445L137.897 104.539L126.488 89.7366L126.178 89.3344L125.781 89.6506L122.197 92.5027L121.81 92.8113L122.115 93.2018L133.883 108.259L133.989 108.395L134.157 108.436L141.211 110.173Z" fill="#F3F2F2" stroke="#0C0D0D"/>
<path d="M88.3634 141.344C87.916 140.296 87.5184 137.827 90.4708 134.364C92.4069 132.093 94.3818 131.229 96.1262 131.145C97.8827 131.06 99.4788 131.764 100.65 132.762L100.985 133.047C102.205 134.088 103.114 135.453 103.273 137.077C103.432 138.694 102.857 140.668 100.909 142.952C98.8438 145.374 97.1915 146.302 96.0312 146.622C94.8851 146.938 94.1601 146.677 93.8903 146.578L93.5632 146.457L93.337 146.723L88.6614 152.207L88.3371 152.587L88.7175 152.912L88.769 152.955C90.4531 154.391 92.875 155.223 95.7942 154.597C98.699 153.974 102.045 151.921 105.644 147.7L106.39 146.825C110.181 142.379 111.295 138.304 110.885 134.852C110.476 131.414 108.565 128.681 106.46 126.886L105.764 126.294C103.542 124.399 100.463 122.957 96.9879 123.099C93.4994 123.241 89.692 124.975 86.0209 129.281L85.6697 129.693C82.421 133.503 82.2973 136.974 82.4626 138.666C82.2091 138.553 81.9343 138.423 81.6588 138.284C81.06 137.982 80.4978 137.66 80.1741 137.424L79.7997 137.152L79.4993 137.504L75.8994 141.726L75.575 142.107L75.9555 142.431L86.4087 151.343L86.7892 151.668L87.1136 151.287L96.5305 140.242L96.8549 139.861L96.4744 139.537L93.0501 136.617L92.6696 136.293L92.3452 136.674L88.3634 141.344Z" fill="#0C0D0D" stroke="#0C0D0D"/>
<path d="M86.0502 129.556C82.1868 134.088 82.913 138.086 83.0805 138.985C82.2431 138.715 80.5932 137.887 79.8798 137.367L76.2799 141.59L86.7331 150.502L96.1501 139.456L92.7257 136.537L88.2916 141.738C87.7911 141.178 86.2269 138.11 90.0903 133.579C94.1073 128.867 98.4769 129.791 100.974 131.921L101.309 132.206C103.884 134.401 105.306 138.104 101.289 142.815C97.0748 147.759 94.3603 146.823 93.7175 146.586L89.0419 152.07L89.0934 152.114C92.2345 154.792 98.1515 155.257 105.264 146.915L106.01 146.04C113.451 137.312 110.203 130.274 106.135 126.806L105.44 126.213C101.14 122.547 93.6013 120.699 86.4014 129.144L86.0502 129.556Z" fill="#F3F2F2"/>
<path d="M56.5388 169.932C50.8131 178.961 53.6585 184.772 57.5445 187.236L57.6302 187.291L61.4715 181.233C60.8687 180.731 58.2358 178.059 61.8235 172.402C65.1212 167.202 69.5152 167.664 72.144 169.331L72.544 169.585C75.4013 171.397 77.2829 174.874 73.9852 180.074C70.4156 185.703 66.9262 184.572 66.2718 184.277L62.4305 190.335L62.4876 190.371C66.5164 192.926 72.7726 192.727 78.4259 183.812L79.2594 182.497C85.42 172.783 81.0218 166.388 76.593 163.579L75.7358 163.036C71.3927 160.281 63.533 158.903 57.3723 168.618L56.5388 169.932Z" fill="#F3F2F2"/>
<path d="M89.5358 166.523L93.668 160.91L73.3964 145.986L69.2643 151.599L89.5358 166.523Z" fill="#F3F2F2"/>
<path d="M112.844 115.539L119.326 109.296L123.245 119.755L112.844 115.539ZM102.846 111.499L97.4601 116.686L123.33 126.719L130.056 120.241L120.635 94.3653L115.591 99.2237L117.368 103.995L107.571 113.43L102.846 111.499Z" fill="#F3F2F2"/>
<path d="M141.33 109.687L149.558 103.28L146.094 98.8324L153.005 100.534L164.74 91.3953L149.493 71.8177L145.982 74.5519L157.791 89.7155L149.564 96.1228L137.755 80.9592L134.244 83.6934L146.094 98.8324L137.806 105.24L126.092 90.0418L122.509 92.8939L134.277 107.951L141.33 109.687Z" fill="#F3F2F2"/>
</g>
<path d="M309.54 8.53634C298.345 9.80404 297.193 14.6675 297.608 18.3319L297.654 18.7354C298.114 22.8033 300.597 25.4845 309.544 24.8119L313.022 24.5543C316.975 24.2769 317.989 25.1155 318.134 26.393C318.29 27.7714 317.343 28.7299 312.905 29.2324L312.569 29.2705C307.761 29.8149 306.936 28.2399 306.642 27.1495L299.213 27.9908L299.254 28.3606C299.628 31.6553 301.597 35.5183 312.658 34.2658L313.801 34.1364C324.156 32.9638 325.84 29.1978 325.403 25.3316L325.368 25.029C324.942 21.2637 321.947 18.2659 313.717 18.9595L310.377 19.2355C306.227 19.5693 305.141 18.7047 304.974 17.2255C304.814 15.8135 305.307 14.1572 310.518 13.5672L310.754 13.5405C316.066 12.939 316.818 15.3735 317.044 16.4716L324.575 15.6188L324.533 15.249C324.194 12.2569 322.248 7.09733 310.515 8.42594L309.54 8.53634Z" fill="#F3F2F2"/>
<path d="M206.339 38.0608L211.428 48.7533L195.402 43.2664L187.184 47.1779L205.539 53.5424L198.522 69.66L206.526 65.8503L212.708 51.4417L217.157 60.7901L223.451 57.7947L212.632 35.0654L206.339 38.0608Z" fill="#F3F2F2"/>
<path d="M343.738 6.64098L336.804 6.81502L337.291 26.2297L327.55 26.4742L327.694 32.2241L354.11 31.5611L353.966 25.8111L344.225 26.0556L343.738 6.64098Z" fill="#F3F2F2"/>
<path d="M229.968 38.7411L238.417 35.6399L237.789 46.7911L229.968 38.7411ZM222.447 31.0139L215.427 33.5904L235.059 53.1992L243.825 49.9815L245.633 22.5033L239.058 24.9166L238.761 29.9992L225.993 34.6859L222.447 31.0139Z" fill="#F3F2F2"/>
<path d="M379.042 32.9204L380.532 7.792L357.329 6.41648L357 11.9555L373.347 12.9246L373.089 17.2816L357.451 16.3545L357.115 22.0287L372.753 22.9557L372.51 27.0425L356.366 26.0854L356.042 31.5569L379.042 32.9204Z" fill="#F3F2F2"/>
<path d="M281.156 13.2045L274.66 14.8417L278.687 30.8193L267.245 16.7103L261.963 18.0415L258.575 35.8878L254.548 19.9102L247.954 21.5722L254.106 45.9814L262.537 43.8565L266.375 25.3037L278.318 39.8794L287.308 37.6138L281.156 13.2045Z" fill="#F3F2F2"/>
<path d="M403.791 36.1933L407.307 11.2676L385.162 8.14312L384.335 14.006L399.579 16.1567L396.889 35.2195L403.791 36.1933Z" fill="#F3F2F2"/>
<defs>
<filter id="filter0_d_97_4891" x="546.035" y="115.027" width="202.375" height="198.227" filterUnits="userSpaceOnUse" color-interpolation-filters="sRGB">
<feFlood flood-opacity="0" result="BackgroundImageFix"/>
<feColorMatrix in="SourceAlpha" type="matrix" values="0 0 0 0 0 0 0 0 0 0 0 0 0 0 0 0 0 0 127 0" result="hardAlpha"/>
<feOffset/>
<feGaussianBlur stdDeviation="6"/>
<feComposite in2="hardAlpha" operator="out"/>
<feColorMatrix type="matrix" values="0 0 0 0 1 0 0 0 0 1 0 0 0 0 1 0 0 0 1 0"/>
<feBlend mode="normal" in2="BackgroundImageFix" result="effect1_dropShadow_97_4891"/>
<feBlend mode="normal" in="SourceGraphic" in2="effect1_dropShadow_97_4891" result="shape"/>
</filter>
<filter id="filter1_d_97_4891" x="270" y="570" width="214.148" height="214.145" filterUnits="userSpaceOnUse" color-interpolation-filters="sRGB">
<feFlood flood-opacity="0" result="BackgroundImageFix"/>
<feColorMatrix in="SourceAlpha" type="matrix" values="0 0 0 0 0 0 0 0 0 0 0 0 0 0 0 0 0 0 127 0" result="hardAlpha"/>
<feOffset/>
<feGaussianBlur stdDeviation="6"/>
<feComposite in2="hardAlpha" operator="out"/>
<feColorMatrix type="matrix" values="0 0 0 0 1 0 0 0 0 1 0 0 0 0 1 0 0 0 1 0"/>
<feBlend mode="normal" in2="BackgroundImageFix" result="effect1_dropShadow_97_4891"/>
<feBlend mode="normal" in="SourceGraphic" in2="effect1_dropShadow_97_4891" result="shape"/>
</filter>
<filter id="filter2_d_97_4891" x="30" y="51" width="154.535" height="162.371" filterUnits="userSpaceOnUse" color-interpolation-filters="sRGB">
<feFlood flood-opacity="0" result="BackgroundImageFix"/>
<feColorMatrix in="SourceAlpha" type="matrix" values="0 0 0 0 0 0 0 0 0 0 0 0 0 0 0 0 0 0 127 0" result="hardAlpha"/>
<feOffset/>
<feGaussianBlur stdDeviation="6"/>
<feComposite in2="hardAlpha" operator="out"/>
<feColorMatrix type="matrix" values="0 0 0 0 1 0 0 0 0 1 0 0 0 0 1 0 0 0 1 0"/>
<feBlend mode="normal" in2="BackgroundImageFix" result="effect1_dropShadow_97_4891"/>
<feBlend mode="normal" in="SourceGraphic" in2="effect1_dropShadow_97_4891" result="shape"/>
</filter>
</defs>
</svg>
