<svg width="767" height="229" viewBox="0 0 767 229" fill="none" xmlns="http://www.w3.org/2000/svg">
<path d="M59.6834 102.568C106.621 102.568 113.709 84.7826 113.709 69.404V67.7993C113.709 50.8161 105.017 39.4493 67.8407 38.2458L53.7994 37.8446C38.6883 37.3097 35.3452 33.9665 35.3452 29.2861C35.3452 24.3382 38.8221 21.1288 55.8053 21.1288H57.0089C74.7945 21.1288 77.3353 27.1465 78.0039 31.292H111.97V30.2222C111.97 16.3146 105.15 0 59.1485 0H54.0669C11.6756 0 2.04729 13.5064 2.04729 29.821V31.0245C2.04729 46.4031 12.0768 59.7757 46.8457 60.7118L60.4858 61.113C76.8004 61.5142 80.0098 65.1248 80.0098 70.3401C80.0098 75.288 77.469 80.7708 58.0787 80.7708H57.2763C37.3511 80.7708 35.7464 71.9448 35.3452 67.7993H0.84375V69.0029C0.84375 81.5732 6.1928 102.568 56.0728 102.568H59.6834Z" fill="white"/>
<path d="M250.375 0V99.4925H346.525V76.3578H282.068V60.9793H343.716V37.3097H282.068V22.8672H345.722V0H250.375Z" fill="white"/>
<path d="M440.782 99.4925H472.609V25.1406H511.791V0H401.6V25.1406H440.782V99.4925Z" fill="white"/>
<path d="M529.712 99.4925H561.673V60.7118H614.495V99.4925H646.455V0H614.495V35.9724H561.673V0H529.712V99.4925Z" fill="white"/>
<path d="M669.968 0V99.4925H766.118V76.3578H701.661V60.9793H763.309V37.3097H701.661V22.8672H765.315V0H669.968Z" fill="white"/>
<g clip-path="url(#clip0_612_24938)">
<path d="M207.318 0H131.273V81.2355L149.059 98.8887H207.318V75.4554H154.039V62.4109L208.82 61.9423H230.084V22.8867L207.318 0ZM207.318 42.18H154.039V22.2617H207.318V42.18Z" fill="#BDD750"/>
</g>
<g clip-path="url(#clip1_612_24938)">
<path d="M488.19 126H412V207.391L429.82 225.078H488.19V201.6H434.81V188.531L489.695 188.061H511V148.931L488.19 126ZM488.19 168.261H434.81V148.304H488.19V168.261Z" fill="#BDD750"/>
</g>
<path d="M57.6527 227.389H61.5319C112.496 227.389 118.783 195.025 118.783 175.15V126H86.9473V174.747C86.9473 186.027 83.7369 200.934 59.9268 200.934H59.2579C35.314 200.934 31.8361 186.027 31.8361 174.747V126H0V175.15C0 194.89 4.68181 227.389 57.6527 227.389Z" fill="white"/>
<path d="M230.302 225.911H261.201V126H230.168V185.893L174.254 126H141.615V225.911H172.783V164.944L230.302 225.911Z" fill="white"/>
<path d="M339.362 229C386.313 229 393.403 211.14 393.403 195.696V194.085C393.403 177.03 384.708 165.615 347.521 164.407L333.476 164.004C318.361 163.467 315.017 160.11 315.017 155.409C315.017 150.441 318.494 147.218 335.483 147.218H336.686C354.477 147.218 357.019 153.261 357.688 157.424H391.664V156.349C391.664 142.383 384.842 126 338.827 126H333.744C291.34 126 281.709 139.563 281.709 155.947V157.155C281.709 172.598 291.741 186.027 326.52 186.967L340.164 187.37C356.484 187.773 359.694 191.399 359.694 196.636C359.694 201.605 357.152 207.111 337.757 207.111H336.954C317.023 207.111 315.418 198.248 315.017 194.085H280.505V195.293C280.505 207.917 285.856 229 335.75 229H339.362Z" fill="white"/>
<path d="M530.109 126V225.911H626.286V202.679H561.811V187.236H623.477V163.467H561.811V148.963H625.483V126H530.109Z" fill="white"/>
<path d="M736.1 225.911H767V126H735.967V185.893L680.053 126H647.414V225.911H678.581V164.944L736.1 225.911Z" fill="white"/>
<defs>
<clipPath id="clip0_612_24938">
<rect width="98.8106" height="98.8106" fill="white" transform="translate(131.273)"/>
</clipPath>
<clipPath id="clip1_612_24938">
<rect width="99" height="99" fill="white" transform="translate(412 126)"/>
</clipPath>
</defs>
</svg>
