<svg width="350" height="46" viewBox="0 0 350 46" fill="none" xmlns="http://www.w3.org/2000/svg">
<g clip-path="url(#clip0_1310_19217)">
<path d="M93.2383 45.9998V11.7363H119.392L127.431 19.689V45.9998H119.409V19.5132H101.083V45.9998H93.2383Z" fill="#F3F2F2"/>
<path d="M52.426 11.7363H34.0237V19.5048L26.2468 11.8033H0V45.9998H7.85292V19.5132H26.2553V45.9998H34.1082L34.0237 19.5048L52.5106 19.5551L52.3415 45.9998L60.4227 45.9329L60.3635 19.5969L52.426 11.7363Z" fill="#F3F2F2"/>
<path d="M67.0664 19.5138H74.9193V46.0004H82.7638V19.6058L75.0461 11.9629H67.0664V19.5138Z" fill="#F3F2F2"/>
<path d="M82.7631 0H74.9102V7.84386H82.7631V0Z" fill="#F3F2F2"/>
<path d="M163.001 11.8027H136.746V39.9133L142.892 45.9909H163.001V37.921H144.599V33.3838L163.517 33.2247H170.854V19.6466L163.001 11.8027ZM163.001 26.3938H144.599V19.5043H163.001V26.3938Z" fill="#F3F2F2"/>
<path d="M179.258 45.7582V24.8301H181.735L191.227 40.6601H189.9L199.266 24.8301H201.743V45.7582H198.844V29.3254H199.537L191.194 43.2133H189.807L181.405 29.3254H182.157V45.7582H179.258Z" fill="#F3F2F2"/>
<path d="M203.211 45.7582L212.788 24.8301H215.781L225.392 45.7582H222.213L213.667 26.5043H214.876L206.322 45.7582H203.211ZM207.285 40.5178L208.131 38.1236H220.033L220.878 40.5178H207.285Z" fill="#F3F2F2"/>
<path d="M226.84 45.7564V24.8283H235.09C236.712 24.7761 238.328 25.0613 239.832 25.6655C241.069 26.1884 242.122 27.0623 242.858 28.1768C243.584 29.3548 243.951 30.7151 243.915 32.0946C243.953 33.469 243.586 34.8245 242.858 35.9955C242.124 37.1122 241.071 37.9866 239.832 38.5069C238.328 39.1111 236.712 39.3963 235.09 39.344H228.505L229.866 37.9628V45.7146L226.84 45.7564ZM229.866 38.306L228.505 36.8411H234.997C236.565 36.9505 238.121 36.5088 239.393 35.5937C239.866 35.1438 240.243 34.6037 240.5 34.006C240.757 33.4083 240.889 32.7653 240.889 32.1155C240.889 31.4658 240.757 30.8227 240.5 30.225C240.243 29.6273 239.866 29.0872 239.393 28.6372C238.115 27.7375 236.561 27.3055 234.997 27.415H228.505L229.866 25.9166V38.306ZM240.982 45.7564L235.606 38.1553H238.835L244.279 45.7564H240.982Z" fill="#F3F2F2"/>
<path d="M247.117 45.7582V24.8301H250.135V45.7582H247.117ZM249.771 40.7354L249.619 37.0856L261.614 24.8468H265.063L255.765 34.5407L254.074 36.3908L249.771 40.7354ZM262.096 45.7582L253.432 35.7629L255.452 33.5445L265.596 45.7582H262.096Z" fill="#F3F2F2"/>
<path d="M270.169 43.1548H282.493V45.7582H267.168V24.8301H282.096V27.4335H270.194L270.169 43.1548ZM269.898 33.8459H280.777V36.3573H269.898V33.8459Z" fill="#F3F2F2"/>
<path d="M289.897 45.7574V27.4159H282.645V24.8125H300.134V27.4159H292.881V45.7574H289.897Z" fill="#F3F2F2"/>
<path d="M301.742 45.7582V24.8301H304.768V45.7582H301.742Z" fill="#F3F2F2"/>
<path d="M309.434 45.7574V24.8293H311.91L325.883 42.0322H324.59V24.8125H327.608V45.7406H325.131L311.124 28.5545H312.426V45.7574H309.434Z" fill="#F3F2F2"/>
<path d="M341.811 45.9909C340.273 46.0089 338.744 45.7421 337.305 45.204C335.979 44.7002 334.769 43.9372 333.746 42.9605C332.736 41.9971 331.934 40.8409 331.388 39.5618C330.261 36.8191 330.261 33.749 331.388 31.0064C331.937 29.7268 332.742 28.5707 333.755 27.6076C334.787 26.6313 336.006 25.8686 337.339 25.3642C340.283 24.2927 343.516 24.2927 346.46 25.3642C347.823 25.8832 349.041 26.7186 350.01 27.8002L348.134 29.6586C347.331 28.8588 346.369 28.2319 345.31 27.8169C343.156 27.0242 340.786 27.0242 338.632 27.8169C337.631 28.1881 336.716 28.7578 335.944 29.4912C335.183 30.2135 334.584 31.0862 334.186 32.0528C333.364 34.1098 333.364 36.3998 334.186 38.4567C334.588 39.4236 335.187 40.2984 335.944 41.0267C336.713 41.7555 337.621 42.3247 338.615 42.701C339.694 43.1105 340.842 43.3123 341.997 43.2953C343.1 43.3015 344.197 43.1261 345.243 42.7763C346.318 42.4025 347.301 41.8061 348.125 41.0267L349.816 43.2953C348.737 44.1913 347.49 44.8683 346.147 45.2877C344.748 45.748 343.285 45.9853 341.811 45.9909ZM346.883 42.9438V35.1669H349.782V43.3288L346.883 42.9438Z" fill="#F3F2F2"/>
</g>
<defs>
<clipPath id="clip0_1310_19217">
<rect width="350" height="46" fill="white"/>
</clipPath>
</defs>
</svg>
