<svg width="165" height="14" viewBox="0 0 165 14" fill="none" xmlns="http://www.w3.org/2000/svg">
<path d="M8.52138 13.176H9.01737C16.0574 13.176 16.6014 8.904 16.6014 6.568V1.096H11.7374V6.568C11.7374 7.912 11.2414 9.288 8.79338 9.288H8.72938C6.20138 9.288 5.70538 7.912 5.70538 6.568V1.096H0.841375V6.568C0.841375 8.904 1.20938 13.176 8.52138 13.176ZM30.2921 13H34.9481V1.096H30.1801V7.192L24.0681 1.096H19.1081V13H23.8761V6.6L30.2921 13ZM45.4664 13.208C52.3944 13.208 53.2584 9.88 53.2584 8.2V8.008H48.1864C48.1544 8.216 47.9624 9.624 45.1304 9.624C42.4904 9.624 42.0904 8.008 42.0904 7.08V6.904C42.0904 5.992 42.4424 4.408 45.1144 4.408C47.9784 4.408 48.1544 5.832 48.1864 6.072H53.2584V5.896C53.2584 4.008 52.4104 0.888 45.4664 0.888H44.7464C38.1544 0.888 36.9864 4.504 36.9864 6.776V7.256C36.9864 9.528 38.1704 13.208 44.7464 13.208H45.4664ZM62.688 0.888C55.92 0.888 54.768 4.392 54.752 6.776V7.256C54.752 9.608 55.92 13.208 62.688 13.208H63.424C70.24 13.208 71.376 9.608 71.376 7.256V6.776C71.376 4.392 70.224 0.888 63.424 0.888H62.688ZM66.256 6.904V7.064C66.256 8.04 65.872 9.624 63.072 9.624C60.272 9.624 59.856 8.04 59.856 7.064V6.904C59.856 5.96 60.208 4.408 63.056 4.408C65.872 4.408 66.256 5.96 66.256 6.904ZM83.6045 13L89.2845 1.096H84.2285L80.7885 8.488L77.3325 1.096H71.6685L77.6845 13H83.6045ZM90.4206 1.096V13H102.981V9.928H95.3166V8.536H102.629V5.416H95.3166V4.136H102.869V1.096H90.4206ZM110.129 4.376H114.433C115.441 4.376 115.633 4.792 115.633 5.208V5.224C115.633 5.672 115.441 6.12 114.433 6.12H110.129V4.376ZM117.937 7.272C119.217 7.032 120.689 6.28 120.689 4.472V4.392C120.689 2.696 120.017 1.096 115.745 1.096H105.249V13H110.129V9.464H113.617C115.329 9.464 115.857 9.768 115.857 11.304V12.312C115.857 12.728 115.905 12.936 115.953 13H120.977V12.92C120.865 12.776 120.801 12.616 120.801 12.152V9.96C120.801 8.072 119.425 7.432 117.937 7.272ZM127.894 1.096H123.014V13H127.894V1.096ZM141.636 13H146.292V1.096H141.524V7.192L135.412 1.096H130.452V13H135.22V6.6L141.636 13ZM155.77 13.176C158.954 13.176 160.474 12.024 160.938 11.544C161.194 11.912 161.514 12.6 161.61 13H164.89V6.248H156.202V8.536H159.722C159.658 8.92 159.018 9.736 156.586 9.736C154.026 9.736 153.386 8.312 153.386 7.08V6.936C153.386 5.656 153.994 4.36 156.65 4.36C159.066 4.36 159.482 5.144 159.61 5.448H164.746V5.352C164.746 3.768 163.706 0.888 156.922 0.888H156.362C149.866 0.888 148.33 4.184 148.33 6.856V7.112C148.33 9.864 149.898 13.176 155.482 13.176H155.77Z" fill="white"/>
</svg>
