<svg id="Layer_1" data-name="Layer 1" xmlns="http://www.w3.org/2000/svg" viewBox="0 0 688.4 692.21"><defs><style>.cls-1{fill:#fff;opacity:0;}.cls-2,.cls-3{fill:#d25b19;stroke:#d25b19;stroke-width:4px;}.cls-2,.cls-4,.cls-6{stroke-miterlimit:1.15;}.cls-4{fill:#a6ce38;}.cls-4,.cls-5{stroke:#a6ce38;stroke-width:3px;}.cls-10,.cls-5,.cls-7,.cls-9{fill:#f3f2f2;}.cls-6{fill:#79def4;stroke-width:2px;}.cls-6,.cls-7{stroke:#79def4;}.cls-8{fill:#0c0d0d;}.cls-8,.cls-9{stroke:#0c0d0d;}</style></defs><rect class="cls-1" y="1.8" width="688.4" height="688.4"/><path class="cls-2" d="M608.7,138.7l-.5,2.8,4.1,5.9,2.6.6a2.76,2.76,0,0,1,1.5-.1c.8.2,2.2.8,3.9,3.3a6.57,6.57,0,0,1,1.4,5,4.82,4.82,0,0,1-2.1,2.9l-.4.3a4.43,4.43,0,0,1-3.4.9c-1.1-.2-2.5-.9-4.1-3.2s-1.8-4-1.7-4.8c.1-.4.2-.7.3-1,.1-.1.1-.2.2-.2a.1.1,0,0,1,.1-.1l.3-2.6-4.1-5.9L604,142h-.1a10.75,10.75,0,0,0-4.7,7.8c-.4,3.5.8,7.6,4,12.2l.9,1.3c3.5,5.1,7.5,7.5,11.4,8a14.18,14.18,0,0,0,9.8-2.5l.8-.6a14.69,14.69,0,0,0,5.9-8.3c1-3.9.2-8.5-3.3-13.6l-.9-1.3c-3.2-4.7-6.7-7.2-10.2-8a10.55,10.55,0,0,0-8.9,1.7Z" transform="translate(0 0)"/><path class="cls-2" d="M615.5,176.1l-.7,2.7,3.6,6,2.7.7,21.7-12.8.7-2.7-3.6-6-2.7-.7Z" transform="translate(0 0)"/><path class="cls-2" d="M663.4,213l.5-2.1-2.7-7-3.3-.7-19.3,19.9-.4,2.1,3.3,8.7,1.8,1.3,27.5,1.4,2-2.7-2.5-6.5-1.8-1.3-3.8-.2-3.9-10.3ZM651,225.3l2.5-2.5,1,2.7Z" transform="translate(0 0)"/><path class="cls-3" d="M647.4,246.7l-.6.8.2.9,2.7,10.1.5,1.9,1.8-.5-.8,1.1-.6.8.2.9,3.8,14.4.5,1.9,1.9-.5,24-6.4,1.9-.5-.5-1.9-1.1-4.3-.5-1.9-1.9.5-16.6,4.4-1.7-6.2,16.6-4.4,1.9-.5-.5-1.9-1.1-4.3-.5-1.9-1.9.5-16.6,4.5-1.6-6.2,16.6-4.3,2-.5-.5-2-1.2-4.4-.5-1.9-1.9.5-18.5,4.9-.7.2-.4.6Z" transform="translate(0 0)"/><path class="cls-2" d="M653.7,188.1a14.27,14.27,0,0,0-5.5-6.2l.7-2.6-2.5-5-2.7-.9-12.3,6.1-.7,2.1L629,181h-.1a9.64,9.64,0,0,0-5.1,6.9c-.6,3.4.1,7.6,2.6,12.7l.5,1c2.8,5.5,6.4,8.5,10.2,9.6a14,14,0,0,0,10.2-1.1l.8-.4a14.34,14.34,0,0,0,7.1-7.6c1.4-3.7,1.2-8.4-1.5-13.7Zm-9.9,6.2.9-2.6c.1.1.1.3.2.4a6.7,6.7,0,0,1,.7,5.3,5.1,5.1,0,0,1-2.5,2.7l-.4.2a4.39,4.39,0,0,1-3.5.4c-1.1-.3-2.4-1.3-3.6-3.7-1.3-2.7-1.4-4.2-1.3-5.1a1.79,1.79,0,0,1,.5-1.1h0v-.1l2.3,4.7,2.7.9Z" transform="translate(0 0)"/><path class="cls-4" d="M609,139.1l-.4,2.1,4.1,5.9,1.9.5a2.64,2.64,0,0,1,1.8-.2c1,.2,2.5.9,4.2,3.5,1.6,2.3,1.8,4.1,1.4,5.4a5.09,5.09,0,0,1-2.3,3.2l-.4.3a5.24,5.24,0,0,1-3.7,1c-1.3-.2-2.8-1.1-4.4-3.4-1.7-2.5-1.9-4.2-1.8-5.2a2.55,2.55,0,0,1,.7-1.6l.2-2-4.1-5.9-2.1-.4H604a10.44,10.44,0,0,0-4.5,7.5c-.4,3.4.8,7.3,3.9,11.9l.9,1.3c3.5,5,7.3,7.3,11.1,7.8a13.11,13.11,0,0,0,9.4-2.5l.8-.6a14,14,0,0,0,5.7-8c.9-3.7.2-8.2-3.2-13.2l-.9-1.3c-3.2-4.6-6.6-7-9.9-7.8a10.07,10.07,0,0,0-8.3,1.7Z" transform="translate(0 0)"/><path class="cls-4" d="M615.8,176.5l-.5,2.1,3.6,6,2.1.5,21.7-12.8.5-2.1-3.6-6-2.1-.5Z" transform="translate(0 0)"/><path class="cls-4" d="M663,212.6l.3-1.6-2.7-7-2.5-.5-19.3,19.9-.3,1.6,3.3,8.7,1.3,1,27.5,1.4,1.5-2-2.5-6.5-1.3-1-4.1-.2L660,215.5Zm-13.1,13.2,3.9-3.9,1.6,4.1Z" transform="translate(0 0)"/><path class="cls-5" d="M647.8,247l-.4.6.2.7,2.7,10.1.4,1.4,1.5-.4,1.3-.3-1.7,2.2-.4.6.2.7,3.8,14.4.4,1.4,1.4-.4,24-6.4,1.4-.4-.4-1.4-1.1-4.3-.4-1.4-1.4.4-17.1,4.6-1.9-7.2,17.1-4.6,1.4-.4-.4-1.4-1.1-4.3-.4-1.5-1.5.4-17.1,4.6-1.9-7.2,17-4.5,1.5-.4-.4-1.5-1.2-4.4-.4-1.4-1.4.4L653,240.6l-.5.1-.3.4Z" transform="translate(0 0)"/><path class="cls-4" d="M644.2,191.8l-1.7-3.4a10,10,0,0,1,2.8,3.5c1.2,2.5,1.2,4.3.7,5.7a5.5,5.5,0,0,1-2.8,3l-.4.2a5.38,5.38,0,0,1-3.9.5c-1.2-.4-2.6-1.4-3.9-4s-1.5-4.4-1.4-5.3a2.21,2.21,0,0,1,.6-1.4h0l.2-1.3,3,6,2,.7,4-2Zm9.1-3.4a13.53,13.53,0,0,0-6-6.3,3.81,3.81,0,0,0,.6-.5l.6-2-2.5-5-2-.7L631.7,180l-.7,2v.1l-1.7-.6h-.1a9,9,0,0,0-4.8,6.5c-.6,3.2,0,7.3,2.6,12.4l.5,1c2.7,5.4,6.2,8.3,9.9,9.3a13.48,13.48,0,0,0,9.8-1l.8-.4a14,14,0,0,0,6.9-7.4c1.3-3.6,1.2-8.1-1.4-13.3Z" transform="translate(0 0)"/><path class="cls-6" d="M609.3,139.5l-.3,1.4,4.1,5.9,1.3.3a3.09,3.09,0,0,1,2.2-.2c1.1.2,2.7,1.1,4.5,3.7,1.6,2.3,1.9,4.3,1.5,5.8a6,6,0,0,1-2.5,3.5l-.4.3a5.6,5.6,0,0,1-4.1,1.1c-1.4-.2-3.1-1.2-4.7-3.6-1.8-2.6-2-4.4-1.9-5.5a3.18,3.18,0,0,1,.9-1.9l.1-1.3-4.1-5.9-1.4-.3h-.1a9.52,9.52,0,0,0-4.2,7.1c-.3,3.2.7,7.1,3.8,11.5l.9,1.3c3.4,4.9,7.2,7.1,10.8,7.6a12.9,12.9,0,0,0,9.1-2.4l.8-.6a13.68,13.68,0,0,0,5.5-7.7c.9-3.6.2-7.9-3.2-12.8l-.9-1.3c-3.1-4.5-6.5-6.8-9.6-7.6a10.16,10.16,0,0,0-8.1,1.6Z" transform="translate(0 0)"/><path class="cls-6" d="M616,176.9l-.4,1.4,3.6,6,1.4.4,21.7-12.8.3-1.4-3.6-6-1.4-.3Z" transform="translate(0 0)"/><path class="cls-6" d="M662.7,212.3l.2-1.1-2.7-7-1.7-.3-19.3,19.9-.2,1.1,3.3,8.7.9.6,27.5,1.4,1-1.4-2.5-6.5-.9-.6-4.4-.2-4.4-11.5Zm-14,13.9,5.2-5.2,2.1,5.5Z" transform="translate(0 0)"/><path class="cls-7" d="M648.6,247.6l-.1.2.1.2,2.7,10.1.1.5.5-.1,4.1-1.1-3.4,4.5-.1.2.1.2,3.8,14.4.1.5.5-.1,24-6.4.5-.1-.1-.5-1.1-4.3-.1-.5-.5.1-18.1,4.8-2.4-9.1,18.1-4.8.5-.1-.1-.5-1.1-4.3-.1-.5-.5.1-18.1,4.9-2.4-9.2,18.1-4.7.5-.1-.1-.5-1.2-4.4-.1-.5-.5.1-18.5,4.9h-.2l-.1.1Z" transform="translate(0 0)"/><path class="cls-6" d="M643.8,192l-2.3-4.6c.2.1.4.1.6.2a8.47,8.47,0,0,1,3.7,4c1.3,2.6,1.3,4.6.7,6.1a6.47,6.47,0,0,1-3,3.3l-.4.2a5.66,5.66,0,0,1-4.2.5c-1.4-.4-2.9-1.6-4.2-4.2-1.4-2.8-1.6-4.6-1.4-5.6a3.43,3.43,0,0,1,.7-1.7h0l.2-1.1-3.2-6.4-1.3-.4h-.1a8.6,8.6,0,0,0-4.5,6.2c-.6,3.1,0,7.1,2.5,12.1l.5,1c2.7,5.3,6.1,8.1,9.6,9.1a12.86,12.86,0,0,0,9.4-1l.8-.4a13.19,13.19,0,0,0,6.6-7.1c1.3-3.4,1.2-7.8-1.4-12.9l-.2-.5a12.48,12.48,0,0,0-6.5-6.4h0c.5-.4,1-.8,1.3-1l.4-1.3-2.5-5-1.3-.4L632,180.8l-.4,1.3,6.5,13,1.3.4,4-2Z" transform="translate(0 0)"/><path class="cls-8" d="M609.6,139.9l-.4.3.3.4,4.1,5.9.2.4.4-.2a4.75,4.75,0,0,1,2.5-.3c1.3.3,3,1.2,4.9,3.9,1.7,2.4,2,4.5,1.6,6.2a6.38,6.38,0,0,1-2.7,3.8l-.4.3a6.56,6.56,0,0,1-4.5,1.2,7.66,7.66,0,0,1-5-3.8c-1.8-2.7-2.1-4.6-2-5.9a4,4,0,0,1,1-2.2l.3-.3-.2-.4-4.1-5.9-.3-.4-.4.3h-.1a9,9,0,0,0-4,6.7c-.3,3,.7,6.8,3.7,11.2l.9,1.3c3.3,4.8,7,6.9,10.4,7.3a12.44,12.44,0,0,0,8.7-2.3l.8-.6a13.12,13.12,0,0,0,5.3-7.4c.8-3.4.2-7.6-3.1-12.4l-.9-1.3c-3.1-4.5-6.3-6.7-9.3-7.4a10.11,10.11,0,0,0-7.7,1.6Z" transform="translate(0 0)"/><path class="cls-8" d="M616.3,177.4l-.4.3.3.4,3.6,6,.3.4.4-.3,21.7-12.8.4-.3-.3-.4-3.6-6-.3-.4-.4.3Z" transform="translate(0 0)"/><path class="cls-8" d="M662.3,211.9l.2-.2-.1-.3-2.7-7-.3-.7-.5.6-19.3,19.9-.2.2.1.3,3.3,8.7.1.3h.3l27.5,1.4h.8l-.3-.7-2.5-6.5-.1-.3h-.3l-4.8-.2-4.6-12.1Zm-14.7,14.8,6.6-6.6,2.7,7Z" transform="translate(0 0)"/><path class="cls-9" d="M648.6,247.6l-.1.2.1.2,2.7,10.1.1.5.5-.1,4.1-1.1-3.4,4.5-.1.2.1.2,3.8,14.4.1.5.5-.1,24-6.4.5-.1-.1-.5-1.1-4.3-.1-.5-.5.1-18.1,4.8-2.4-9.1,18.1-4.8.5-.1-.1-.5-1.1-4.3-.1-.5-.5.1-18.1,4.9-2.4-9.2,18.1-4.7.5-.1-.1-.5-1.2-4.4-.1-.5-.5.1-18.5,4.9h-.2l-.1.1Z" transform="translate(0 0)"/><path class="cls-8" d="M640.6,186.7c1.1,0,3.6.6,5.6,4.7,1.3,2.7,1.4,4.8.8,6.5a6.32,6.32,0,0,1-3.3,3.5l-.4.2a6.1,6.1,0,0,1-4.6.5c-1.6-.5-3.1-1.8-4.5-4.5a11.23,11.23,0,0,1-1.5-5.9,4.08,4.08,0,0,1,.9-2l.2-.3-.2-.3-3.2-6.4-.2-.4-.4.2h-.1a8.09,8.09,0,0,0-4.3,5.8c-.6,2.9,0,6.8,2.5,11.8l.5,1c2.6,5.2,5.9,7.8,9.3,8.8a12.19,12.19,0,0,0,9.1-1l.8-.4a13.33,13.33,0,0,0,6.4-6.8c1.2-3.3,1.1-7.4-1.4-12.5l-.2-.5a12.2,12.2,0,0,0-7-6.5,4.35,4.35,0,0,1,.7-.6,9.38,9.38,0,0,1,1.4-1l.4-.2-.2-.4-2.5-5-.2-.4-.4.2-12.3,6.1-.4.2.2.4,6.5,13,.2.4.4-.2,4-2,.4-.2-.2-.4Z" transform="translate(0 0)"/><path class="cls-10" d="M652.3,189.2c-2.7-5.3-6.6-6.2-7.5-6.4a14.35,14.35,0,0,1,2.7-2.3l-2.5-5-12.3,6.1,6.5,13,4-2-3.1-6.1c.7-.2,4.1-.5,6.8,4.8,2.8,5.5.2,9.2-2.7,10.7l-.4.2c-3,1.5-7,1.4-9.8-4.2-2.9-5.8-1-7.9-.5-8.4l-3.2-6.4h-.1c-3.7,1.8-6.4,7.1-1.5,16.9l.5,1c5.1,10.3,12.9,10,17.7,7.6l.8-.4c5.1-2.5,9.7-8.7,4.7-18.7Z" transform="translate(0 0)"/><path class="cls-10" d="M626.7,146.3c-6.1-8.8-12.5-8.4-16.3-5.8l-.1.1,4.1,5.9c.7-.4,4.2-1.7,8,3.8,3.5,5.1,1.4,8.9-1.2,10.7l-.4.3c-2.8,1.9-6.7,2.3-10.2-2.8-3.8-5.5-1.4-8.3-.9-8.7l-4.1-5.9h-.1c-3.9,2.7-6.2,8.5-.2,17.2l.9,1.3c6.5,9.5,14.1,7.9,18.5,4.9l.8-.6c4.2-2.9,8.6-9.6,2-19.1Z" transform="translate(0 0)"/><path class="cls-10" d="M616.9,178l3.6,6,21.7-12.8-3.6-6Z" transform="translate(0 0)"/><path class="cls-10" d="M654.8,219.4l3.2,8.4-11.2-.5Zm7.6-7.7-2.7-7-19.3,19.9,3.3,8.7,27.5,1.4-2.5-6.5-5.1-.2-4.9-12.7Z" transform="translate(0 0)"/><path class="cls-10" d="M649,247.9l2.7,10.1,5.4-1.5-4.3,5.7,3.8,14.4,24-6.4-1.1-4.3-18.6,4.9-2.7-10.1,18.6-4.9-1.1-4.3-18.6,5-2.7-10.1,18.6-4.8-1.2-4.4-18.5,4.9Z" transform="translate(0 0)"/><path class="cls-10" d="M661.7,315.7l25-3-2.8-23.1-5.5.7,2,16.3-4.3.5-1.9-15.6-5.6.7,1.9,15.6-4.1.5-1.9-16.1-5.4.7Z" transform="translate(0 0)"/><path class="cls-10" d="M687.9,336.6l-11.8.4,11.4-12.5-.3-9.1L674,329.7l-12-12.9.3,8.9L673,337.1l-10.3.3.2,7,25.2-.8Z" transform="translate(0 0)"/><path class="cls-10" d="M677.9,358l-.5,9-10-5Zm10.1-3.8.4-7.5-25.8,10.2-.6,9.3,24.5,12.6.4-7-4.5-2.3.8-13.6Z" transform="translate(0 0)"/><path class="cls-10" d="M680.8,415.1l1.1-6.6-16.3-2.7,17.5-4.9.9-5.4-15-10.2,16.3,2.7,1.1-6.7-24.8-4.1-1.4,8.6,15.5,10.9-18.1,5.1-1.5,9.1Z" transform="translate(0 0)"/><path class="cls-10" d="M673.8,443c3.3-10.8-.7-13.8-4.2-14.9l-.4-.1c-3.9-1.2-7.4,0-10.3,8.5l-1.2,3.3c-1.3,3.7-2.5,4.3-3.7,4s-1.8-1.7-.5-5.9l.1-.3c1.4-4.6,3.2-4.8,4.3-4.6l2.2-7.1-.4-.1c-3.2-1-7.5-.7-10.8,9.9l-.3,1.1c-3.1,10-.3,13,3.4,14.2l.3.1c3.6,1.1,7.6-.4,10.2-8.3l1.1-3.2c1.4-3.9,2.6-4.6,4-4.2s2.7,1.5,1.1,6.5l-.1.2c-1.6,5.1-4.1,4.8-5.2,4.6l-2.2,7.2.4.1c2.9.9,8.4,1.2,11.9-10.1Z" transform="translate(0 0)"/><path class="cls-10" d="M661.9,475.1l2.6-6.4-18-7.3,3.7-9-5.3-2.2L635,474.7l5.3,2.2,3.7-9Z" transform="translate(0 0)"/><path class="cls-10" d="M623.7,497l22.4,11.4,10.5-20.7-4.9-2.5-7.4,14.6-3.9-2,7.1-14-5.1-2.6-7.1,14-3.6-1.9,7.3-14.4-4.9-2.5Z" transform="translate(0 0)"/><path class="cls-10" d="M610.8,518.4l21.4,13.2,11.7-19.1-5-3.1-8.1,13.1-16.4-10.1Z" transform="translate(0 0)"/><path class="cls-2" d="M447.8,666l-2.4-1.5-7,1.6-1.6,2.1a2.87,2.87,0,0,1-.4,1.4c-.5.7-1.6,1.8-4.5,2.4-2.6.6-4.2.1-5.1-.6a4.89,4.89,0,0,1-1.9-3l-.1-.5a4.62,4.62,0,0,1,.4-3.5c.6-.9,1.8-2,4.5-2.6,2.9-.6,4.4-.2,5.1.2a2.85,2.85,0,0,1,.8.7c.1.1.1.2.2.3a.1.1,0,0,0,.1.1l2.3,1.2,7-1.6,1.5-2.4v-.1a11,11,0,0,0-5.5-7.3c-3.1-1.7-7.4-2.1-12.8-.9l-1.5.3c-6,1.4-9.7,4.2-11.7,7.6a13.91,13.91,0,0,0-1.3,10l.2,1a14,14,0,0,0,5.5,8.5c3.2,2.3,7.8,3.4,13.9,2l1.5-.3c5.5-1.2,9.2-3.6,11.2-6.5a10.62,10.62,0,0,0,1.6-8.6Z" transform="translate(0 0)"/><path class="cls-2" d="M410.6,658.3l-2.3-1.7-6.9,1-1.7,2.3,3.8,24.9,2.3,1.7,6.9-1,1.7-2.3Z" transform="translate(0 0)"/><path class="cls-2" d="M358.5,688.9l1.8,1.2,7.5.1,1.9-2.8L358.4,662l-1.8-1.2-9.3-.2-1.9,1.2-11.6,25,1.8,2.8,7,.1,1.9-1.2,1.6-3.4,11,.2Zm-6.9-16.1,1.4,3.3-2.9-.1Z" transform="translate(0 0)"/><path class="cls-3" d="M333.2,661.4l-.5-.8-1-.1-10.3-1.3-2-.2-.2,1.9-.7-1.2-.5-.8-1-.1L302.2,657l-2-.2-.2,2-3.1,24.6-.2,2,2,.2,4.4.5,2,.2.2-2,2.1-17.1,6.4.8-2.1,17.1-.2,2,2,.2,4.4.5,2,.2.2-2,2.1-17.1,6.4.8-2.2,17-.3,2,2,.2,4.5.5,2,.2.2-2,2.3-19,.1-.7-.4-.6Z" transform="translate(0 0)"/><path class="cls-2" d="M385.1,689.2a14.68,14.68,0,0,0,7.8-2.8l2.1,1.7,5.5-.4,1.8-2.2-1.1-13.7-1.7-1.4,1.1-1.3V669a9.49,9.49,0,0,0-4.5-7.3c-2.9-1.9-7-2.8-12.8-2.3l-1.1.1c-6.1.5-10.2,2.7-12.7,5.9a13.91,13.91,0,0,0-2.8,9.8l.1.9a14.23,14.23,0,0,0,4.4,9.4c2.9,2.7,7.3,4.2,13.3,3.8Zm-1.9-11.5,2.1,1.8h-.5c-2.6.2-4.2-.5-5.1-1.3a5,5,0,0,1-1.6-3.4v-.4a4.87,4.87,0,0,1,.9-3.4c.7-.9,2.1-1.7,4.8-1.9,3-.2,4.5.3,5.2.7a2.38,2.38,0,0,1,.9.9h0l.1.1-5.2.4-1.8,2.2Z" transform="translate(0 0)"/><path class="cls-4" d="M447.3,666.1l-1.8-1.1-7,1.6-1.2,1.6a3.6,3.6,0,0,1-.5,1.8c-.5.8-1.8,2-4.8,2.6-2.7.6-4.4.1-5.5-.7a5,5,0,0,1-2.1-3.3l-.1-.5a4.94,4.94,0,0,1,.5-3.8c.7-1.1,2-2.2,4.8-2.8,3-.7,4.6-.2,5.5.3a2.38,2.38,0,0,1,1.2,1.3l1.7.9,7-1.6,1.1-1.8v-.1a10.11,10.11,0,0,0-5.2-6.9c-3-1.6-7.1-2-12.5-.8l-1.5.3c-5.9,1.3-9.5,4.1-11.4,7.4a14.19,14.19,0,0,0-1.3,9.7l.2,1a13.5,13.5,0,0,0,5.3,8.2c3.1,2.2,7.5,3.3,13.5,1.9l1.5-.3c5.5-1.2,9-3.5,10.9-6.3a10.57,10.57,0,0,0,1.7-8.6Z" transform="translate(0 0)"/><path class="cls-4" d="M410.1,658.4l-1.7-1.3-6.9,1-1.3,1.7,3.8,24.9,1.7,1.3,6.9-1,1.3-1.7Z" transform="translate(0 0)"/><path class="cls-4" d="M358.9,688.7l1.4.9,7.5.1,1.4-2.1L358,662.2l-1.3-.9-9.3-.2-1.4.9-11.6,25,1.3,2.1,7,.1,1.4-.9,1.7-3.7,11.6.2Zm-7.2-17.1,2.1,5.1-4.4-.1Z" transform="translate(0 0)"/><path class="cls-5" d="M332.8,661.7l-.4-.6-.7-.1-10.3-1.3-1.5-.2-.2,1.5-.2,1.3-1.4-2.4-.4-.6-.7-.1-14.8-1.8-1.5-.2-.2,1.5-3.1,24.6-.2,1.5,1.5.2,4.4.5,1.5.2.2-1.5,2.2-17.6,7.4.9-2.2,17.6-.2,1.5,1.5.2,4.4.5,1.5.2.2-1.5,2.1-17.6,7.4.9-2.3,17.5-.2,1.5,1.5.2,4.6.5,1.5.2.2-1.5,2.3-19,.1-.5-.3-.4Z" transform="translate(0 0)"/><path class="cls-4" d="M385.3,679l3.8-.3a8.62,8.62,0,0,1-4.2,1.3c-2.8.2-4.5-.5-5.5-1.5a5.54,5.54,0,0,1-1.7-3.7v-.4a5.61,5.61,0,0,1,1-3.8c.8-1,2.3-1.9,5.1-2.1a11.22,11.22,0,0,1,5.5.7,2.15,2.15,0,0,1,1.1,1.1h0l1.1.7-6.7.5-1.4,1.6.4,4.5Zm-.2,9.7a13,13,0,0,0,8.1-3.2,3.09,3.09,0,0,1,.2.8l1.6,1.3,5.5-.4,1.4-1.6-1.1-13.7-1.6-1.4h-.1l1.2-1.4V669a9,9,0,0,0-4.3-6.9c-2.7-1.8-6.8-2.7-12.5-2.2l-1.1.1c-6,.5-10,2.7-12.4,5.7a13.94,13.94,0,0,0-2.7,9.5l.1.9a13.42,13.42,0,0,0,4.3,9.1c2.8,2.6,7,4.1,12.9,3.6Z" transform="translate(0 0)"/><path class="cls-6" d="M446.8,666.2l-1.2-.8-7,1.6-.8,1.1a4.08,4.08,0,0,1-.6,2.1c-.6,1-2,2.1-5.1,2.8-2.8.6-4.7.1-5.9-.8a5.94,5.94,0,0,1-2.3-3.6l-.1-.5a6,6,0,0,1,.5-4.2c.8-1.2,2.3-2.4,5.1-3,3.1-.7,4.9-.2,5.8.3s1.4,1.3,1.4,1.5l1.2.6,7-1.6.8-1.2v-.1a9.6,9.6,0,0,0-5-6.6c-2.8-1.5-6.8-2-12.1-.8l-1.5.3c-5.8,1.3-9.3,4-11,7.1a13,13,0,0,0-1.2,9.3l.2,1a13,13,0,0,0,5.1,7.9c3,2.1,7.2,3.2,13.1,1.9l1.5-.3c5.4-1.2,8.8-3.4,10.6-6.1a9.38,9.38,0,0,0,1.5-7.9Z" transform="translate(0 0)"/><path class="cls-6" d="M409.6,658.4l-1.1-.8-6.9,1-.8,1.1,3.8,24.9,1.1.8,6.9-1,.8-1.1Z" transform="translate(0 0)"/><path class="cls-6" d="M359.4,688.5l.9.6,7.5.1.9-1.4-11.2-25.4-.9-.6-9.3-.2-.9.6-11.6,25,.9,1.4,7,.1.9-.6,1.8-4,12.3.2Zm-7.7-18.2,2.9,6.8-5.9-.1Z" transform="translate(0 0)"/><path class="cls-7" d="M331.9,662.2l-.1-.2h-.2l-10.3-1.3-.5-.1-.1.5-.5,4.2-2.9-4.9-.1-.2H317l-14.8-1.8-.5-.1-.1.5-3.1,24.6-.1.5.5.1,4.4.5.5.1.1-.5,2.3-18.6,9.4,1.2-2.3,18.6-.1.5.5.1,4.4.5.5.1.1-.5,2.3-18.6,9.4,1.2L328,687.1l-.1.5.5.1,4.6.5.5.1.1-.5,2.3-19v-.2l-.1-.1Z" transform="translate(0 0)"/><path class="cls-6" d="M385.2,678.5l5.2-.4c-.1.2-.3.3-.4.5-.8.8-2.3,1.6-5.1,1.9s-4.7-.5-5.9-1.6a6,6,0,0,1-1.9-4v-.4a5.81,5.81,0,0,1,1.1-4.1c.9-1.1,2.6-2.1,5.5-2.3a11.11,11.11,0,0,1,5.8.8,3,3,0,0,1,1.3,1.3h0l1,.6,7.2-.6.9-1.1V669a8.48,8.48,0,0,0-4-6.5c-2.6-1.7-6.6-2.6-12.2-2.2l-1.1.1c-5.9.5-9.7,2.6-12,5.5A13.34,13.34,0,0,0,368,675l.1.9a13.12,13.12,0,0,0,4.1,8.8c2.7,2.5,6.8,4,12.5,3.5h.5a13.18,13.18,0,0,0,8.4-3.6h0a6.18,6.18,0,0,1,.4,1.6l1.1.8,5.5-.4.9-1.1-1.1-13.7-1.1-.9-14.5,1.2-.9,1.1.4,4.5Z" transform="translate(0 0)"/><path class="cls-8" d="M446.4,666.4l-.1-.5-.5.1-7,1.6-.4.1v.4a4.36,4.36,0,0,1-.7,2.4c-.7,1.1-2.2,2.3-5.4,3a8.16,8.16,0,0,1-6.3-.8,6.47,6.47,0,0,1-2.5-3.9l-.1-.5a6.13,6.13,0,0,1,.6-4.6c.9-1.4,2.5-2.6,5.4-3.3,3.2-.7,5.1-.3,6.2.4a3,3,0,0,1,1.6,1.8l.2.4.4-.1,7-1.6.5-.1-.1-.5v-.1a9.14,9.14,0,0,0-4.7-6.3c-2.7-1.4-6.5-1.9-11.8-.8l-1.5.3c-5.7,1.3-9,3.9-10.7,6.9a12.66,12.66,0,0,0-1.2,9l.2,1a12.91,12.91,0,0,0,4.9,7.6c2.8,2,6.9,3.1,12.7,1.8l1.5-.3c5.3-1.2,8.6-3.4,10.4-5.9a9.7,9.7,0,0,0,1.4-7.5Z" transform="translate(0 0)"/><path class="cls-8" d="M409.1,658.5l-.1-.5-.5.1-6.9,1-.5.1.1.5,3.8,24.9.1.5.5-.1,6.9-1,.5-.1-.1-.5Z" transform="translate(0 0)"/><path class="cls-8" d="M359.8,688.3l.1.3h.3l7.5.1h.8l-.3-.7L357,662.6l-.1-.3h-.3l-9.3-.2H347l-.1.3-11.6,25-.3.7h.8l7,.1h.3l.1-.3,2-4.3,12.9.2Zm-8.1-19.2,3.6,8.6-7.5-.1Z" transform="translate(0 0)"/><path class="cls-9" d="M331.9,662.2l-.1-.2h-.2l-10.3-1.3-.5-.1-.1.5-.5,4.2-2.9-4.9-.1-.2H317l-14.8-1.8-.5-.1-.1.5-3.1,24.6-.1.5.5.1,4.4.5.5.1.1-.5,2.3-18.6,9.4,1.2-2.3,18.6-.1.5.5.1,4.4.5.5.1.1-.5,2.3-18.6,9.4,1.2L328,687.1l-.1.5.5.1,4.6.5.5.1.1-.5,2.3-19v-.2l-.1-.1Z" transform="translate(0 0)"/><path class="cls-8" d="M391.3,677.5c-.4,1.1-1.9,3.1-6.4,3.4-3,.2-5-.5-6.3-1.7a7,7,0,0,1-2.1-4.3v-.4a6.56,6.56,0,0,1,1.2-4.5c1-1.3,2.8-2.2,5.8-2.5,3.2-.3,5,.3,6,.9a3.88,3.88,0,0,1,1.5,1.5l.1.3h.3l7.2-.6h.5V669a8,8,0,0,0-3.8-6.1c-2.5-1.6-6.3-2.5-11.8-2.1l-1.1.1c-5.8.5-9.5,2.6-11.6,5.3a12.85,12.85,0,0,0-2.5,8.8l.1.9a13.09,13.09,0,0,0,3.9,8.5c2.6,2.4,6.5,3.8,12.1,3.4h.5a11.93,11.93,0,0,0,8.6-4.1c.1.3.2.5.3.8a6.78,6.78,0,0,1,.4,1.7l.1.5h.5l5.5-.4h.5v-.5l-1.1-13.7v-.5h-.5l-14.5,1.2h-.5v.5l.4,4.5v.5h.5Z" transform="translate(0 0)"/><path class="cls-10" d="M384.6,687.5c5.9-.5,8.2-3.8,8.8-4.6a13.52,13.52,0,0,1,1.1,3.4l5.5-.4-1.1-13.7-14.5,1.2.4,4.5,6.8-.5c0,.8-1.1,4-7,4.5-6.2.5-8.6-3.3-8.9-6.5V675c-.3-3.4,1.3-7,7.5-7.5,6.5-.5,7.7,2.1,8,2.7l7.2-.6v-.1c-.3-4.1-4.2-8.6-15.1-7.8l-1.1.1c-11.4.9-14.1,8.2-13.7,13.5l.1.9c.4,5.6,4.5,12.3,15.5,11.4Z" transform="translate(0 0)"/><path class="cls-10" d="M434,679.8c10.4-2.3,12.5-8.5,11.5-12.9v-.1l-7,1.6c.1.8,0,4.5-6.5,6-6,1.3-8.8-2.1-9.5-5.1l-.1-.5c-.7-3.3.4-7.1,6.4-8.4,6.5-1.5,8.2,1.8,8.4,2.5l7-1.6v-.1c-1-4.7-5.6-8.9-15.9-6.6l-1.5.3c-11.2,2.5-12.6,10.1-11.5,15.3l.2,1c1.1,5,5.7,11.6,16.9,9Z" transform="translate(0 0)"/><path class="cls-10" d="M408.3,658.9l-6.9,1,3.8,24.9,6.9-1Z" transform="translate(0 0)"/><path class="cls-10" d="M355.8,678.5l-9-.2,4.6-10.2Zm4.2,9.9,7.5.1-11.2-25.4-9.3-.2-11.6,25,7,.1,2.1-4.6,13.6.3Z" transform="translate(0 0)"/><path class="cls-10" d="M331.5,662.5l-10.3-1.3-.7,5.6-3.7-6.1L302,658.9l-3.1,24.6,4.4.5,2.4-19.1,10.3,1.3-2.4,19.1,4.4.5,2.3-19.1,10.4,1.3-2.5,19,4.5.5,2.3-19Z" transform="translate(0 0)"/><path class="cls-10" d="M259.3,650.6,253.4,675l22.6,5.5,1.3-5.4-15.9-3.9,1-4.2,15.2,3.7,1.3-5.5-15.2-3.7,1-4,15.7,3.8,1.3-5.3Z" transform="translate(0 0)"/><path class="cls-10" d="M230.5,667.8l3.8-11.2,7.7,15.1,8.6,2.9-8.8-17.3,16.3-6.7-8.4-2.8-14.5,6,3.3-9.8-6.6-2.2-8,23.9Z" transform="translate(0 0)"/><path class="cls-10" d="M214,650.8l-8.2-3.7,8.2-7.6Zm.1,10.8,6.8,3-.5-27.7-8.5-3.8-20.4,18.5,6.4,2.8,3.8-3.4,12.4,5.5Z" transform="translate(0 0)"/><path class="cls-10" d="M159.5,633.6l5.8,3.3,8.2-14.3-1.6,18.1,4.7,2.7,14.9-10.5-8.2,14.3,5.9,3.4,12.6-21.8-7.5-4.3-15.7,10.7,1.6-18.8-8-4.6Z" transform="translate(0 0)"/><path class="cls-10" d="M135.9,617.2c8.9,6.9,13.1,4.2,15.4,1.3l.2-.3c2.5-3.2,2.6-6.9-4.3-12.6l-2.7-2.2c-3-2.6-3.2-3.9-2.4-4.9s2.2-1.1,5.7,1.6l.3.2c3.8,3,3.3,4.7,2.8,5.6l5.9,4.6.2-.3c2-2.6,3.3-6.8-5.5-13.6l-.9-.7c-8.3-6.4-12.1-4.8-14.5-1.7l-.2.2c-2.3,3-2.2,7.2,4.1,12.5l2.6,2.1c3.2,2.6,3.4,4,2.5,5.2s-2.4,2-6.5-1.2l-.2-.1c-4.2-3.3-3.1-5.5-2.5-6.5l-6-4.6-.2.3c-1.8,2.4-4,7.4,5.3,14.7Z" transform="translate(0 0)"/><path class="cls-10" d="M110,594.7l5.1,4.7,13.2-14.3,7.2,6.6,3.9-4.2L120,569.6l-3.9,4.2,7.2,6.6Z" transform="translate(0 0)"/><path class="cls-10" d="M102.9,551.3l-18.6,17L100,585.4l4.1-3.8L93,569.5l3.2-3L106.8,578l4.2-3.8-10.6-11.5,3-2.8,10.9,11.9,4-3.7Z" transform="translate(0 0)"/><path class="cls-10" d="M87.4,531.7,67.5,547.2l13.7,17.7,4.7-3.6-9.5-12.2,15.2-11.8Z" transform="translate(0 0)"/><path class="cls-10" d="M192,64,179.3,42.3l-20,11.8,2.8,4.8,14.1-8.3,2.2,3.8-13.5,7.9,2.9,4.9,13.5-7.9,2.1,3.5-14,8.1,2.8,4.7Z" transform="translate(0 0)"/><path class="cls-2" d="M51,183l2.8-.6,3.8-6.1-.4-2.6a2.7,2.7,0,0,1-.7-1.3c-.2-.8-.1-2.4,1.5-4.9,1.4-2.2,2.9-3,4.1-3.2a4.83,4.83,0,0,1,3.5.8l.4.3a4.79,4.79,0,0,1,2.2,2.7c.3,1.1.1,2.7-1.3,5-1.6,2.5-3,3.2-3.8,3.5a4.14,4.14,0,0,1-1,.1.37.37,0,0,1-.3-.1h-.1l-2.5.8-3.8,6.1.6,2.8h.1a10.62,10.62,0,0,0,9,1.2c3.4-1,6.7-3.7,9.7-8.4l.8-1.3c3.3-5.2,3.9-9.8,2.9-13.7a13.91,13.91,0,0,0-6.2-8l-.9-.5a14.39,14.39,0,0,0-9.9-2.2c-3.9.6-7.9,3.1-11.2,8.4l-.8,1.3c-3,4.8-4,9-3.4,12.5A10.07,10.07,0,0,0,51,183Z" transform="translate(0 0)"/><path class="cls-2" d="M82.8,162.2l2.8-.4,4.1-5.6-.4-2.8L69,138.5l-2.8.4-4.1,5.6.4,2.8Z" transform="translate(0 0)"/><path class="cls-2" d="M98,103.7l-2.1.4-5.4,5.2.7,3.3,25.9,10,2.1-.4,6.7-6.5.5-2.1L117,87.7l-3.3-.8-5,4.9-.5,2.1,1.3,3.5-7.9,7.6Zm16.2,6.5-3.3-1.3,2.1-2Z" transform="translate(0 0)"/><path class="cls-3" d="M135.3,105.2l.9.2.8-.6,8.2-6.4,1.6-1.2-1.2-1.5,1.3.3.9.2.8-.6,11.7-9.1,1.6-1.2-1.2-1.6L145.5,64.1l-1.2-1.6-1.6,1.2-3.5,2.7-1.6,1.2,1.2,1.6,10.6,13.7-5.1,3.9L133.7,73.2l-1.2-1.6-1.6,1.2-3.5,2.7-1.6,1.2,1.2,1.6,10.6,13.6-5.1,4L122,82.3l-1.2-1.6L119.2,82l-3.6,2.9L114,86.1l1.2,1.6L127,102.8l.4.5.7.2Z" transform="translate(0 0)"/><path class="cls-2" d="M78.9,122.3a13.81,13.81,0,0,0-3.5,7.5l-2.7.3-3.6,4.2.2,2.8L79.8,146l2.2-.2.1,1.7h.1a9.59,9.59,0,0,0,8.3,2c3.3-.7,7-3,10.7-7.4l.7-.9c4-4.7,5.3-9.2,4.8-13.1a14,14,0,0,0-4.9-8.9l-.7-.6a14.53,14.53,0,0,0-9.8-3.6c-4,.2-8.2,2.2-12,6.7Zm9.5,6.8-2.7.2a1.38,1.38,0,0,0,.3-.4,6.67,6.67,0,0,1,4.6-2.7,5.08,5.08,0,0,1,3.5,1.3l.3.3a4.81,4.81,0,0,1,1.8,3c.1,1.1-.2,2.7-2,4.8-1.9,2.3-3.4,3-4.1,3.2a2.11,2.11,0,0,1-1.2,0h-.1l3.4-4L92,132Z" transform="translate(0 0)"/><path class="cls-4" d="M51.2,182.6l2.1-.5,3.8-6.1-.3-2a2.89,2.89,0,0,1-.9-1.6c-.2-1-.1-2.7,1.5-5.3,1.5-2.3,3.1-3.2,4.4-3.4a6,6,0,0,1,3.8.8l.4.3a5.22,5.22,0,0,1,2.4,3.1c.3,1.2.1,3-1.4,5.4-1.6,2.6-3.1,3.4-4.1,3.7a3.27,3.27,0,0,1-1.8,0l-1.9.6-3.8,6.1.5,2.1H56a10.13,10.13,0,0,0,8.6,1.2c3.2-1,6.5-3.6,9.4-8.2l.8-1.3c3.3-5.1,3.8-9.6,2.8-13.3a13.53,13.53,0,0,0-5.9-7.7l-.9-.5a13.92,13.92,0,0,0-9.5-2.1c-3.8.6-7.6,3-10.9,8.1l-.8,1.3c-3,4.7-3.9,8.8-3.3,12.2a10.92,10.92,0,0,0,4.9,7.1Z" transform="translate(0 0)"/><path class="cls-4" d="M83,161.8l2.1-.3,4.1-5.6-.3-2.1L68.6,138.9l-2.1.3-4.1,5.6.3,2.1Z" transform="translate(0 0)"/><path class="cls-4" d="M97.8,104.2l-1.6.3-5.4,5.2.5,2.5,25.9,10,1.6-.3,6.7-6.5.4-1.6-9.5-25.9-2.4-.6-5,4.9-.4,1.6,1.4,3.8-8.4,8.1Zm17.2,6.9-5.1-2.1,3.2-3.1Z" transform="translate(0 0)"/><path class="cls-5" d="M135.4,104.7l.7.2.6-.4,8.2-6.4,1.2-.9-.9-1.2-.8-1,2.7.7.7.2.6-.4,11.7-9.1,1.2-.9-.9-1.2L145.2,64.7l-.9-1.2-1.2.9-3.5,2.7-1.2.9.9,1.2,10.9,14-5.9,4.6-10.9-14-.9-1.2-1.2.9-3.5,2.7-1.2.9.9,1.2,10.9,14-5.9,4.6-10.8-14-.9-1.2-1.2.9L116,85.5l-1.2.9.9,1.2,11.8,15.1.3.4.5.1Z" transform="translate(0 0)"/><path class="cls-4" d="M86,129.6l-2.5,2.9a8.33,8.33,0,0,1,2.1-3.9c1.8-2.1,3.5-2.8,4.9-2.9a5.13,5.13,0,0,1,3.8,1.4l.3.3a4.93,4.93,0,0,1,1.9,3.4c.1,1.3-.3,3-2.1,5.1a10.62,10.62,0,0,1-4.4,3.4,2.34,2.34,0,0,1-1.5,0h0l-1.3.3,4.3-5.1-.2-2.1-3.4-2.9Zm-6.7-7a14.39,14.39,0,0,0-3.5,8,5.74,5.74,0,0,0-.7-.4l-2,.2-3.6,4.2.2,2.1,10.5,8.9,2.1-.2.1-.1.1,1.8h.1a9,9,0,0,0,7.9,1.9c3.2-.7,6.7-2.9,10.4-7.2l.7-.9c3.9-4.6,5.2-9,4.7-12.7a13.2,13.2,0,0,0-4.8-8.6l-.7-.6a13.8,13.8,0,0,0-9.5-3.4c-3.8.2-7.9,2.1-11.7,6.5Z" transform="translate(0 0)"/><path class="cls-6" d="M51.5,182.2l1.4-.3,3.8-6.1-.2-1.3a4.14,4.14,0,0,1-1.1-1.9c-.2-1.1-.1-2.9,1.6-5.6a7.36,7.36,0,0,1,4.7-3.7,6.1,6.1,0,0,1,4.2.9l.4.3a5.24,5.24,0,0,1,2.6,3.4c.3,1.4.1,3.3-1.5,5.7-1.7,2.7-3.3,3.6-4.4,3.9a3.1,3.1,0,0,1-2.1-.1l-1.3.4-3.8,6.1.3,1.4h.1a9.58,9.58,0,0,0,8.2,1.1c3.1-.9,6.2-3.4,9.1-8l.8-1.3c3.2-5,3.7-9.4,2.8-12.9a13.3,13.3,0,0,0-5.7-7.4l-.9-.5a13.08,13.08,0,0,0-9.2-2c-3.6.6-7.3,2.9-10.5,7.9l-.8,1.3c-3,4.7-3.8,8.6-3.2,11.8a10.36,10.36,0,0,0,4.7,6.9Z" transform="translate(0 0)"/><path class="cls-6" d="M83.3,161.4l1.4-.2,4.1-5.6-.2-1.4-20.2-15-1.4.2L62.9,145l.2,1.4Z" transform="translate(0 0)"/><path class="cls-6" d="M97.6,104.6l-1.1.2L91.1,110l.3,1.7,25.9,10,1.1-.2,6.7-6.5.2-1.1L115.9,88l-1.6-.4-5,4.9-.2,1.1,1.5,4.2-8.9,8.5Zm18.3,7.4-6.9-2.8,4.3-4.1Z" transform="translate(0 0)"/><path class="cls-7" d="M135.6,103.8l.2.1.2-.1,8.2-6.4.4-.3-.3-.4-2.6-3.3,5.5,1.4.2.1.2-.1,11.7-9.1.4-.3-.3-.4L144.2,65.4l-.3-.4-.4.3L140,68l-.4.3.3.4,11.5,14.8L144,89.3,132.5,74.5l-.3-.4-.4.3-3.5,2.7-.4.3.3.4,11.5,14.7-7.5,5.8L120.8,83.5l-.3-.4-.4.3-3.6,2.9-.4.3.3.4,11.8,15.1.1.1h.2Z" transform="translate(0 0)"/><path class="cls-6" d="M86.4,129.9l-3.4,4v-.7c0-1.1.5-2.8,2.3-4.9s3.7-3,5.3-3a6.18,6.18,0,0,1,4.2,1.5l.3.3a5.24,5.24,0,0,1,2.1,3.7c.1,1.4-.4,3.3-2.2,5.5-2,2.4-3.6,3.2-4.6,3.5a2.49,2.49,0,0,1-1.8,0h0l-1.2.2-4.7,5.5.1,1.4h.1a8.85,8.85,0,0,0,7.5,1.8c3-.7,6.5-2.8,10.1-7.1l.7-.9c3.9-4.5,5-8.7,4.6-12.4a12.94,12.94,0,0,0-4.6-8.3l-.7-.6a12.89,12.89,0,0,0-9.1-3.3c-3.7.1-7.6,2-11.3,6.4l-.4.4a12.81,12.81,0,0,0-3.4,8.5h0a13.7,13.7,0,0,1-1.4-.8l-1.3.2L70,135l.1,1.4,10.5,8.9,1.4-.1,9.4-11-.1-1.4-3.4-2.9Z" transform="translate(0 0)"/><path class="cls-8" d="M51.8,181.8l.4.3.3-.4,3.8-6.1.2-.4-.3-.3a3.76,3.76,0,0,1-1.2-2.2c-.3-1.3-.1-3.2,1.7-6,1.6-2.5,3.4-3.6,5.1-3.9a6.58,6.58,0,0,1,4.6,1l.4.3a6.11,6.11,0,0,1,2.8,3.7c.4,1.6.1,3.6-1.5,6.1-1.7,2.7-3.4,3.8-4.7,4.1a3.93,3.93,0,0,1-2.4-.1l-.4-.2-.2.4-3.8,6.1-.3.4.4.3h.1a9.38,9.38,0,0,0,7.8,1.1c2.9-.9,6-3.3,8.9-7.8l.8-1.3c3.1-4.9,3.6-9.1,2.7-12.5a12.8,12.8,0,0,0-5.5-7.2l-.9-.5a13.16,13.16,0,0,0-8.8-2c-3.4.6-7.1,2.7-10.2,7.7l-.8,1.3c-2.9,4.6-3.7,8.4-3.2,11.5a8.74,8.74,0,0,0,4.2,6.6Z" transform="translate(0 0)"/><path class="cls-8" d="M83.6,161l.4.3.3-.4,4.1-5.6.3-.4-.4-.3L68,139.7l-.4-.3-.3.4-4.1,5.6-.3.4.5.2Z" transform="translate(0 0)"/><path class="cls-8" d="M97.4,105.1l-.3-.1-.2.2-5.4,5.2-.6.5.7.3,25.9,10,.3.1.2-.2,6.7-6.5.2-.2-.1-.3-9.4-25.9-.3-.7-.6.5-5,4.9-.2.2.1.3,1.7,4.5-9.3,9Zm19.4,7.8-8.6-3.5,5.4-5.2Z" transform="translate(0 0)"/><path class="cls-9" d="M135.6,103.8l.2.1.2-.1,8.2-6.4.4-.3-.3-.4-2.6-3.3,5.5,1.4.2.1.2-.1,11.7-9.1.4-.3-.3-.4L144.2,65.4l-.3-.4-.4.3L140,68l-.4.3.3.4,11.5,14.8L144,89.3,132.5,74.5l-.3-.4-.4.3-3.5,2.7-.4.3.3.4,11.5,14.7-7.5,5.8L120.8,83.5l-.3-.4-.4.3-3.6,2.9-.4.3.3.4,11.8,15.1.1.1h.2Z" transform="translate(0 0)"/><path class="cls-8" d="M82.8,134.9c-.4-1-.8-3.5,2.1-7a7.85,7.85,0,0,1,5.7-3.2,6.21,6.21,0,0,1,4.5,1.6l.3.3a6.3,6.3,0,0,1,2.3,4c.2,1.6-.4,3.6-2.4,5.9s-3.7,3.4-4.9,3.7a3.39,3.39,0,0,1-2.1,0l-.3-.1-.2.3-4.7,5.5-.3.4.4.3h.1a7.82,7.82,0,0,0,7,1.6c2.9-.6,6.3-2.7,9.8-6.9l.7-.9c3.8-4.4,4.9-8.5,4.5-12a12.69,12.69,0,0,0-4.4-8l-.7-.6a13,13,0,0,0-8.8-3.2c-3.5.1-7.3,1.9-11,6.2l-.4.4c-3.2,3.8-3.4,7.3-3.2,9a3,3,0,0,1-.8-.4,6.56,6.56,0,0,1-1.5-.9l-.4-.3-.3.4-3.6,4.2-.3.4.5.4,10.5,8.9.4.3.3-.4,9.4-11,.3-.4-.4-.3-3.4-2.9-.4-.3-.3.4Z" transform="translate(0 0)"/><path class="cls-10" d="M80.5,123.1c-3.9,4.5-3.1,8.5-3,9.4a19.12,19.12,0,0,1-3.2-1.6l-3.6,4.2L81.2,144l9.4-11-3.4-2.9-4.4,5.2c-.5-.6-2.1-3.6,1.8-8.2s8.4-3.8,10.9-1.7l.3.3c2.6,2.2,4,5.9,0,10.6-4.2,4.9-6.9,4-7.6,3.8l-4.7,5.5h.1c3.1,2.7,9.1,3.1,16.2-5.2l.7-.9c7.4-8.7,4.2-15.8.1-19.2l-.7-.6c-4.3-3.7-11.8-5.5-19,2.9Z" transform="translate(0 0)"/><path class="cls-10" d="M50.9,163.5c-5.7,9-2.9,14.8,1,17.3l.1.1,3.8-6.1c-.6-.5-3.2-3.2.4-8.8,3.3-5.2,7.7-4.7,10.3-3.1l.4.3c2.9,1.8,4.7,5.3,1.4,10.5-3.6,5.6-7.1,4.5-7.7,4.2L56.8,184h.1c4,2.6,10.3,2.4,15.9-6.6l.8-1.3c6.2-9.7,1.8-16.1-2.7-18.9l-.9-.5c-4.3-2.8-12.2-4.1-18.4,5.6Z" transform="translate(0 0)"/><path class="cls-10" d="M83.9,160.1l4.1-5.6L67.7,139.6l-4.1,5.6Z" transform="translate(0 0)"/><path class="cls-10" d="M107.2,109.1l6.5-6.2,3.9,10.5Zm-10-4-5.4,5.2,25.9,10,6.7-6.5L115,87.9l-5,4.9,1.8,4.8L102,107Z" transform="translate(0 0)"/><path class="cls-10" d="M135.7,103.3l8.2-6.4-3.5-4.4,6.9,1.7L159,85.1,143.8,65.5l-3.5,2.7,11.8,15.2-8.2,6.4L132.1,74.6l-3.5,2.7,11.8,15.1-8.3,6.4L120.4,83.6l-3.6,2.9,11.8,15.1Z" transform="translate(0 0)"/><path class="cls-10" d="M303.9,2.1c-11.2,1.3-12.3,6.1-11.9,9.8v.4c.5,4.1,2.9,6.7,11.9,6.1l3.5-.3c4-.3,5,.6,5.1,1.8.2,1.4-.8,2.3-5.2,2.8H307c-4.8.5-5.6-1-5.9-2.1l-7.4.8v.4c.4,3.3,2.3,7.2,13.4,5.9l1.1-.1c10.4-1.2,12-4.9,11.6-8.8v-.3c-.4-3.8-3.4-6.8-11.7-6.1l-3.3.3c-4.2.3-5.2-.5-5.4-2s.3-3.1,5.5-3.7h.2c5.3-.6,6.1,1.8,6.3,2.9l7.5-.9V8.6c-.3-3-2.3-8.2-14-6.8Z" transform="translate(0 0)"/><path class="cls-10" d="M200.7,31.6l5.1,10.7-16-5.5-8.2,3.9L200,47.1l-7,16.1,8-3.8L207.2,45l4.4,9.3,6.3-3L207.1,28.6Z" transform="translate(0 0)"/><path class="cls-10" d="M338.1.2l-6.9.2.5,19.4L322,20l.1,5.7,26.4-.7-.1-5.8-9.7.2Z" transform="translate(0 0)"/><path class="cls-10" d="M224.4,32.3l8.4-3.1-.6,11.2Zm-7.6-7.7-7,2.6,19.6,19.6,8.8-3.2L240,16.1l-6.6,2.4-.3,5.1-12.7,4.7Z" transform="translate(0 0)"/><path class="cls-10" d="M373.4,26.5l1.5-25.1L351.7,0l-.3,5.5,16.3,1-.3,4.4L351.8,10l-.3,5.7,15.6.9-.2,4.1-16.1-1-.3,5.5Z" transform="translate(0 0)"/><path class="cls-10" d="M275.6,6.8l-6.5,1.6,4,16L261.7,10.3l-5.3,1.3L253,29.4l-4-16-6.6,1.7,6.2,24.4,8.4-2.1,3.8-18.6,11.9,14.6,9-2.3Z" transform="translate(0 0)"/><path class="cls-10" d="M398.2,29.8l3.5-24.9L379.6,1.8l-.8,5.9L394,9.9,391.3,29Z" transform="translate(0 0)"/></svg>