<svg width="24" height="22" viewBox="0 0 24 22" fill="none" xmlns="http://www.w3.org/2000/svg">
<g clip-path="url(#clip0_1069_30818)">
<path d="M19.6083 19.0188L20.2333 20.4166L17.6047 18.4168L17.4705 18.3147H17.302H9.70436H8.75391V16.9779V12.7549L10.2199 11.3125H20.1536L21.2224 12.2443V18.3147H20.0647H19.2934L19.6083 19.0188Z" stroke="#0C0D0D"/>
<path d="M21.0575 8.20634L21.6825 9.6041L19.0539 7.6043L18.9197 7.50223H18.7512H10.2031V1.94245L11.6691 0.5H22.6716V7.50223H21.5139H20.7426L21.0575 8.20634Z" stroke="#0C0D0D"/>
<path d="M0.171875 13.596V5.59375H11.8791L13.6403 7.32672V13.596H4.5923L0.404983 16.7816L1.82953 13.596H0.171875Z" fill="#0C0D0D"/>
</g>
<defs>
<clipPath id="clip0_1069_30818">
<rect width="23" height="22" fill="white" transform="translate(0.171875)"/>
</clipPath>
</defs>
</svg>
