<svg width="17" height="22" viewBox="0 0 17 22" fill="none" xmlns="http://www.w3.org/2000/svg">
<path d="M8.72656 10.5843V2.49609" stroke="#0C0D0D"/>
<path d="M9.18074 11.554V20.2472L15.8679 9.47351L9.18074 11.554Z" stroke="#0C0D0D" stroke-linecap="round"/>
<mask id="path-3-inside-1_1069_31191" fill="white">
<path d="M8.72656 11.1852L0.314868 8.41211L8.72656 21.8154V11.1852Z"/>
</mask>
<path d="M0.314868 8.41211L-5.61422 12.1331L-15.9378 -4.31648L2.50653 1.76406L0.314868 8.41211ZM8.72656 11.1852L10.9182 4.53714L15.7266 6.12231V11.1852H8.72656ZM8.72656 21.8154H15.7266V46.1377L2.79748 25.5364L8.72656 21.8154ZM2.50653 1.76406L10.9182 4.53714L6.5349 17.8332L-1.8768 15.0602L2.50653 1.76406ZM15.7266 11.1852V21.8154H1.72656V11.1852H15.7266ZM2.79748 25.5364L-5.61422 12.1331L6.24395 4.6911L14.6556 18.0943L2.79748 25.5364Z" fill="#0C0D0D" mask="url(#path-3-inside-1_1069_31191)"/>
<path d="M8.73096 10.6597L15.3606 8.58564L8.81123 6.4395L1.99634 8.43952L8.73096 10.6597Z" stroke="#0C0D0D"/>
<circle r="1.07142" transform="matrix(-1 0 0 1 15.1512 2.95618)" stroke="#0C0D0D"/>
<circle r="1.07142" transform="matrix(-1 0 0 1 2.39343 2.95618)" stroke="#0C0D0D"/>
<circle r="1.38654" transform="matrix(-1 0 0 1 8.77361 1.38654)" fill="#0C0D0D"/>
<path d="M13.9492 3.2793C11.6845 3.2793 11.8232 4.75828 11.8232 5.26668C11.8232 5.67339 11.8232 8.3941 11.8232 9.70361" stroke="#0C0D0D"/>
<path d="M3.6875 3.2793C5.95219 3.2793 5.81353 4.75828 5.81353 5.26668C5.81353 5.67339 5.81353 8.3941 5.81353 9.70361" stroke="#0C0D0D"/>
</svg>
