<svg width="37" height="26" viewBox="0 0 37 26" fill="none" xmlns="http://www.w3.org/2000/svg">
<path d="M37 8.15019C37 5.98863 36.1445 3.9156 34.6216 2.38715C33.0987 0.858693 31.0333 0 28.8796 0H8.12041C5.96673 0 3.90129 0.858693 2.37841 2.38715C0.855531 3.9156 0 5.98863 0 8.15019V17.8498C0 20.0114 0.855531 22.0844 2.37841 23.6129C3.90129 25.1413 5.96673 26 8.12041 26H28.8796C31.0333 26 33.0987 25.1413 34.6216 23.6129C36.1445 22.0844 37 20.0114 37 17.8498V8.15019ZM24.7936 13.7282L15.5307 18.3456C15.1602 18.5522 13.9252 18.2837 13.9252 17.8705V8.37745C13.9252 7.95393 15.1705 7.68536 15.541 7.90229L24.4539 12.7676C24.773 12.9742 25.1641 13.5217 24.7936 13.7282Z" fill="#0C0D0D"/>
</svg>
