<svg width="30" height="32" viewBox="0 0 30 32" fill="none" xmlns="http://www.w3.org/2000/svg">
<path d="M4.99468 12.6174H29.936C29.9536 12.9639 29.9792 13.2418 29.9792 13.518C29.9792 18.382 29.9312 23.2476 30.0048 28.1116C30.0416 30.4937 28.5325 32.0297 26.0152 32C18.867 31.9147 11.7188 31.9147 4.57058 32C2.13166 32.0312 0.452903 30.6513 0.526519 28.0226C0.644944 23.7331 0.550524 19.4373 0.566527 15.1446C0.566527 14.5296 0.712158 13.9161 0.726561 13.3011C0.776172 11.7651 0.827376 10.226 0 8.68371L28.5117 0C28.9918 1.5079 29.4623 2.95181 29.952 4.46907C28.5853 4.89054 27.2986 5.2917 26.0071 5.68507C19.2633 7.73411 12.5211 9.78732 5.78045 11.8447C5.45078 11.9461 4.84265 11.8728 4.99468 12.6174ZM29.3759 13.2183C29.1502 13.2012 28.9694 13.1762 28.7885 13.1762C20.2032 13.1762 11.6174 13.1762 3.03106 13.1762C2.23089 13.1762 1.08663 14.3001 1.08343 15.0899C1.07703 17.4054 1.07703 19.7198 1.08343 22.0332C1.08343 24.192 1.07224 26.3508 1.09305 28.5097C1.10745 29.9067 1.91881 30.9979 3.08066 31.2242C2.684 30.9672 2.34867 30.6299 2.0974 30.2353C1.84613 29.8408 1.68479 29.3981 1.62435 28.9374H10.7607V31.4209L11.028 31.4099V28.9405H19.5642V31.4209L19.8202 31.4053V28.8109H29.3487V28.5331H1.58755V16.96C2.24048 16.96 2.84862 16.9335 3.45355 16.9694C3.89364 16.9943 4.12248 16.8476 4.28572 16.4402C4.60579 15.6425 4.97386 14.8605 5.36114 14.0987C5.46036 13.9021 5.70203 13.6523 5.89087 13.6414C6.81266 13.5945 7.73926 13.6211 8.77148 13.6211L7.30396 16.9818C8.36499 16.9818 9.27079 17.0115 10.1718 16.9616C10.3018 16.9369 10.4246 16.8847 10.5316 16.8086C10.6386 16.7326 10.7272 16.6345 10.7911 16.5214C11.1976 15.7409 11.5273 14.9073 11.9113 14.1097C12.0026 13.9208 12.1962 13.6507 12.353 13.6414C13.3132 13.5992 14.2895 13.6195 15.3329 13.6195C14.824 14.8027 14.3727 15.847 13.8926 16.9787C14.9312 16.9787 15.861 17.0037 16.7876 16.9584C16.9796 16.9491 17.2325 16.7118 17.3285 16.5182C17.7222 15.7237 18.0551 14.8995 18.4487 14.1003C18.5384 13.9145 18.7432 13.6585 18.9064 13.6507C19.8538 13.6086 20.8045 13.6304 21.8639 13.6304L20.4076 16.9818C21.387 16.9818 22.216 17.0162 23.0369 16.9616C23.1784 16.9408 23.3136 16.8905 23.4332 16.814C23.5528 16.7374 23.654 16.6366 23.7299 16.5182C24.1444 15.7378 24.4644 14.9042 24.8597 14.1097C24.9589 13.9098 25.199 13.6507 25.3862 13.6414C26.308 13.593 27.2346 13.6195 28.2668 13.6195C27.7611 14.7918 27.3066 15.8455 26.8377 16.9381H29.3775L29.3759 13.2183ZM3.83123 8.4917C4.82184 8.18731 5.65082 7.90166 6.50061 7.69405C6.63181 7.68156 6.76421 7.69717 6.8886 7.73977C7.01298 7.78237 7.12635 7.85093 7.22076 7.94068C7.80968 8.5401 8.34099 9.20195 8.91391 9.81385C9.07395 9.96995 9.37001 10.1557 9.55405 10.112C10.4246 9.8997 11.2776 9.61404 12.2474 9.31902C11.4472 8.38243 10.7303 7.53951 9.95734 6.63258C10.8311 6.36253 11.5961 6.15024 12.3402 5.88332C12.7995 5.71942 13.1116 5.75688 13.4301 6.16429C13.9361 6.80127 14.4773 7.41095 15.0512 7.99063C15.2001 8.14673 15.5121 8.28878 15.6914 8.24195C16.5875 8.01405 17.4661 7.72058 18.4408 7.424L16.1555 4.73912C17.0821 4.45814 17.8822 4.17248 18.7032 3.98673C18.855 3.96711 19.0094 3.9797 19.1558 4.02361C19.3021 4.06752 19.4371 4.14173 19.5514 4.24117C20.1531 4.82809 20.6716 5.48995 21.2509 6.10341C21.3886 6.25014 21.667 6.4156 21.8255 6.37346C22.7617 6.12994 23.6819 5.82868 24.7061 5.51492C23.8931 4.57833 23.1666 3.73541 22.3984 2.84722C22.7553 2.73327 22.9809 2.65365 23.2098 2.58965C23.9491 2.38048 24.7893 1.86692 25.4022 2.0558C26.0584 2.25561 26.5225 3.1079 27.033 3.69639C27.9164 4.69541 27.9676 4.71102 29.2399 4.03512C28.8846 2.94244 28.5261 1.83415 28.1484 0.67278L0.755376 9.01307C0.958619 9.65932 1.13145 10.2291 1.31389 10.7941C1.53314 11.4732 2.57495 12.199 3.2631 12.032C4.2057 11.8119 5.12109 11.4794 6.14371 11.1672L3.83123 8.4917ZM29.3583 23.0478V22.8683H13.1868V23.0478H29.3583ZM29.3583 25.7951V25.6281H11.5593V25.7951H29.3583ZM16.5667 20.1506V20.3208H29.3583C29.3583 20.2646 29.3583 20.2084 29.3583 20.1506H16.5667ZM1.25789 11.9555C1.25789 12.3317 1.25789 12.5596 1.25789 12.7875C1.25789 13.0154 1.28508 13.2137 1.30268 13.4853C1.858 12.9327 1.86922 12.4753 1.25949 11.9555H1.25789Z" fill="#0C0D0D"/>
</svg>
