<svg width="29" height="32" viewBox="0 0 29 32" fill="none" xmlns="http://www.w3.org/2000/svg">
<g clip-path="url(#clip0_575_25824)">
<path d="M24.5847 3.9657C24.3038 3.66368 24.0189 3.36409 23.742 3.05801C23.3183 2.58954 23.3008 2.03908 23.6904 1.64855C24.08 1.25803 24.6632 1.29132 25.0957 1.75085C25.8849 2.58765 26.6699 3.42931 27.4507 4.27585C27.8935 4.75568 27.8919 5.26555 27.4507 5.74781C26.6689 6.59272 25.8833 7.43384 25.0941 8.27118C24.6767 8.71447 24.103 8.75831 23.7166 8.39215C23.3024 8 23.3151 7.43574 23.7523 6.95347C24.0292 6.64901 24.3078 6.34942 24.6617 5.9727C23.7698 5.9727 22.9676 5.91993 22.1749 5.98163C18.7812 6.24712 16.3873 8.91338 16.3825 12.3956C16.3825 15.4102 16.3825 18.4247 16.3825 21.4393C16.3738 25.3445 13.895 28.6327 10.1934 29.4835C9.08887 29.7377 7.91056 29.6727 6.76478 29.7174C6.42755 29.7303 6.23791 29.7912 6.07921 30.142C5.43967 31.5587 3.93682 32.2691 2.44667 31.9095C1.74075 31.732 1.11464 31.3146 0.670918 30.7254C0.227198 30.1363 -0.00781815 29.4104 0.00435655 28.6668C0.0345087 27.155 1.09697 25.8251 2.52285 25.5223C4.03046 25.1975 5.53092 25.9721 6.13079 27.423C6.27044 27.7591 6.43231 27.8638 6.77033 27.8419C7.70504 27.781 8.65881 27.85 9.57448 27.6852C12.358 27.1851 14.471 24.6268 14.5059 21.734C14.5432 18.6358 14.5163 15.5376 14.5178 12.4394C14.5178 7.66469 18.0329 4.07206 22.7018 4.06881H24.5506L24.5847 3.9657ZM1.86109 28.7122C1.85699 28.9863 1.93273 29.2554 2.07865 29.4852C2.22457 29.7151 2.43406 29.8953 2.68043 30.0028C2.92681 30.1104 3.1989 30.1405 3.46205 30.0892C3.72519 30.038 3.96745 29.9077 4.15798 29.7151C4.34851 29.5224 4.47867 29.2761 4.53187 29.0075C4.58508 28.7389 4.55891 28.4601 4.45672 28.2068C4.35453 27.9534 4.18093 27.7369 3.95805 27.5849C3.73517 27.4329 3.4731 27.3522 3.20524 27.3531C2.85186 27.3544 2.51306 27.4974 2.2617 27.7516C2.01034 28.0058 1.86649 28.3507 1.86109 28.7122Z" fill="#0C0D0D"/>
<path d="M10.8711 2.2587C11.5344 1.57184 12.1644 0.916638 12.7976 0.264687C13.0722 -0.0170405 13.3943 -0.0844265 13.7363 0.113676C13.8807 0.187825 13.9938 0.313031 14.0548 0.466065C14.1158 0.619099 14.1205 0.789574 14.068 0.945867C14.0063 1.12265 13.904 1.28166 13.7696 1.40946C13.1602 2.04355 12.539 2.66546 11.8843 3.32959C12.4604 3.91253 13.0023 4.46624 13.5443 5.01184C13.6562 5.12631 13.7736 5.23673 13.8783 5.3577C14.1759 5.70113 14.1696 6.15904 13.8704 6.4497C13.7298 6.58717 13.5416 6.66192 13.3471 6.6575C13.1527 6.65309 12.9679 6.56988 12.8333 6.42615C12.2898 5.89274 11.7621 5.34228 11.2321 4.79425C11.121 4.67896 11.0298 4.54418 10.9004 4.3818C10.7576 4.51495 10.6624 4.59858 10.5727 4.68951C10.0577 5.21399 9.54596 5.74497 9.03099 6.26702C8.58823 6.71843 8.15816 6.77771 7.82173 6.43915C7.48529 6.10059 7.53449 5.64592 7.97011 5.20344C8.56997 4.59533 9.17461 3.9921 9.8816 3.28169C9.51898 2.95693 9.18572 2.67764 8.8715 2.3748C8.51603 2.03218 8.16927 1.67739 7.83522 1.31285C7.51783 0.97185 7.52497 0.518812 7.81776 0.220846C8.11056 -0.0771189 8.55966 -0.0714368 8.8834 0.250073C9.43883 0.806221 9.98871 1.37617 10.5418 1.93881C10.6338 2.03299 10.7298 2.1223 10.8711 2.2587Z" fill="#0C0D0D"/>
<path d="M21.0148 26.4003C20.3697 25.7508 19.7778 25.1516 19.1898 24.5541C19.102 24.4719 19.0208 24.3825 18.947 24.287C18.832 24.136 18.7776 23.9458 18.795 23.7553C18.8124 23.5647 18.9003 23.3881 19.0406 23.2616C19.1789 23.1309 19.3617 23.061 19.5499 23.0667C19.738 23.0725 19.9164 23.1535 20.0468 23.2924C20.6197 23.8534 21.1743 24.4291 21.7377 25.0047C21.8297 25.0981 21.9257 25.1866 22.0622 25.3189L23.6555 23.6699C23.7674 23.5546 23.8769 23.4369 23.9935 23.3281C24.3482 22.9969 24.7965 22.9896 25.0901 23.3054C25.3702 23.6058 25.3607 24.0629 25.0425 24.3974C24.5172 24.9495 23.9808 25.4902 23.4452 26.0317C23.3421 26.1365 23.2199 26.2209 23.0683 26.3459C23.3111 26.6041 23.5063 26.8152 23.7031 27.0214C24.1316 27.4623 24.5664 27.8967 24.9917 28.3416C25.3535 28.7199 25.3837 29.1754 25.083 29.4945C24.7822 29.8135 24.3093 29.7916 23.9285 29.4043C23.3111 28.7751 22.7002 28.1386 22.0297 27.446C21.6274 27.869 21.2457 28.2734 20.8609 28.6744C20.6109 28.9351 20.361 29.1957 20.1031 29.4482C19.7556 29.7884 19.3096 29.8078 19.0081 29.5058C18.7066 29.2038 18.7121 28.7362 19.051 28.3862C19.6826 27.7335 20.3269 27.0945 21.0148 26.4003Z" fill="#0C0D0D"/>
<path d="M5.46728 13.9493C6.24871 13.9432 7.00062 14.2544 7.55822 14.8146C8.11583 15.3748 8.43364 16.1383 8.44202 16.9379C8.44995 18.5779 7.1058 19.9557 5.48632 19.9622C3.80018 19.9695 2.51475 18.5008 2.53141 16.9582C2.54966 15.2841 3.8216 13.9607 5.46728 13.9493ZM5.58312 15.4968C4.68014 15.4643 4.07552 16.018 4.04299 16.9143C4.01046 17.7262 4.63334 18.4285 5.42205 18.4375C6.35677 18.448 6.86459 17.8294 6.94235 16.9152C7.00027 16.2445 6.26948 15.5211 5.58312 15.4968Z" fill="#0C0D0D"/>
<path d="M26.1604 16.6925C24.7321 16.7176 23.2245 15.6524 23.1229 13.8508C23.0912 13.4506 23.138 13.048 23.2607 12.6666C23.3833 12.2853 23.5793 11.9328 23.8371 11.6301C24.0948 11.3274 24.4092 11.0806 24.7616 10.9041C25.1141 10.7276 25.4975 10.625 25.8892 10.6024C26.281 10.5798 26.6732 10.6377 27.0428 10.7725C27.4124 10.9074 27.7518 11.1166 28.0412 11.3877C28.3306 11.6589 28.564 11.9865 28.7278 12.3514C28.8915 12.7163 28.9823 13.111 28.9947 13.5123C29.0907 15.1669 27.8219 16.5893 26.1604 16.6925ZM26.0516 12.1743C25.664 12.1794 25.2939 12.3403 25.0212 12.6222C24.7485 12.9041 24.595 13.2845 24.594 13.6811C24.6036 14.5076 25.2598 15.1425 26.1223 15.1653C26.8316 15.1823 27.514 14.4516 27.5172 13.6714C27.5153 13.2745 27.3602 12.8944 27.0857 12.614C26.8112 12.3336 26.4395 12.1755 26.0516 12.1743Z" fill="#0C0D0D"/>
</g>
<defs>
<clipPath id="clip0_575_25824">
<rect width="29" height="32" fill="white"/>
</clipPath>
</defs>
</svg>
