<svg width="139" height="122" viewBox="0 0 139 122" fill="none" xmlns="http://www.w3.org/2000/svg">
<g clip-path="url(#clip0_902_145344)">
<path d="M9.36 15.84H23.04L70.38 98.1L73.53 94.95L24.66 12.24H7.02L0 0H30.96L85.5 94.68L70.56 121.32L9.36 15.84Z" fill="black"/>
<path d="M87.8406 89.82L35.6406 0H82.9806L111.241 48.96L104.401 60.66L76.3206 11.88H72.0006L102.241 63.72L95.7606 75.42L59.0406 11.88H54.9006L93.7806 78.3L87.8406 89.82Z" fill="black"/>
<path d="M113.039 44.91L95.2188 15.66H116.999L119.879 9.9H92.1588L86.2188 0H138.599L124.019 25.92H115.379L119.519 33.48L113.039 44.91Z" fill="black"/>
</g>
<defs>
<clipPath id="clip0_902_145344">
<rect width="138.6" height="121.32" fill="white"/>
</clipPath>
</defs>
</svg>
