<svg width="34" height="32" viewBox="0 0 34 32" fill="none" xmlns="http://www.w3.org/2000/svg">
<path d="M30.1392 12.1601C29.5 12.1596 28.8708 12.3164 28.3085 12.6162C27.7461 12.916 27.2685 13.3494 26.9189 13.8771C26.9189 13.8771 26.2862 14.7216 25.6012 14.7779C25.0066 14.8248 21.7958 14.8342 21.0014 14.8342C20.8195 14.1084 20.47 13.4339 19.9802 12.8634C19.4904 12.2928 18.8735 11.8416 18.1777 11.5451C17.4818 11.2485 16.7259 11.1145 15.9689 11.1537C15.212 11.1928 14.4744 11.404 13.8138 11.7707L7.92012 6.09413C7.64134 5.49556 7.56626 4.82414 7.70606 4.18003C7.70606 4.05337 7.70606 3.9267 7.70606 3.80003C7.70606 3.04846 7.48008 2.31376 7.05671 1.68885C6.63333 1.06394 6.03157 0.576877 5.32752 0.289262C4.62347 0.00164682 3.84876 -0.0736069 3.10134 0.0730181C2.35393 0.219643 1.66738 0.581561 1.12853 1.113C0.589672 1.64445 0.222706 2.32155 0.0740364 3.05868C-0.0746334 3.79582 0.00166979 4.55987 0.293296 5.25424C0.584923 5.9486 1.07878 6.5421 1.7124 6.95965C2.34603 7.3772 3.09097 7.60006 3.85303 7.60006C3.96719 7.60006 4.0766 7.60006 4.18601 7.60006C4.54549 7.5471 4.91203 7.56459 5.26465 7.65153C5.61727 7.73848 5.94904 7.89315 6.24096 8.10673C7.0401 8.74476 11.0644 12.7184 11.9491 13.591C11.5253 14.3225 11.3024 15.1504 11.3024 15.993C11.3024 16.8355 11.5253 17.6634 11.9491 18.395L6.19814 24.1231C6.19814 24.1231 5.58927 24.3999 5.06602 24.5923C4.67607 24.4658 4.26829 24.4009 3.85778 24.3999C3.09573 24.3999 2.35079 24.6228 1.71716 25.0404C1.08354 25.4579 0.589684 26.0514 0.298058 26.7458C0.00643125 27.4401 -0.069872 28.2042 0.0787979 28.9413C0.227468 29.6785 0.594434 30.3556 1.13329 30.887C1.67214 31.4184 2.35868 31.7804 3.1061 31.927C3.85351 32.0736 4.62823 31.9984 5.33228 31.7107C6.03633 31.4231 6.63809 30.9361 7.06146 30.3112C7.48484 29.6862 7.71081 28.9515 7.71081 28.2C7.71081 27.82 7.68227 26.5955 8.05331 26.0888C8.42434 25.5822 13.0099 20.8673 13.6997 20.1589C14.3527 20.5465 15.0882 20.7789 15.848 20.8378C16.6078 20.8967 17.3711 20.7805 18.0775 20.4984C18.784 20.2162 19.4142 19.7759 19.9183 19.2121C20.4225 18.6484 20.7867 17.9768 20.9823 17.2503L25.6631 17.194C26.1243 17.4777 26.5661 17.7912 26.9855 18.1322C27.3643 18.6686 27.8771 19.0995 28.4742 19.3833C29.0713 19.6671 29.7325 19.7942 30.394 19.7523C31.0554 19.7104 31.6947 19.5009 32.2501 19.1441C32.8055 18.7873 33.2581 18.2952 33.5643 17.7154C33.8705 17.1357 34.0198 16.4878 33.9979 15.8344C33.976 15.1811 33.7835 14.5444 33.4392 13.9858C33.0948 13.4273 32.6102 12.9658 32.0321 12.646C31.454 12.3261 30.8021 12.1588 30.1392 12.1601Z" fill="#0C0D0D"/>
</svg>
