<svg width="25" height="32" viewBox="0 0 25 32" fill="none" xmlns="http://www.w3.org/2000/svg">
<path fill-rule="evenodd" clip-rule="evenodd" d="M10.4629 20.8748C10.4629 20.9652 10.4082 21.0466 10.3899 21.1189C9.20397 25.7303 9.07628 26.752 7.85383 28.8859C7.27455 29.9008 6.61887 30.8711 5.89241 31.7883C5.81031 31.8968 5.73735 32.0234 5.57314 31.9963C5.40893 31.9692 5.38152 31.7974 5.36327 31.6527C5.15505 30.2582 5.06961 28.8484 5.10787 27.4392C5.17172 25.6308 5.3998 24.9708 7.78996 14.9976C7.81852 14.8568 7.79927 14.7105 7.73523 14.5817C7.13807 13.0929 7.07367 11.4462 7.55276 9.91607C8.62925 6.51633 12.5247 6.29932 13.1998 9.06613C13.6194 10.8022 12.5156 13.0717 11.6671 16.4262C10.9556 19.202 14.2489 21.1732 17.0587 19.1388C19.6587 17.2761 20.6622 12.8095 20.4706 9.63577C20.0966 3.30647 13.1085 1.95019 8.67485 3.98461C3.58434 6.31741 2.43491 12.5653 4.72472 15.4135C5.01665 15.7752 5.24469 16.0012 5.14434 16.3719C4.99837 16.9416 4.87067 17.5112 4.70646 18.0809C4.68799 18.1764 4.64657 18.2661 4.58574 18.3424C4.52492 18.4187 4.44648 18.4793 4.35701 18.5192C4.26753 18.5592 4.16966 18.5771 4.0717 18.5716C3.97374 18.5662 3.87856 18.5374 3.79418 18.4877C2.96274 18.15 2.23136 17.6087 1.66856 16.9145C-0.283715 14.5184 -0.840189 9.78947 1.74156 5.78393C4.59699 1.34437 9.90646 -0.454964 14.7507 0.0965898C20.5436 0.747604 24.2018 4.67177 24.8952 9.13845C25.2054 11.1638 24.9773 16.1549 22.1127 19.6903C18.8103 23.7501 13.4552 24.0214 10.9829 21.4987C10.7986 21.2999 10.6251 21.0917 10.4629 20.8748Z" fill="#0C0D0D"/>
</svg>
