<svg width="26" height="18" viewBox="0 0 26 18" fill="none" xmlns="http://www.w3.org/2000/svg">
<path d="M1 17V6.33333C1 4.91885 1.59 3.56229 2.6402 2.5621C3.69041 1.5619 5.11479 1 6.6 1C8.08521 1 9.50959 1.5619 10.5598 2.5621C11.61 3.56229 12.2 4.91885 12.2 6.33333V17M1 11.6667H12.2M25 1V17H20.8C19.9693 17 19.1573 16.7654 18.4666 16.3259C17.7759 15.8864 17.2376 15.2616 16.9197 14.5307C16.6018 13.7998 16.5186 12.9956 16.6807 12.2196C16.8428 11.4437 17.2428 10.731 17.8302 10.1716C18.4175 9.61216 19.1659 9.2312 19.9806 9.07686C20.7953 8.92252 21.6398 9.00173 22.4073 9.30448C23.1747 9.60723 23.8307 10.1199 24.2922 10.7777C24.7537 11.4355 25 12.2089 25 13" stroke="#0C0D0D" stroke-width="2" stroke-linecap="round" stroke-linejoin="round"/>
</svg>
