<svg width="32" height="32" viewBox="0 0 32 32" fill="none" xmlns="http://www.w3.org/2000/svg">
<path d="M24.1921 5.64065C23.8241 5.63888 23.4638 5.7464 23.1569 5.94958C22.85 6.15277 22.6104 6.44248 22.4683 6.782C22.3263 7.12152 22.2881 7.49557 22.3588 7.85676C22.4296 8.21795 22.6059 8.55002 22.8656 8.81089C23.1252 9.07176 23.4564 9.24971 23.8172 9.32216C24.1781 9.39462 24.5523 9.35833 24.8925 9.21789C25.2327 9.07746 25.5236 8.8392 25.7282 8.5333C25.9329 8.22741 26.0421 7.86765 26.0422 7.4996C26.0433 7.2559 25.9963 7.01437 25.9039 6.78889C25.8114 6.5634 25.6754 6.3584 25.5035 6.18566C25.3316 6.01292 25.1272 5.87585 24.9022 5.78232C24.6771 5.68879 24.4358 5.64064 24.1921 5.64065Z" fill="#0C0D0D"/>
<path d="M15.9429 8.02735C14.4007 8.02558 12.8928 8.48138 11.6098 9.33704C10.3268 10.1927 9.32652 11.4098 8.73555 12.8342C8.14459 14.2586 7.98952 15.8263 8.28994 17.3389C8.59037 18.8515 9.33279 20.2409 10.4232 21.3314C11.5137 22.4218 12.9031 23.1642 14.4157 23.4647C15.9283 23.7651 17.496 23.61 18.9204 23.019C20.3448 22.4281 21.5619 21.4278 22.4176 20.1448C23.2732 18.8618 23.729 17.3539 23.7272 15.8117C23.7225 13.7486 22.9008 11.7714 21.442 10.3126C19.9832 8.85372 18.006 8.03207 15.9429 8.02735ZM15.9429 20.8077C14.9544 20.8094 13.9876 20.5179 13.1648 19.97C12.3421 19.4222 11.7003 18.6425 11.3208 17.7298C10.9413 16.8171 10.8411 15.8123 11.0329 14.8426C11.2246 13.8729 11.6997 12.9818 12.3981 12.2822C13.0964 11.5826 13.9866 11.1059 14.956 10.9124C15.9253 10.7189 16.9303 10.8174 17.8437 11.1952C18.7572 11.5731 19.5379 12.2134 20.0873 13.0352C20.6366 13.857 20.9298 14.8232 20.9298 15.8117C20.9334 16.4693 20.8071 17.1211 20.5581 17.7298C20.3092 18.3384 19.9426 18.8919 19.4793 19.3586C19.016 19.8252 18.4651 20.1958 17.8582 20.4491C17.2513 20.7023 16.6005 20.8333 15.9429 20.8345V20.8077Z" fill="#0C0D0D"/>
<path d="M22.1287 31.6291H9.50034C6.98142 31.6267 4.56636 30.625 2.78521 28.8439C1.00406 27.0627 0.00236629 24.6476 0 22.1287V9.50034C0.00236629 6.98142 1.00406 4.56634 2.78521 2.7852C4.56636 1.00405 6.98142 0.00236629 9.50034 0H22.1287C24.6461 0.0047308 27.0589 1.00746 28.8381 2.78835C30.6173 4.56924 31.6178 6.98297 31.6201 9.50034V22.1287C31.6178 24.6461 30.6173 27.0598 28.8381 28.8407C27.0589 30.6216 24.6461 31.6243 22.1287 31.6291V31.6291ZM9.50034 2.95824C7.77073 2.9606 6.11267 3.64873 4.88965 4.87174C3.66663 6.09476 2.9785 7.75286 2.97613 9.48246V22.1108C2.9785 23.8404 3.66663 25.4985 4.88965 26.7215C6.11267 27.9446 7.77073 28.6327 9.50034 28.6351H22.1287C23.8576 28.6303 25.5143 27.9415 26.7368 26.7189C27.9594 25.4964 28.6482 23.8397 28.6529 22.1108V9.50034C28.6482 7.77146 27.9594 6.11474 26.7368 4.89223C25.5143 3.66972 23.8576 2.98083 22.1287 2.97612L9.50034 2.95824Z" fill="#0C0D0D"/>
</svg>
