<svg width="32" height="32" viewBox="0 0 32 32" fill="none" xmlns="http://www.w3.org/2000/svg">
<g clip-path="url(#clip0_554_44420)">
<mask id="mask0_554_44420" style="mask-type:alpha" maskUnits="userSpaceOnUse" x="0" y="0" width="32" height="32">
<path d="M29.0047 23.4863L20.1893 4.58082C19.6882 3.50637 18.7808 2.67497 17.6668 2.26953C16.5527 1.86409 15.3232 1.91781 14.2488 2.41888C13.1743 2.91994 12.3429 3.82731 11.9375 4.94137C11.5321 6.05543 11.5858 7.28492 12.0868 8.35937L20.903 27.2641C21.4039 28.3385 22.3112 29.1699 23.4252 29.5755C24.5392 29.981 25.7686 29.9273 26.8431 29.4264C27.9175 28.9254 28.749 28.0181 29.1545 26.9041C29.56 25.7902 29.5064 24.5607 29.0054 23.4863H29.0047Z" fill="white" stroke="white" stroke-width="4"/>
<path d="M15.6565 17.814L11.2477 27.2664C10.9996 27.7984 10.6491 28.2764 10.2163 28.6729C9.78351 29.0695 9.27682 29.377 8.72519 29.5777C8.17355 29.7785 7.58778 29.8686 7.00131 29.843C6.41484 29.8173 5.83917 29.6764 5.30716 29.4283V29.4283C4.23286 28.9273 3.40158 28.02 2.99614 26.9061C2.59071 25.7922 2.64433 24.5629 3.14522 23.4886L11.8839 4.75" stroke="white" stroke-width="4" stroke-linecap="round"/>
<path d="M5.30814 29.4249C7.5455 30.4682 10.205 29.5002 11.2483 27.2628C12.2916 25.0255 11.3236 22.366 9.08626 21.3227C6.8489 20.2794 4.1894 21.2473 3.1461 23.4847C2.1028 25.7221 3.07078 28.3816 5.30814 29.4249Z" fill="white" stroke="white" stroke-width="4"/>
</mask>
<g mask="url(#mask0_554_44420)">
<path d="M-1.80469 -1.95703H33.9545V33.8022H-1.80469V-1.95703Z" fill="#0C0D0D"/>
</g>
</g>
<defs>
<clipPath id="clip0_554_44420">
<rect width="32" height="32" fill="white"/>
</clipPath>
</defs>
</svg>
