<svg width="27" height="32" viewBox="0 0 27 32" fill="none" xmlns="http://www.w3.org/2000/svg">
<path d="M27 13.0122C26.7414 13.0253 26.4822 13.0253 26.2236 13.0122C24.8278 13.0121 23.4541 12.6598 22.2265 11.9869C20.9989 11.314 19.956 10.3417 19.1922 9.158V22.2762C19.1922 24.1994 18.6294 26.0794 17.575 27.6785C16.5206 29.2775 15.0219 30.5238 13.2684 31.2598C11.5149 31.9958 9.58547 32.1884 7.72401 31.8132C5.86254 31.438 4.15271 30.5119 2.81067 29.152C1.46863 27.7921 0.554656 26.0595 0.184388 24.1733C-0.18588 22.287 0.00416651 20.3319 0.730474 18.5551C1.45678 16.7783 2.68673 15.2597 4.2648 14.1912C5.84288 13.1228 7.69819 12.5525 9.59612 12.5525C9.79677 12.5525 9.98873 12.5525 10.1806 12.5525V17.326C9.98745 17.2918 9.79212 17.2711 9.59612 17.2641C8.93779 17.2359 8.28061 17.3429 7.66416 17.5787C7.04771 17.8146 6.48474 18.1743 6.00907 18.6364C5.53341 19.0984 5.15487 19.6532 4.8963 20.2673C4.63772 20.8815 4.50446 21.5422 4.50446 22.2099C4.50446 22.8776 4.63772 23.5384 4.8963 24.1525C5.15487 24.7667 5.53341 25.3214 6.00907 25.7835C6.48474 26.2455 7.04771 26.6053 7.66416 26.8411C8.28061 27.077 8.93779 27.184 9.59612 27.1558C10.9042 27.1775 12.1686 26.6787 13.1179 25.7664C14.0671 24.8541 14.6256 23.6011 14.6733 22.2762V0H19.1835C19.3889 1.98544 20.2764 3.83458 21.6908 5.2242C23.1053 6.61383 24.9567 7.45554 26.9215 7.60221V12.9061" fill="#0C0D0D"/>
</svg>
