<svg width="29" height="32" viewBox="0 0 29 32" fill="none" xmlns="http://www.w3.org/2000/svg">
<path d="M2.30326 0.874286C2.30326 0.391431 1.91183 0 1.42897 0C0.946119 0 0.554688 0.391431 0.554688 0.874286V30.4057C0.554688 30.8886 0.946119 31.28 1.42897 31.28C1.91183 31.28 2.30326 30.8886 2.30326 30.4057V0.874286Z" fill="#0C0D0D"/>
<path d="M4.39062 2.96484H13.8013C14.0262 2.96484 14.2488 3.00914 14.4565 3.09519C14.6643 3.18123 14.853 3.30734 15.012 3.46632C15.171 3.62531 15.2971 3.81406 15.3831 4.02179C15.4692 4.22951 15.5135 4.45216 15.5135 4.677V8.38866C15.5135 8.61351 15.4692 8.83615 15.3831 9.04388C15.2971 9.25161 15.171 9.44035 15.012 9.59934C14.853 9.75833 14.6643 9.88444 14.4565 9.97048C14.2488 10.0565 14.0262 10.1008 13.8013 10.1008H4.39062" fill="#0C0D0D"/>
<path d="M4.39062 12.0703H26.7942C27.2483 12.0703 27.6838 12.2507 28.0049 12.5718C28.326 12.8929 28.5063 13.3284 28.5063 13.7825V17.4982C28.5063 17.9523 28.326 18.3877 28.0049 18.7088C27.6838 19.0299 27.2483 19.2103 26.7942 19.2103H4.39062" fill="#0C0D0D"/>
<path d="M4.39062 21.1758H19.9456C20.3997 21.1758 20.8352 21.3562 21.1563 21.6773C21.4774 21.9984 21.6578 22.4339 21.6578 22.8879V26.5996C21.6578 27.0537 21.4774 27.4892 21.1563 27.8103C20.8352 28.1314 20.3997 28.3117 19.9456 28.3117H4.39062" fill="#0C0D0D"/>
</svg>
