<svg width="33" height="32" viewBox="0 0 33 32" fill="none" xmlns="http://www.w3.org/2000/svg">
<path d="M16.8502 0.001179C17.9614 -0.000298105 19.0618 0.218941 20.0877 0.64618C21.1135 1.07342 22.0443 1.70015 22.826 2.49002C23.6078 3.27989 24.225 4.21717 24.6418 5.24749C25.0586 6.27781 25.2667 7.38066 25.2541 8.49206C25.2541 10.3282 25.2541 12.1325 25.2541 13.576C25.5069 13.643 25.7671 13.6787 26.0287 13.6821C26.3963 13.6944 26.7612 13.6141 27.0898 13.4486C27.4865 13.2089 27.9331 13.0637 28.3949 13.0241C28.5961 13.0201 28.7957 13.0609 28.9792 13.1435C29.1627 13.2261 29.3256 13.3484 29.456 13.5017C30.1669 14.2234 29.4029 14.9133 28.257 15.3591C27.111 15.8048 25.5087 16.2081 25.4663 17.6091C26.0278 19.7009 27.3139 21.5253 29.0952 22.7567C30.0513 23.6407 31.2862 24.1626 32.5862 24.232H32.8939C32.9894 24.232 33.0531 24.232 33.0637 24.232C33.1274 24.508 33.3502 25.6012 31.2811 26.1212C29.212 26.6413 28.83 26.2911 28.4161 27.363C28.0023 28.435 28.1402 28.8914 27.6203 28.8914C27.2808 28.8914 25.7316 28.5942 24.3734 28.5942C23.825 28.5705 23.2773 28.6534 22.7605 28.8383C21.5084 29.4115 19.503 31.7995 16.5425 31.9481C13.6033 31.7995 11.6402 29.4115 10.3882 28.8383C9.87518 28.6529 9.3308 28.57 8.7859 28.5942C7.4277 28.5942 5.87851 28.8914 5.52835 28.8914C5.01902 28.8914 5.16758 28.435 4.76436 27.363C4.36115 26.2911 3.93671 26.6519 1.89941 26.1212C-0.137887 25.5906 0.0849356 24.508 0.159212 24.232C0.159212 24.232 0.222885 24.1683 0.307773 24.1683H0.626096C1.9378 24.0947 3.18476 23.5741 4.15954 22.6931C5.95448 21.4598 7.2639 19.6396 7.86275 17.5455C7.86275 16.1445 6.17562 15.7199 5.10391 15.2954C4.03221 14.8708 3.21517 14.1597 3.93671 13.438C4.06811 13.2859 4.23115 13.1643 4.41444 13.0818C4.59773 12.9993 4.79683 12.9579 4.9978 12.9604C5.45963 13 5.90617 13.1452 6.30294 13.3849C6.63039 13.5535 6.99608 13.634 7.36404 13.6184C7.6291 13.6149 7.89277 13.5793 8.14925 13.5123C8.14925 12.0688 8.14925 10.2645 8.14925 8.42838C8.16591 6.18161 9.0656 4.03158 10.654 2.44283C12.2423 0.854078 14.3918 -0.045836 16.638 -0.0625L16.8502 0.001179Z" fill="#0C0D0D"/>
</svg>
