<svg width="43" height="31" viewBox="0 0 43 31" fill="none" xmlns="http://www.w3.org/2000/svg">
<path d="M37.3721 3.08059e-06C36.2832 -0.00112659 35.2174 0.308461 34.3042 0.891196C33.391 1.47393 32.6696 2.30474 32.2277 3.28267C31.7858 4.26059 31.6424 5.34355 31.8149 6.40003C31.9874 7.45652 32.4684 8.44105 33.1994 9.23403L27.4237 19.9987C27.1604 19.9584 26.8943 19.9379 26.6278 19.9373C26.4169 19.9362 26.206 19.9493 25.9968 19.9764L21.1989 13.6919C21.7627 12.9183 22.1139 12.0148 22.2185 11.0688C22.3231 10.1228 22.1775 9.16638 21.7958 8.29187C21.4142 7.41735 20.8094 6.65436 20.0399 6.07674C19.2704 5.49911 18.3622 5.12638 17.4032 4.99454C16.4442 4.86271 15.4669 4.97624 14.5656 5.32418C13.6643 5.67212 12.8697 6.24269 12.2584 6.98072C11.6472 7.71874 11.2401 8.59925 11.0765 9.53711C10.9129 10.475 10.9983 11.4385 11.3245 12.3344L7.91359 15.971C6.69727 15.4465 5.33166 15.3602 4.05699 15.7274C2.78232 16.0946 1.68025 16.8917 0.944643 17.9786C0.209042 19.0654 -0.112957 20.3724 0.0352673 21.6695C0.183491 22.9666 0.792449 24.1708 1.75503 25.0703C2.71761 25.9698 3.97214 26.5069 5.29793 26.5872C6.62373 26.6674 7.93586 26.2856 9.0035 25.5091C10.0711 24.7325 10.8259 23.6108 11.135 22.3413C11.4441 21.0719 11.2877 19.736 10.6934 18.5686L13.9565 15.3398C14.7819 15.78 15.7062 16.0104 16.6454 16.0101C17.0272 16.0101 17.4081 15.9726 17.7823 15.8984L22.3302 21.9539C21.6452 22.7712 21.2134 23.7645 21.0861 24.8158C20.9587 25.8671 21.1411 26.9323 21.6116 27.8847C22.0821 28.8372 22.821 29.6369 23.7404 30.1889C24.6598 30.7409 25.7211 31.0219 26.7983 30.9987C27.8755 30.9754 28.9232 30.6487 29.817 30.0576C30.7108 29.4664 31.4132 28.6355 31.8406 27.6636C32.2681 26.6918 32.4026 25.6197 32.2283 24.5749C32.054 23.5301 31.5782 22.5564 30.8573 21.7695L36.9628 11.0607C37.0992 11.0607 37.2356 11.0607 37.3721 11.0607C38.1111 11.0607 38.843 10.9177 39.5258 10.6398C40.2086 10.3618 40.829 9.95447 41.3516 9.44092C41.8742 8.92738 42.2888 8.31772 42.5716 7.64674C42.8544 6.97577 43 6.25661 43 5.53036C43 4.8041 42.8544 4.08498 42.5716 3.414C42.2888 2.74303 41.8742 2.13336 41.3516 1.61982C40.829 1.10628 40.2086 0.69891 39.5258 0.420982C38.843 0.143055 38.1111 2.99401e-06 37.3721 3.08059e-06ZM5.63968 24.3057C4.97632 24.3057 4.32786 24.1124 3.77629 23.7503C3.22473 23.3881 2.79483 22.8733 2.54097 22.2711C2.28711 21.6688 2.22069 21.0062 2.3501 20.3668C2.47952 19.7275 2.79896 19.1402 3.26803 18.6793C3.7371 18.2183 4.33473 17.9045 4.98535 17.7773C5.63596 17.6501 6.31033 17.7154 6.9232 17.9648C7.53606 18.2143 8.0599 18.6367 8.42844 19.1787C8.79699 19.7208 8.99369 20.358 8.99369 21.0098C8.99219 21.8835 8.63834 22.721 8.00967 23.3387C7.38099 23.9565 6.52876 24.3042 5.63968 24.3057ZM13.2686 10.4518C13.2686 9.79996 13.4653 9.16276 13.8339 8.62075C14.2024 8.07875 14.7263 7.6563 15.3391 7.40684C15.952 7.15739 16.6264 7.09211 17.277 7.21928C17.9276 7.34646 18.5252 7.66038 18.9943 8.12132C19.4634 8.58226 19.7828 9.16951 19.9122 9.80885C20.0416 10.4482 19.9752 11.1109 19.7214 11.7131C19.4675 12.3154 19.0376 12.8301 18.486 13.1923C17.9345 13.5544 17.286 13.7477 16.6226 13.7477C15.7336 13.7462 14.8813 13.3985 14.2527 12.7807C13.624 12.163 13.2701 11.3255 13.2686 10.4518ZM26.6278 28.7356C25.9645 28.7356 25.316 28.5423 24.7645 28.1801C24.2129 27.818 23.783 27.3032 23.5291 26.701C23.2753 26.0987 23.2089 25.4361 23.3383 24.7967C23.4677 24.1574 23.7871 23.5701 24.2562 23.1092C24.7253 22.6482 25.3229 22.3343 25.9735 22.2072C26.6241 22.08 27.2985 22.1453 27.9114 22.3947C28.5242 22.6442 29.0481 23.0666 29.4166 23.6086C29.7852 24.1506 29.9819 24.7878 29.9819 25.4397C29.9804 26.3134 29.6265 27.1508 28.9978 27.7686C28.3692 28.3864 27.5169 28.7341 26.6278 28.7356ZM37.3721 8.82625C36.7087 8.82625 36.0602 8.63295 35.5087 8.27079C34.9571 7.90864 34.5272 7.3939 34.2734 6.79166C34.0195 6.18941 33.9531 5.52672 34.0825 4.88738C34.2119 4.24804 34.5314 3.66075 35.0004 3.19981C35.4695 2.73888 36.0671 2.42498 36.7177 2.29781C37.3683 2.17064 38.0427 2.23592 38.6556 2.48537C39.2685 2.73483 39.7923 3.15728 40.1608 3.69928C40.5294 4.24129 40.7261 4.87849 40.7261 5.53036C40.7246 6.40402 40.3707 7.24148 39.7421 7.85926C39.1134 8.47704 38.2611 8.82477 37.3721 8.82625Z" fill="#0C0D0D"/>
</svg>
