<svg width="24" height="22" viewBox="0 0 24 22" fill="none" xmlns="http://www.w3.org/2000/svg">
<path fill-rule="evenodd" clip-rule="evenodd" d="M16.2067 3.93546C16.2067 4.35316 16.1416 4.75567 16.021 5.13339C19.2327 6.09944 21.4293 8.44438 21.9913 10.9427C22.3253 10.7553 22.6838 10.4128 22.81 9.8451C22.8699 9.57553 23.1369 9.40557 23.4065 9.46547C23.6761 9.52538 23.846 9.79246 23.7861 10.062C23.54 11.1698 22.7502 11.7365 22.1289 11.9787C22.1318 12.0522 22.1333 12.1256 22.1333 12.199C22.1333 15.2362 20.127 16.9987 19.1238 17.5003V21.5747H15.2578C15.0958 20.9882 14.7439 19.7134 14.6328 19.306C12.5956 19.9542 10.2343 19.5761 9.30832 19.306L8.79902 21.5747H4.79411V17.8244L1.80779 16.3197C1.80779 16.3197 0.233604 15.4863 0.233604 14.4214C0.233604 14.0706 0.218534 13.6495 0.203285 13.2234C0.172243 12.356 0.140465 11.468 0.233604 11.111C0.372494 10.5785 1.17811 10.56 2.45598 10.5785C2.78934 9.28213 3.49 8.49503 3.79867 8.26353C3.66749 8.09377 3.25233 7.61534 2.64118 7.05975C1.49295 6.0782 2.16275 5.57045 2.64118 5.43927C3.64434 5.44698 5.85437 5.55501 6.66924 5.92541C6.85897 5.81869 7.53463 5.54189 8.56865 5.27236C8.41792 4.85498 8.33575 4.40482 8.33575 3.93546C8.33575 1.76197 10.0977 0 12.2712 0C14.4447 0 16.2067 1.76197 16.2067 3.93546ZM5.23388 10.1396C4.9526 10.1396 4.72458 10.3677 4.72458 10.6489V11.436C4.72458 11.7173 4.9526 11.9453 5.23388 11.9453C5.51515 11.9453 5.74317 11.7173 5.74317 11.436V10.6489C5.74317 10.3677 5.51515 10.1396 5.23388 10.1396Z" fill="#0C0D0D"/>
</svg>
